SplineFontDB: 3.0
FontName: GunjalaGondi
FullName: GunjalaGondi
FamilyName: GunjalaGondi
Weight: Book
Copyright: Original font copyright (c) 2014-2017 CDAST, University of Hyderabad, Hyderabad (cdast@uohyd.ernet.in).\nAdditions and modifications copyright (c) 2015-2019 SIL International (http://www.sil.org/).
Version: 001.002
ItalicAngle: 0
UnderlinePosition: -123
UnderlineWidth: 20
Ascent: 1638
Descent: 410
InvalidEm: 0
sfntRevision: 0x00010000
LayerCount: 3
Layer: 0 1 "Back" 1
Layer: 1 1 "Fore" 0
Layer: 2 0 "Back 2" 1
XUID: [1021 352 -31360307 15874248]
FSType: 768
OS2Version: 3
OS2_WeightWidthSlopeOnly: 0
OS2_UseTypoMetrics: 1
CreationTime: 1417865974
ModificationTime: 1547002850
PfmFamily: 17
TTFWeight: 400
TTFWidth: 5
LineGap: 57
VLineGap: 0
Panose: 2 0 5 3 8 0 0 2 0 4
OS2TypoAscent: 1516
OS2TypoAOffset: 0
OS2TypoDescent: -497
OS2TypoDOffset: 0
OS2TypoLinegap: 112
OS2WinAscent: 1897
OS2WinAOffset: 0
OS2WinDescent: 403
OS2WinDOffset: 0
HheadAscent: 1897
HheadAOffset: 0
HheadDescent: -403
HheadDOffset: 0
OS2SubXSize: 1434
OS2SubYSize: 1331
OS2SubXOff: 0
OS2SubYOff: 293
OS2SupXSize: 1434
OS2SupYSize: 1331
OS2SupXOff: 0
OS2SupYOff: 928
OS2StrikeYSize: 102
OS2StrikeYPos: 512
OS2Vendor: 'SFS '
OS2CodePages: 00000001.00000000
OS2UnicodeRanges: 80008003.00002040.00000000.00000000
Lookup: 4 0 0 "'half' Half Forms in Devanagari lookup 0" { "'half' Half Forms in Devanagari lookup 0 subtable"  } ['half' ('deva' <'dflt' > ) 'zz01' ('deva' <'zz01' > ) ]
Lookup: 4 0 0 "'psts' Post Base Substitutions in Devanagari lookup 1" { "'psts' Post Base Substitutions in Devanagari lookup 1 subtable"  } ['psts' ('deva' <'dflt' > ) 'zz02' ('deva' <'zz01' > ) ]
Lookup: 4 0 0 "'pres' Pre Base Substitutions in Devanagari lookup 2" { "'pres' Pre Base Substitutions in Devanagari lookup 2 subtable"  } ['pres' ('deva' <'dflt' > ) 'zz03' ('deva' <'zz01' > ) ]

StartChar: .notdef
Encoding: 0 -1 0
Width: 1042
GlyphClass: 2
Flags: W
LayerCount: 3
Fore
SplineSet
127 0 m 1,0,-1
 127 1339 l 1,1,-1
 906 1339 l 1,2,-1
 906 0 l 1,3,-1
 127 0 l 1,0,-1
259 127 m 1,4,-1
 779 127 l 1,5,-1
 779 1211 l 1,6,-1
 259 1211 l 1,7,-1
 259 127 l 1,4,-1
EndSplineSet
EndChar

StartChar: exclam
Encoding: 4 33 4
Width: 694
GlyphClass: 2
Flags: W
LayerCount: 3
Fore
SplineSet
504 1131 m 1,0,-1
 430 402 l 1,1,-1
 351 402 l 1,2,-1
 274 1124 l 1,3,-1
 271 1167 l 1,4,5
 271 1232 271 1232 308 1266 c 0,6,7
 345 1302 345 1302 389 1302 c 0,8,9
 442 1302 442 1302 469 1266.5 c 128,-1,10
 496 1231 496 1231 507 1175 c 1,11,-1
 504 1131 l 1,0,-1
384 -3 m 1,12,-1
 249 125 l 1,13,-1
 394 271 l 1,14,-1
 532 125 l 1,15,-1
 384 -3 l 1,12,-1
EndSplineSet
EndChar

StartChar: quotedbl
Encoding: 5 34 5
Width: 1024
GlyphClass: 2
Flags: W
LayerCount: 3
Fore
SplineSet
364 1277 m 1,0,-1
 291 1280 l 1,1,2
 280 1378 280 1378 268.5 1452.5 c 128,-1,3
 257 1527 257 1527 244 1581 c 0,4,5
 220 1688 220 1688 230 1707 c 1,6,-1
 437 1666 l 1,7,-1
 364 1277 l 1,0,-1
709 1277 m 1,8,-1
 632 1280 l 1,9,10
 621 1378 621 1378 610 1452.5 c 128,-1,11
 599 1527 599 1527 588 1581 c 0,12,13
 566 1686 566 1686 574 1707 c 1,14,-1
 779 1666 l 1,15,-1
 709 1277 l 1,8,-1
EndSplineSet
EndChar

StartChar: numbersign
Encoding: 6 35 6
Width: 1167
GlyphClass: 2
Flags: W
LayerCount: 3
Fore
SplineSet
310 389 m 1,0,-1
 161 389 l 1,1,-1
 161 520 l 1,2,-1
 335 520 l 1,3,-1
 386 784 l 1,4,-1
 161 784 l 1,5,-1
 161 906 l 1,6,-1
 412 906 l 1,7,-1
 499 1334 l 1,8,-1
 625 1334 l 1,9,-1
 542 906 l 1,10,-1
 801 906 l 1,11,-1
 891 1334 l 1,12,-1
 1014 1334 l 1,13,-1
 929 906 l 1,14,-1
 1075 906 l 1,15,-1
 1075 784 l 1,16,-1
 901 784 l 1,17,-1
 850 520 l 1,18,-1
 1075 520 l 1,19,-1
 1075 389 l 1,20,-1
 824 389 l 1,21,-1
 740 -13 l 1,22,-1
 611 -13 l 1,23,-1
 696 389 l 1,24,-1
 437 389 l 1,25,-1
 354 -13 l 1,26,-1
 220 -13 l 1,27,-1
 310 389 l 1,0,-1
464 520 m 1,28,-1
 716 520 l 1,29,-1
 772 784 l 1,30,-1
 517 784 l 1,31,-1
 464 520 l 1,28,-1
EndSplineSet
EndChar

StartChar: percent
Encoding: 7 -1 7
Width: 1424
GlyphClass: 2
Flags: W
LayerCount: 3
Fore
SplineSet
156 935 m 2,0,1
 156 989 156 989 174 1042.5 c 128,-1,2
 192 1096 192 1096 225 1138.5 c 128,-1,3
 258 1181 258 1181 304 1207.5 c 128,-1,4
 350 1234 350 1234 405 1234 c 0,5,6
 461 1234 461 1234 513.5 1217.5 c 128,-1,7
 566 1201 566 1201 606 1169 c 128,-1,8
 646 1137 646 1137 670 1088.5 c 128,-1,9
 694 1040 694 1040 694 977 c 0,10,11
 694 915 694 915 674.5 858 c 128,-1,12
 655 801 655 801 619.5 757.5 c 128,-1,13
 584 714 584 714 535 688 c 128,-1,14
 486 662 486 662 427 662 c 0,15,16
 331 662 331 662 255 720 c 256,17,18
 179 778 179 778 156 886 c 1,19,-1
 156 935 l 2,0,1
722 295 m 2,20,21
 722 350 722 350 740 403 c 128,-1,22
 758 456 758 456 790.5 498 c 128,-1,23
 823 540 823 540 868.5 565.5 c 128,-1,24
 914 591 914 591 970 591 c 0,25,26
 1029 593 1029 593 1081 576.5 c 128,-1,27
 1133 560 1133 560 1172 527 c 128,-1,28
 1211 494 1211 494 1234 445.5 c 128,-1,29
 1257 397 1257 397 1257 335 c 0,30,31
 1259 274 1259 274 1239.5 217.5 c 128,-1,32
 1220 161 1220 161 1184.5 117.5 c 128,-1,33
 1149 74 1149 74 1100.5 48 c 128,-1,34
 1052 22 1052 22 996 22 c 0,35,36
 899 22 899 22 823 79 c 0,37,38
 748 135 748 135 722 244 c 1,39,-1
 722 295 l 2,20,21
386 -46 m 1,40,-1
 259 -46 l 1,41,-1
 1047 1319 l 1,42,-1
 1180 1319 l 1,43,-1
 386 -46 l 1,40,-1
281 1006 m 0,44,45
 281 964 281 964 295 923.5 c 128,-1,46
 309 883 309 883 334.5 851.5 c 128,-1,47
 360 820 360 820 395 800.5 c 128,-1,48
 430 781 430 781 471 781 c 0,49,50
 517 781 517 781 543 814 c 0,51,52
 569 848 569 848 569 886 c 0,53,54
 569 922 569 922 553.5 962 c 128,-1,55
 538 1002 538 1002 512 1036 c 128,-1,56
 486 1070 486 1070 453 1092 c 128,-1,57
 420 1114 420 1114 384 1114 c 0,58,59
 360 1114 360 1114 340.5 1105.5 c 128,-1,60
 321 1097 321 1097 308 1082 c 128,-1,61
 295 1067 295 1067 288 1047.5 c 128,-1,62
 281 1028 281 1028 281 1006 c 0,44,45
850 366 m 0,63,64
 850 323 850 323 863.5 281.5 c 128,-1,65
 877 240 877 240 901.5 207.5 c 128,-1,66
 926 175 926 175 961 156 c 128,-1,67
 996 137 996 137 1039 139 c 0,68,69
 1063 139 1063 139 1081 148 c 128,-1,70
 1099 157 1099 157 1110.5 172 c 128,-1,71
 1122 187 1122 187 1128 205.5 c 128,-1,72
 1134 224 1134 224 1134 244 c 0,73,74
 1133 280 1133 280 1118.5 320 c 128,-1,75
 1104 360 1104 360 1079 393.5 c 128,-1,76
 1054 427 1054 427 1020 449 c 128,-1,77
 986 471 986 471 947 471 c 0,78,79
 899 471 899 471 874.5 441.5 c 128,-1,80
 850 412 850 412 850 366 c 0,63,64
EndSplineSet
EndChar

StartChar: ampersand
Encoding: 8 38 8
Width: 1685
GlyphClass: 2
Flags: W
LayerCount: 3
Fore
SplineSet
1482 852 m 1,0,-1
 1482 816 l 1,1,2
 1444 814 1444 814 1414.5 806.5 c 128,-1,3
 1385 799 1385 799 1362 781 c 0,4,5
 1324 752 1324 752 1236 601 c 0,6,7
 1191 525 1191 525 1147.5 454.5 c 128,-1,8
 1104 384 1104 384 1050 317 c 1,9,10
 1133 218 1133 218 1199 178 c 0,11,12
 1265 139 1265 139 1336 139 c 0,13,14
 1402 139 1402 139 1447 175.5 c 128,-1,15
 1492 212 1492 212 1507 279 c 1,16,-1
 1546 256 l 1,17,18
 1505 120 1505 120 1432 60 c 128,-1,19
 1359 0 1359 0 1251 0 c 0,20,21
 1176 0 1176 0 1095 38 c 0,22,23
 1017 75 1017 75 919 179 c 1,24,25
 860 128 860 128 808 93.5 c 128,-1,26
 756 59 756 59 706.5 38 c 128,-1,27
 657 17 657 17 608 8.5 c 128,-1,28
 559 0 559 0 507 0 c 0,29,30
 428 0 428 0 364.5 21.5 c 128,-1,31
 301 43 301 43 256.5 80 c 128,-1,32
 212 117 212 117 188 167.5 c 128,-1,33
 164 218 164 218 164 276 c 0,34,35
 164 364 164 364 194 429 c 128,-1,36
 224 494 224 494 277 547 c 128,-1,37
 330 600 330 600 401.5 647 c 128,-1,38
 473 694 473 694 557 745 c 1,39,40
 534 794 534 794 518.5 833.5 c 128,-1,41
 503 873 503 873 495 904 c 0,42,43
 481 969 481 969 481 1029 c 0,44,45
 481 1187 481 1187 601 1277 c 1,46,47
 692 1339 692 1339 811 1339 c 0,48,49
 928 1339 928 1339 998 1274 c 0,50,51
 1067 1209 1067 1209 1067 1109 c 256,52,53
 1067 1009 1067 1009 996 935 c 0,54,55
 962 896 962 896 904 856 c 128,-1,56
 846 816 846 816 755 767 c 1,57,58
 815 656 815 656 878.5 561.5 c 128,-1,59
 942 467 942 467 1006 374 c 1,60,61
 1175 570 1175 570 1175 711 c 0,62,63
 1175 752 1175 752 1144 789 c 0,64,65
 1134 801 1134 801 1117.5 807.5 c 128,-1,66
 1101 814 1101 814 1085 816 c 1,67,-1
 1085 852 l 1,68,-1
 1482 852 l 1,0,-1
865 232 m 1,69,70
 833 278 833 278 807.5 315 c 128,-1,71
 782 352 782 352 761.5 382.5 c 128,-1,72
 741 413 741 413 724.5 437.5 c 128,-1,73
 708 462 708 462 695 485 c 256,74,75
 682 508 682 508 669.5 529 c 128,-1,76
 657 550 657 550 644 570 c 0,77,78
 632 590 632 590 617.5 617.5 c 128,-1,79
 603 645 603 645 586 679 c 1,80,81
 364 550 364 550 364 364 c 0,82,83
 364 300 364 300 394 242 c 128,-1,84
 424 184 424 184 475 149 c 0,85,86
 526 115 526 115 588.5 108.5 c 128,-1,87
 651 102 651 102 714 132 c 0,88,89
 742 144 742 144 779.5 169 c 128,-1,90
 817 194 817 194 865 232 c 1,69,70
719 830 m 1,91,92
 952 937 952 937 952 1114 c 0,93,94
 952 1187 952 1187 912 1229.5 c 128,-1,95
 872 1272 872 1272 806 1272 c 0,96,97
 728 1272 728 1272 684 1216 c 0,98,99
 642 1160 642 1160 642 1099 c 0,100,101
 642 1076 642 1076 646.5 1052 c 128,-1,102
 651 1028 651 1028 660.5 997.5 c 128,-1,103
 670 967 670 967 684.5 926 c 128,-1,104
 699 885 699 885 719 830 c 1,91,92
EndSplineSet
EndChar

StartChar: quotesingle
Encoding: 9 39 9
Width: 532
GlyphClass: 2
Flags: W
LayerCount: 3
Fore
SplineSet
447 1620 m 0,0,1
 447 1566 447 1566 349 1441 c 0,2,3
 301 1380 301 1380 256 1330 c 128,-1,4
 211 1280 211 1280 169 1244 c 1,5,-1
 169 1356 l 1,6,-1
 317 1559 l 1,7,-1
 317 1620 l 1,8,-1
 222 1771 l 1,9,-1
 332 1897 l 1,10,11
 447 1795 447 1795 447 1620 c 0,0,1
EndSplineSet
EndChar

StartChar: parenleft
Encoding: 10 40 10
Width: 684
GlyphClass: 2
Flags: W
LayerCount: 3
Fore
SplineSet
510 -249 m 1,0,1
 489 -230 489 -230 473 -212 c 128,-1,2
 457 -194 457 -194 443 -176 c 128,-1,3
 429 -158 429 -158 416 -139.5 c 128,-1,4
 403 -121 403 -121 389 -100 c 0,5,6
 341 -39 341 -39 303.5 35 c 128,-1,7
 266 109 266 109 237 197 c 1,8,9
 190 302 190 302 172 422 c 128,-1,10
 154 542 154 542 154 679 c 0,11,12
 154 790 154 790 172 898 c 128,-1,13
 190 1006 190 1006 232 1124 c 1,14,15
 274 1263 274 1263 347 1373 c 0,16,17
 384 1430 384 1430 424.5 1486 c 128,-1,18
 465 1542 465 1542 510 1600 c 1,19,-1
 569 1500 l 1,20,21
 495 1422 495 1422 439 1311 c 0,22,23
 384 1202 384 1202 349 1090 c 1,24,25
 322 988 322 988 308.5 889 c 128,-1,26
 295 790 295 790 295 679 c 256,27,28
 295 568 295 568 307.5 454.5 c 128,-1,29
 320 341 320 341 345 217 c 1,30,31
 364 178 364 178 387 129.5 c 128,-1,32
 410 81 410 81 438 31.5 c 128,-1,33
 466 -18 466 -18 498.5 -65 c 128,-1,34
 531 -112 531 -112 569 -149 c 1,35,-1
 510 -249 l 1,0,1
EndSplineSet
EndChar

StartChar: parenright
Encoding: 11 41 11
Width: 676
GlyphClass: 2
Flags: W
LayerCount: 3
Fore
SplineSet
205 1595 m 1,0,1
 232 1569 232 1569 264.5 1533 c 128,-1,2
 297 1497 297 1497 325 1449 c 0,3,4
 371 1374 371 1374 411.5 1295 c 128,-1,5
 452 1216 452 1216 484 1134 c 0,6,7
 566 900 566 900 566 655 c 0,8,9
 566 469 566 469 484 207 c 0,10,11
 455 122 455 122 415.5 50 c 128,-1,12
 376 -22 376 -22 327 -85 c 0,13,14
 314 -108 314 -108 301.5 -128 c 128,-1,15
 289 -148 289 -148 275 -165 c 0,16,17
 262 -182 262 -182 245 -203 c 128,-1,18
 228 -224 228 -224 207 -249 c 1,19,-1
 149 -154 l 1,20,21
 177 -108 177 -108 206.5 -65 c 128,-1,22
 236 -22 236 -22 263.5 21.5 c 128,-1,23
 291 65 291 65 315.5 111.5 c 128,-1,24
 340 158 340 158 359 212 c 1,25,26
 386 320 386 320 404 426 c 128,-1,27
 422 532 422 532 422 655 c 0,28,29
 422 770 422 770 406.5 892.5 c 128,-1,30
 391 1015 391 1015 359 1141 c 1,31,32
 332 1207 332 1207 305.5 1265.5 c 128,-1,33
 279 1324 279 1324 244 1382 c 0,34,35
 237 1392 237 1392 229.5 1402.5 c 128,-1,36
 222 1413 222 1413 211 1426.5 c 128,-1,37
 200 1440 200 1440 184.5 1458 c 128,-1,38
 169 1476 169 1476 146 1502 c 1,39,-1
 205 1595 l 1,0,1
EndSplineSet
EndChar

StartChar: asterisk
Encoding: 12 42 12
Width: 1116
GlyphClass: 2
Flags: W
LayerCount: 3
Fore
SplineSet
789 479 m 1,0,-1
 622 632 l 1,1,-1
 579 609 l 1,2,-1
 657 396 l 1,3,-1
 576 291 l 1,4,-1
 464 386 l 1,5,-1
 512 604 l 1,6,-1
 466 625 l 1,7,-1
 302 466 l 1,8,-1
 197 481 l 1,9,-1
 220 640 l 1,10,-1
 435 686 l 1,11,-1
 437 737 l 1,12,-1
 259 789 l 1,13,-1
 171 916 l 1,14,-1
 317 970 l 1,15,-1
 461 804 l 1,16,-1
 510 824 l 1,17,-1
 435 1052 l 1,18,-1
 517 1165 l 1,19,-1
 627 1065 l 1,20,-1
 571 840 l 1,21,-1
 625 806 l 1,22,-1
 779 965 l 1,23,-1
 899 970 l 1,24,-1
 875 806 l 1,25,-1
 652 747 l 1,26,-1
 655 689 l 1,27,-1
 847 655 l 1,28,-1
 916 532 l 1,29,-1
 789 479 l 1,0,-1
EndSplineSet
EndChar

StartChar: plus
Encoding: 13 43 13
Width: 1416
GlyphClass: 2
Flags: W
LayerCount: 3
Fore
SplineSet
767 581 m 1,0,-1
 767 95 l 1,1,-1
 622 95 l 1,2,-1
 622 581 l 1,3,-1
 164 581 l 1,4,-1
 164 745 l 1,5,-1
 622 745 l 1,6,-1
 622 1229 l 1,7,-1
 767 1229 l 1,8,-1
 767 745 l 1,9,-1
 1234 745 l 1,10,-1
 1234 581 l 1,11,-1
 767 581 l 1,0,-1
EndSplineSet
EndChar

StartChar: comma
Encoding: 14 44 14
Width: 486
GlyphClass: 2
Flags: W
LayerCount: 3
Fore
SplineSet
302 0 m 0,0,1
 302 -34 302 -34 205 -164 c 1,2,3
 148 -228 148 -228 103.5 -275 c 128,-1,4
 59 -322 59 -322 20 -364 c 1,5,-1
 20 -259 l 1,6,-1
 169 -54 l 1,7,-1
 169 0 l 1,8,-1
 161 0 l 1,9,-1
 71 136 l 1,10,-1
 179 264 l 1,11,12
 302 160 302 160 302 0 c 0,0,1
EndSplineSet
EndChar

StartChar: hyphen
Encoding: 15 45 15
Width: 1336
GlyphClass: 2
Flags: W
LayerCount: 3
Fore
SplineSet
164 486 m 1,0,-1
 164 637 l 1,1,-1
 1101 637 l 1,2,-1
 1101 486 l 1,3,-1
 164 486 l 1,0,-1
EndSplineSet
EndChar

StartChar: period
Encoding: 16 46 16
Width: 494
GlyphClass: 2
Flags: W
LayerCount: 3
Fore
SplineSet
181 17 m 1,0,-1
 46 164 l 1,1,-1
 197 310 l 1,2,-1
 332 164 l 1,3,-1
 181 17 l 1,0,-1
EndSplineSet
EndChar

StartChar: slash
Encoding: 17 47 17
Width: 909
GlyphClass: 2
Flags: W
LayerCount: 3
Fore
SplineSet
34 -64 m 1,0,-1
 640 1441 l 1,1,-1
 786 1441 l 1,2,-1
 179 -64 l 1,3,-1
 34 -64 l 1,0,-1
EndSplineSet
EndChar

StartChar: zero
Encoding: 18 48 18
Width: 1105
GlyphClass: 2
Flags: W
LayerCount: 3
Fore
SplineSet
116 732 m 0,0,1
 116 921 116 921 146.5 1066 c 128,-1,2
 177 1211 177 1211 233.5 1309.5 c 128,-1,3
 290 1408 290 1408 371 1458 c 128,-1,4
 452 1508 452 1508 553 1508 c 0,5,6
 659 1508 659 1508 740 1456 c 128,-1,7
 821 1404 821 1404 875.5 1304 c 128,-1,8
 930 1204 930 1204 957.5 1058 c 128,-1,9
 985 912 985 912 985 724 c 0,10,11
 985 583 985 583 966.5 473.5 c 128,-1,12
 948 364 948 364 915.5 281.5 c 128,-1,13
 883 199 883 199 839.5 142 c 128,-1,14
 796 85 796 85 747 50 c 128,-1,15
 698 15 698 15 645.5 -1 c 128,-1,16
 593 -17 593 -17 543 -17 c 0,17,18
 450 -17 450 -17 372 32 c 128,-1,19
 294 81 294 81 237 176.5 c 128,-1,20
 180 272 180 272 148 411.5 c 128,-1,21
 116 551 116 551 116 732 c 0,0,1
312 706 m 0,22,23
 312 547 312 547 326 425 c 128,-1,24
 340 303 340 303 369 220 c 128,-1,25
 398 137 398 137 442.5 94 c 128,-1,26
 487 51 487 51 548 51 c 0,27,28
 603 51 603 51 647.5 87.5 c 128,-1,29
 692 124 692 124 723.5 211 c 128,-1,30
 755 298 755 298 772.5 441.5 c 128,-1,31
 790 585 790 585 790 800 c 0,32,33
 790 1116 790 1116 729.5 1278 c 128,-1,34
 669 1440 669 1440 551 1440 c 0,35,36
 483 1440 483 1440 437 1386.5 c 128,-1,37
 391 1333 391 1333 363.5 1236 c 128,-1,38
 336 1139 336 1139 324 1004 c 128,-1,39
 312 869 312 869 312 706 c 0,22,23
EndSplineSet
EndChar

StartChar: one
Encoding: 19 49 19
Width: 1024
GlyphClass: 2
Flags: W
LayerCount: 3
Fore
SplineSet
617 229 m 2,0,1
 617 179 617 179 627.5 145 c 128,-1,2
 638 111 638 111 661 90 c 128,-1,3
 684 69 684 69 719.5 59.5 c 128,-1,4
 755 50 755 50 806 50 c 1,5,-1
 806 0 l 1,6,-1
 285 0 l 1,7,-1
 285 50 l 1,8,9
 373 50 373 50 413.5 90 c 128,-1,10
 454 130 454 130 454 229 c 2,11,-1
 454 1254 l 2,12,13
 454 1295 454 1295 452 1318.5 c 128,-1,14
 450 1342 450 1342 445.5 1353.5 c 128,-1,15
 441 1365 441 1365 435 1367 c 128,-1,16
 429 1369 429 1369 420.5 1366.5 c 128,-1,17
 412 1364 412 1364 401.5 1360 c 128,-1,18
 391 1356 391 1356 378 1356 c 0,19,20
 368 1356 368 1356 350.5 1349.5 c 128,-1,21
 333 1343 333 1343 313 1333 c 128,-1,22
 293 1323 293 1323 274 1311.5 c 128,-1,23
 255 1300 255 1300 243 1291 c 1,24,-1
 228 1368 l 1,25,-1
 554 1495 l 1,26,-1
 617 1495 l 1,27,-1
 617 229 l 2,0,1
EndSplineSet
EndChar

StartChar: two
Encoding: 20 50 20
Width: 1111
GlyphClass: 2
Flags: W
LayerCount: 3
Fore
SplineSet
1032 263 m 1,0,-1
 963 0 l 1,1,-1
 136 0 l 1,2,-1
 89 76 l 1,3,4
 236 202 236 202 342.5 300.5 c 128,-1,5
 449 399 449 399 523 479 c 128,-1,6
 597 559 597 559 642.5 624 c 128,-1,7
 688 689 688 689 713 746.5 c 128,-1,8
 738 804 738 804 746.5 858.5 c 128,-1,9
 755 913 755 913 755 972 c 0,10,11
 755 1065 755 1065 733 1135 c 128,-1,12
 711 1205 711 1205 673.5 1252 c 128,-1,13
 636 1299 636 1299 587 1323 c 128,-1,14
 538 1347 538 1347 485 1347 c 0,15,16
 437 1347 437 1347 391 1328.5 c 128,-1,17
 345 1310 345 1310 305 1274.5 c 128,-1,18
 265 1239 265 1239 233.5 1188.5 c 128,-1,19
 202 1138 202 1138 183 1075 c 1,20,-1
 139 1173 l 1,21,22
 150 1242 150 1242 181.5 1302 c 128,-1,23
 213 1362 213 1362 264 1406 c 128,-1,24
 315 1450 315 1450 383.5 1475 c 128,-1,25
 452 1500 452 1500 538 1500 c 0,26,27
 625 1500 625 1500 700 1458.5 c 128,-1,28
 775 1417 775 1417 830 1352 c 128,-1,29
 885 1287 885 1287 916.5 1208 c 128,-1,30
 948 1129 948 1129 948 1055 c 0,31,32
 948 975 948 975 933.5 911 c 128,-1,33
 919 847 919 847 888 787.5 c 128,-1,34
 857 728 857 728 808 667.5 c 128,-1,35
 759 607 759 607 689.5 533 c 128,-1,36
 620 459 620 459 528.5 366.5 c 128,-1,37
 437 274 437 274 322 151 c 1,38,-1
 713 151 l 2,39,40
 762 151 762 151 800.5 154.5 c 128,-1,41
 839 158 839 158 870.5 169.5 c 128,-1,42
 902 181 902 181 927 203 c 128,-1,43
 952 225 952 225 974 263 c 1,44,-1
 1032 263 l 1,0,-1
EndSplineSet
EndChar

StartChar: three
Encoding: 21 51 21
Width: 1054
GlyphClass: 2
Flags: W
LayerCount: 3
Fore
SplineSet
123 1250 m 1,0,1
 156 1301 156 1301 195.5 1346 c 128,-1,2
 235 1391 235 1391 283 1425.5 c 128,-1,3
 331 1460 331 1460 389 1480 c 128,-1,4
 447 1500 447 1500 518 1500 c 0,5,6
 592 1500 592 1500 653.5 1476 c 128,-1,7
 715 1452 715 1452 759.5 1412 c 128,-1,8
 804 1372 804 1372 828.5 1320.5 c 128,-1,9
 853 1269 853 1269 853 1214 c 0,10,11
 853 1145 853 1145 834.5 1088 c 128,-1,12
 816 1031 816 1031 786 984.5 c 128,-1,13
 756 938 756 938 718 901 c 128,-1,14
 680 864 680 864 640 835 c 1,15,16
 704 810 704 810 755.5 774.5 c 128,-1,17
 807 739 807 739 843.5 693 c 128,-1,18
 880 647 880 647 899.5 592.5 c 128,-1,19
 919 538 919 538 919 476 c 0,20,21
 919 362 919 362 878 270.5 c 128,-1,22
 837 179 837 179 763 114.5 c 128,-1,23
 689 50 689 50 584.5 15.5 c 128,-1,24
 480 -19 480 -19 354 -19 c 0,25,26
 325 -19 325 -19 293.5 -14.5 c 128,-1,27
 262 -10 262 -10 227.5 2 c 128,-1,28
 193 14 193 14 156 35.5 c 128,-1,29
 119 57 119 57 78 90 c 1,30,-1
 196 234 l 1,31,32
 253 153 253 153 329 116 c 128,-1,33
 405 79 405 79 491 79 c 0,34,35
 542 79 542 79 589 93.5 c 128,-1,36
 636 108 636 108 671.5 141 c 128,-1,37
 707 174 707 174 728.5 228 c 128,-1,38
 750 282 750 282 750 361 c 0,39,40
 750 456 750 456 723 524 c 128,-1,41
 696 592 696 592 647 635.5 c 128,-1,42
 598 679 598 679 531 699 c 128,-1,43
 464 719 464 719 385 719 c 2,44,-1
 345 719 l 1,45,-1
 300 796 l 1,46,47
 376 805 376 805 444.5 827.5 c 128,-1,48
 513 850 513 850 565.5 890.5 c 128,-1,49
 618 931 618 931 649 992 c 128,-1,50
 680 1053 680 1053 680 1140 c 0,51,52
 680 1200 680 1200 661.5 1244 c 128,-1,53
 643 1288 643 1288 611 1317 c 128,-1,54
 579 1346 579 1346 536.5 1360 c 128,-1,55
 494 1374 494 1374 446 1374 c 0,56,57
 371 1374 371 1374 308.5 1332 c 128,-1,58
 246 1290 246 1290 178 1201 c 1,59,-1
 123 1250 l 1,0,1
EndSplineSet
EndChar

StartChar: four
Encoding: 22 52 22
Width: 1111
GlyphClass: 2
Flags: W
LayerCount: 3
Fore
SplineSet
1028 461 m 1,0,-1
 1007 328 l 1,1,-1
 842 328 l 1,2,-1
 842 0 l 1,3,-1
 668 0 l 1,4,-1
 668 328 l 1,5,-1
 132 328 l 1,6,-1
 79 446 l 1,7,-1
 743 1497 l 1,8,-1
 842 1497 l 1,9,-1
 842 461 l 1,10,-1
 1028 461 l 1,0,-1
668 461 m 1,11,-1
 668 1182 l 1,12,13
 609 1085 609 1085 551 996.5 c 128,-1,14
 493 908 493 908 435 821.5 c 128,-1,15
 377 735 377 735 319 646.5 c 128,-1,16
 261 558 261 558 202 461 c 1,17,-1
 668 461 l 1,11,-1
EndSplineSet
EndChar

StartChar: five
Encoding: 23 53 23
Width: 1081
GlyphClass: 2
Flags: W
LayerCount: 3
Fore
SplineSet
948 1498 m 1,0,-1
 891 1340 l 1,1,-1
 484 1340 l 1,2,3
 465 1292 465 1292 446 1249 c 128,-1,4
 427 1206 427 1206 408.5 1164 c 128,-1,5
 390 1122 390 1122 371.5 1079 c 128,-1,6
 353 1036 353 1036 334 989 c 1,7,8
 466 969 466 969 575 926.5 c 128,-1,9
 684 884 684 884 761.5 823.5 c 128,-1,10
 839 763 839 763 882 685.5 c 128,-1,11
 925 608 925 608 925 519 c 0,12,13
 925 433 925 433 900 360.5 c 128,-1,14
 875 288 875 288 832.5 228 c 128,-1,15
 790 168 790 168 734 122.5 c 128,-1,16
 678 77 678 77 615.5 46 c 128,-1,17
 553 15 553 15 488 -1 c 128,-1,18
 423 -17 423 -17 364 -17 c 0,19,20
 335 -17 335 -17 300.5 -10.5 c 128,-1,21
 266 -4 266 -4 229.5 12 c 128,-1,22
 193 28 193 28 155.5 55.5 c 128,-1,23
 118 83 118 83 84 124 c 1,24,-1
 191 289 l 1,25,26
 255 200 255 200 322.5 162.5 c 128,-1,27
 390 125 390 125 474 125 c 0,28,29
 534 124 534 124 587.5 145.5 c 128,-1,30
 641 167 641 167 681.5 205.5 c 128,-1,31
 722 244 722 244 745.5 297.5 c 128,-1,32
 769 351 769 351 769 414 c 0,33,34
 769 508 769 508 730.5 584.5 c 128,-1,35
 692 661 692 661 614.5 715 c 128,-1,36
 537 769 537 769 420 798.5 c 128,-1,37
 303 828 303 828 146 828 c 1,38,-1
 428 1498 l 1,39,-1
 948 1498 l 1,0,-1
EndSplineSet
EndChar

StartChar: six
Encoding: 24 54 24
Width: 1142
GlyphClass: 2
Flags: W
LayerCount: 3
Fore
SplineSet
987 1498 m 1,0,-1
 987 1453 l 1,1,2
 904 1450 904 1450 831 1422.5 c 128,-1,3
 758 1395 758 1395 695.5 1350.5 c 128,-1,4
 633 1306 633 1306 580 1246.5 c 128,-1,5
 527 1187 527 1187 485.5 1119 c 128,-1,6
 444 1051 444 1051 413.5 978 c 128,-1,7
 383 905 383 905 364 833 c 1,8,9
 397 855 397 855 432.5 873 c 128,-1,10
 468 891 468 891 504 903 c 128,-1,11
 540 915 540 915 575 921.5 c 128,-1,12
 610 928 610 928 640 928 c 0,13,14
 716 928 716 928 780.5 901.5 c 128,-1,15
 845 875 845 875 891.5 824.5 c 128,-1,16
 938 774 938 774 964.5 700 c 128,-1,17
 991 626 991 626 991 532 c 0,18,19
 991 415 991 415 957.5 315.5 c 128,-1,20
 924 216 924 216 865.5 143.5 c 128,-1,21
 807 71 807 71 726.5 29.5 c 128,-1,22
 646 -12 646 -12 552 -12 c 0,23,24
 453 -12 453 -12 373 34 c 128,-1,25
 293 80 293 80 237 160.5 c 128,-1,26
 181 241 181 241 150.5 350 c 128,-1,27
 120 459 120 459 120 585 c 0,28,29
 120 692 120 692 146.5 801.5 c 128,-1,30
 173 911 173 911 222.5 1012.5 c 128,-1,31
 272 1114 272 1114 343 1202.5 c 128,-1,32
 414 1291 414 1291 502.5 1356.5 c 128,-1,33
 591 1422 591 1422 695 1460 c 128,-1,34
 799 1498 799 1498 916 1498 c 2,35,-1
 987 1498 l 1,0,-1
326 512 m 0,36,37
 326 405 326 405 345 321 c 128,-1,38
 364 237 364 237 397.5 179.5 c 128,-1,39
 431 122 431 122 476.5 91.5 c 128,-1,40
 522 61 522 61 575 61 c 0,41,42
 618 61 618 61 659 85.5 c 128,-1,43
 700 110 700 110 731.5 156.5 c 128,-1,44
 763 203 763 203 782.5 271 c 128,-1,45
 802 339 802 339 802 427 c 0,46,47
 802 629 802 629 736.5 727.5 c 128,-1,48
 671 826 671 826 560 826 c 0,49,50
 537 826 537 826 508.5 818 c 128,-1,51
 480 810 480 810 451 795 c 128,-1,52
 422 780 422 780 394.5 758 c 128,-1,53
 367 736 367 736 345 709 c 1,54,55
 335 641 335 641 330.5 595.5 c 128,-1,56
 326 550 326 550 326 512 c 0,36,37
EndSplineSet
EndChar

StartChar: seven
Encoding: 25 55 25
Width: 1099
GlyphClass: 2
Flags: W
LayerCount: 3
Fore
SplineSet
231 1500 m 1,0,-1
 1004 1500 l 1,1,-1
 1004 1396 l 1,2,-1
 524 -32 l 1,3,-1
 385 47 l 1,4,-1
 865 1333 l 1,5,-1
 446 1333 l 2,6,7
 381 1333 381 1333 339 1320 c 128,-1,8
 297 1307 297 1307 269 1283 c 128,-1,9
 241 1259 241 1259 221 1225.5 c 128,-1,10
 201 1192 201 1192 179 1152 c 1,11,-1
 102 1166 l 1,12,-1
 231 1500 l 1,0,-1
EndSplineSet
EndChar

StartChar: eight
Encoding: 26 56 26
Width: 1049
GlyphClass: 2
Flags: W
LayerCount: 3
Fore
SplineSet
113 329 m 0,0,1
 113 386 113 386 129.5 436 c 128,-1,2
 146 486 146 486 181.5 535 c 128,-1,3
 217 584 217 584 271.5 633.5 c 128,-1,4
 326 683 326 683 402 738 c 1,5,6
 316 807 316 807 262.5 858 c 128,-1,7
 209 909 209 909 179.5 954 c 128,-1,8
 150 999 150 999 139.5 1043.5 c 128,-1,9
 129 1088 129 1088 129 1143 c 0,10,11
 129 1219 129 1219 158 1284.5 c 128,-1,12
 187 1350 187 1350 239.5 1398 c 128,-1,13
 292 1446 292 1446 365.5 1473 c 128,-1,14
 439 1500 439 1500 528 1500 c 0,15,16
 613 1500 613 1500 684 1471 c 128,-1,17
 755 1442 755 1442 806 1393.5 c 128,-1,18
 857 1345 857 1345 885 1283 c 128,-1,19
 913 1221 913 1221 913 1155 c 0,20,21
 913 1104 913 1104 899.5 1062 c 128,-1,22
 886 1020 886 1020 851.5 978.5 c 128,-1,23
 817 937 817 937 758.5 892 c 128,-1,24
 700 847 700 847 610 791 c 1,25,26
 712 710 712 710 776.5 650 c 128,-1,27
 841 590 841 590 878 539 c 128,-1,28
 915 488 915 488 929 439 c 128,-1,29
 943 390 943 390 943 331 c 0,30,31
 943 251 943 251 912.5 185 c 128,-1,32
 882 119 882 119 827 72 c 128,-1,33
 772 25 772 25 695.5 -0.5 c 128,-1,34
 619 -26 619 -26 528 -26 c 0,35,36
 436 -26 436 -26 360 -1 c 128,-1,37
 284 24 284 24 229 70.5 c 128,-1,38
 174 117 174 117 143.5 182.5 c 128,-1,39
 113 248 113 248 113 329 c 0,0,1
305 1193 m 0,40,41
 305 1154 305 1154 312 1121.5 c 128,-1,42
 319 1089 319 1089 344.5 1051 c 128,-1,43
 370 1013 370 1013 419.5 963 c 128,-1,44
 469 913 469 913 554 839 c 1,45,46
 613 893 613 893 648.5 932.5 c 128,-1,47
 684 972 684 972 703 1008 c 128,-1,48
 722 1044 722 1044 728 1081 c 128,-1,49
 734 1118 734 1118 734 1166 c 0,50,51
 734 1221 734 1221 720.5 1270 c 128,-1,52
 707 1319 707 1319 681 1355.5 c 128,-1,53
 655 1392 655 1392 617 1413 c 128,-1,54
 579 1434 579 1434 529 1434 c 256,55,56
 479 1434 479 1434 438 1413.5 c 128,-1,57
 397 1393 397 1393 367.5 1359.5 c 128,-1,58
 338 1326 338 1326 321.5 1282.5 c 128,-1,59
 305 1239 305 1239 305 1193 c 0,40,41
778 260 m 0,60,61
 778 312 778 312 760.5 359.5 c 128,-1,62
 743 407 743 407 705 458 c 128,-1,63
 667 509 667 509 606.5 565.5 c 128,-1,64
 546 622 546 622 460 692 c 1,65,66
 420 658 420 658 389.5 623 c 128,-1,67
 359 588 359 588 338 546 c 128,-1,68
 317 504 317 504 306.5 452.5 c 128,-1,69
 296 401 296 401 296 333 c 0,70,71
 296 253 296 253 314 197 c 128,-1,72
 332 141 332 141 364.5 106 c 128,-1,73
 397 71 397 71 442.5 55.5 c 128,-1,74
 488 40 488 40 543 40 c 0,75,76
 595 40 595 40 638.5 53.5 c 128,-1,77
 682 67 682 67 713 94.5 c 128,-1,78
 744 122 744 122 761 163 c 128,-1,79
 778 204 778 204 778 260 c 0,60,61
EndSplineSet
EndChar

StartChar: nine
Encoding: 27 57 27
Width: 1058
GlyphClass: 2
Flags: W
LayerCount: 3
Fore
SplineSet
95 -12 m 1,0,-1
 95 33 l 1,1,2
 221 40 221 40 323.5 95 c 128,-1,3
 426 150 426 150 504 235 c 128,-1,4
 582 320 582 320 635.5 426 c 128,-1,5
 689 532 689 532 718 641 c 1,6,7
 685 618 685 618 649 600.5 c 128,-1,8
 613 583 613 583 577 571 c 128,-1,9
 541 559 541 559 506 553 c 128,-1,10
 471 547 471 547 440 547 c 0,11,12
 364 547 364 547 300 580.5 c 128,-1,13
 236 614 236 614 189.5 672.5 c 128,-1,14
 143 731 143 731 117 811.5 c 128,-1,15
 91 892 91 892 91 987 c 0,16,17
 91 1104 91 1104 124.5 1198.5 c 128,-1,18
 158 1293 158 1293 216.5 1359.5 c 128,-1,19
 275 1426 275 1426 355 1462 c 128,-1,20
 435 1498 435 1498 529 1498 c 0,21,22
 629 1498 629 1498 708.5 1450.5 c 128,-1,23
 788 1403 788 1403 844 1320.5 c 128,-1,24
 900 1238 900 1238 930 1127 c 128,-1,25
 960 1016 960 1016 960 888 c 0,26,27
 960 781 960 781 933.5 672.5 c 128,-1,28
 907 564 907 564 858 464 c 128,-1,29
 809 364 809 364 738.5 277.5 c 128,-1,30
 668 191 668 191 579.5 126.5 c 128,-1,31
 491 62 491 62 386.5 25 c 128,-1,32
 282 -12 282 -12 165 -12 c 2,33,-1
 95 -12 l 1,0,-1
738 765 m 1,34,35
 747 833 747 833 751.5 879 c 128,-1,36
 756 925 756 925 756 965 c 0,37,38
 756 1071 756 1071 737 1156 c 128,-1,39
 718 1241 718 1241 685 1300 c 128,-1,40
 652 1359 652 1359 606.5 1391 c 128,-1,41
 561 1423 561 1423 507 1423 c 0,42,43
 464 1423 464 1423 423.5 1404.5 c 128,-1,44
 383 1386 383 1386 351 1346 c 128,-1,45
 319 1306 319 1306 299.5 1243 c 128,-1,46
 280 1180 280 1180 280 1092 c 0,47,48
 280 991 280 991 296.5 909 c 128,-1,49
 313 827 313 827 344.5 769 c 128,-1,50
 376 711 376 711 421 679.5 c 128,-1,51
 466 648 466 648 524 648 c 0,52,53
 546 648 546 648 574 656 c 128,-1,54
 602 664 602 664 631 679.5 c 128,-1,55
 660 695 660 695 688 716.5 c 128,-1,56
 716 738 716 738 738 765 c 1,34,35
EndSplineSet
EndChar

StartChar: colon
Encoding: 28 58 28
Width: 657
GlyphClass: 2
Flags: W
LayerCount: 3
Fore
SplineSet
312 674 m 1,0,-1
 174 821 l 1,1,-1
 322 967 l 1,2,-1
 461 821 l 1,3,-1
 312 674 l 1,0,-1
317 7 m 1,4,-1
 179 156 l 1,5,-1
 327 302 l 1,6,-1
 466 156 l 1,7,-1
 317 7 l 1,4,-1
EndSplineSet
EndChar

StartChar: semicolon
Encoding: 29 59 29
Width: 609
GlyphClass: 2
Flags: W
LayerCount: 3
Fore
SplineSet
437 0 m 0,0,1
 437 -49 437 -49 335 -169 c 0,2,3
 316 -194 316 -194 297.5 -214.5 c 128,-1,4
 279 -235 279 -235 261 -252 c 0,5,6
 226 -286 226 -286 176 -328 c 1,7,-1
 120 -276 l 1,8,-1
 302 -103 l 1,9,-1
 305 0 l 1,10,-1
 302 0 l 1,11,-1
 207 139 l 1,12,-1
 317 264 l 1,13,14
 437 139 437 139 437 0 c 0,0,1
310 674 m 1,15,-1
 171 821 l 1,16,-1
 320 967 l 1,17,-1
 459 821 l 1,18,-1
 310 674 l 1,15,-1
EndSplineSet
EndChar

StartChar: less
Encoding: 30 60 30
Width: 867
GlyphClass: 2
Flags: W
LayerCount: 3
Fore
SplineSet
715 34 m 1,0,-1
 123 450 l 1,1,-1
 123 597 l 1,2,-1
 705 1011 l 1,3,-1
 705 825 l 1,4,-1
 284 519 l 1,5,-1
 715 213 l 1,6,-1
 715 34 l 1,0,-1
EndSplineSet
EndChar

StartChar: equal
Encoding: 31 61 31
Width: 1339
GlyphClass: 2
Flags: W
LayerCount: 3
Fore
SplineSet
164 850 m 1,0,-1
 164 975 l 1,1,-1
 1155 975 l 1,2,-1
 1155 850 l 1,3,-1
 164 850 l 1,0,-1
164 420 m 1,4,-1
 164 547 l 1,5,-1
 1155 547 l 1,6,-1
 1155 420 l 1,7,-1
 164 420 l 1,4,-1
EndSplineSet
EndChar

StartChar: greater
Encoding: 32 62 32
Width: 867
GlyphClass: 2
Flags: W
LayerCount: 3
Fore
SplineSet
123 213 m 1,0,-1
 554 519 l 1,1,-1
 133 825 l 1,2,-1
 133 1011 l 1,3,-1
 715 597 l 1,4,-1
 715 450 l 1,5,-1
 123 34 l 1,6,-1
 123 213 l 1,0,-1
EndSplineSet
EndChar

StartChar: question
Encoding: 33 63 33
Width: 1116
GlyphClass: 2
Flags: W
LayerCount: 3
Fore
SplineSet
926 970 m 0,0,1
 926 942 926 942 905.5 897 c 128,-1,2
 885 852 885 852 852.5 798 c 128,-1,3
 820 744 820 744 778.5 685.5 c 128,-1,4
 737 627 737 627 694.5 572.5 c 128,-1,5
 652 518 652 518 613.5 472 c 128,-1,6
 575 426 575 426 547 396 c 1,7,-1
 442 504 l 1,8,9
 542 609 542 609 606 683 c 128,-1,10
 670 757 670 757 704 811 c 0,11,12
 757 896 757 896 784 955.5 c 128,-1,13
 811 1015 811 1015 811 1055 c 0,14,15
 811 1087 811 1087 797.5 1119.5 c 128,-1,16
 784 1152 784 1152 762.5 1178 c 128,-1,17
 741 1204 741 1204 713 1220 c 128,-1,18
 685 1236 685 1236 655 1236 c 0,19,20
 631 1236 631 1236 598.5 1228 c 128,-1,21
 566 1220 566 1220 529 1202.5 c 128,-1,22
 492 1185 492 1185 452.5 1157.5 c 128,-1,23
 413 1130 413 1130 374 1090 c 1,24,-1
 279 1175 l 1,25,-1
 391 1285 l 1,26,27
 496 1339 496 1339 601 1339 c 0,28,29
 667 1339 667 1339 726.5 1309 c 128,-1,30
 786 1279 786 1279 830 1228 c 128,-1,31
 874 1177 874 1177 900 1110 c 128,-1,32
 926 1043 926 1043 926 970 c 0,0,1
537 -3 m 1,33,-1
 402 125 l 1,34,-1
 550 271 l 1,35,-1
 686 125 l 1,36,-1
 537 -3 l 1,33,-1
EndSplineSet
EndChar

StartChar: at
Encoding: 34 64 34
Width: 1865
GlyphClass: 2
Flags: W
LayerCount: 3
Fore
SplineSet
1719 156 m 1,0,1
 1677 30 1677 30 1598.5 -73 c 128,-1,2
 1520 -176 1520 -176 1415.5 -249.5 c 128,-1,3
 1311 -323 1311 -323 1186.5 -363 c 128,-1,4
 1062 -403 1062 -403 928 -403 c 0,5,6
 812 -403 812 -403 708 -374.5 c 128,-1,7
 604 -346 604 -346 515.5 -293.5 c 128,-1,8
 427 -241 427 -241 355.5 -168 c 128,-1,9
 284 -95 284 -95 234 -6.5 c 128,-1,10
 184 82 184 82 157 184.5 c 128,-1,11
 130 287 130 287 130 397 c 0,12,13
 130 515 130 515 160.5 625.5 c 128,-1,14
 191 736 191 736 247 833 c 128,-1,15
 303 930 303 930 381 1011 c 128,-1,16
 459 1092 459 1092 555 1150 c 128,-1,17
 651 1208 651 1208 761.5 1240 c 128,-1,18
 872 1272 872 1272 992 1272 c 0,19,20
 1136 1272 1136 1272 1258 1225.5 c 128,-1,21
 1380 1179 1380 1179 1469 1096.5 c 128,-1,22
 1558 1014 1558 1014 1608.5 900.5 c 128,-1,23
 1659 787 1659 787 1659 652 c 0,24,25
 1659 569 1659 569 1640 490.5 c 128,-1,26
 1621 412 1621 412 1586.5 342.5 c 128,-1,27
 1552 273 1552 273 1503.5 215 c 128,-1,28
 1455 157 1455 157 1396.5 115 c 128,-1,29
 1338 73 1338 73 1271 49.5 c 128,-1,30
 1204 26 1204 26 1132 26 c 0,31,32
 976 26 976 26 976 157 c 0,33,34
 976 169 976 169 976 182.5 c 128,-1,35
 976 196 976 196 977 213 c 1,36,37
 886 112 886 112 809 67.5 c 128,-1,38
 732 23 732 23 669 23 c 0,39,40
 628 23 628 23 594 40.5 c 128,-1,41
 560 58 560 58 535 87.5 c 128,-1,42
 510 117 510 117 496 156.5 c 128,-1,43
 482 196 482 196 482 241 c 0,44,45
 482 302 482 302 504 371.5 c 128,-1,46
 526 441 526 441 563.5 509.5 c 128,-1,47
 601 578 601 578 651.5 641.5 c 128,-1,48
 702 705 702 705 758.5 753 c 128,-1,49
 815 801 815 801 875.5 830 c 128,-1,50
 936 859 936 859 994 859 c 0,51,52
 1042 859 1042 859 1078.5 845 c 128,-1,53
 1115 831 1115 831 1138 795 c 0,54,55
 1140 796 1140 796 1140 798 c 0,56,57
 1143 808 1143 808 1146 818.5 c 128,-1,58
 1149 829 1149 829 1152 837 c 1,59,60
 1170 839 1170 839 1192 842 c 128,-1,61
 1214 845 1214 845 1231 848 c 0,62,63
 1251 852 1251 852 1280 854.5 c 128,-1,64
 1309 857 1309 857 1341 859 c 1,65,66
 1318 785 1318 785 1295.5 709 c 128,-1,67
 1273 633 1273 633 1252.5 561 c 128,-1,68
 1232 489 1232 489 1214 423.5 c 128,-1,69
 1196 358 1196 358 1182.5 305.5 c 128,-1,70
 1169 253 1169 253 1161.5 216.5 c 128,-1,71
 1154 180 1154 180 1154 166 c 0,72,73
 1154 117 1154 117 1195 117 c 0,74,75
 1226 117 1226 117 1264.5 134.5 c 128,-1,76
 1303 152 1303 152 1342 185 c 128,-1,77
 1381 218 1381 218 1417.5 266 c 128,-1,78
 1454 314 1454 314 1482.5 375.5 c 128,-1,79
 1511 437 1511 437 1528.5 510.5 c 128,-1,80
 1546 584 1546 584 1546 668 c 0,81,82
 1546 780 1546 780 1504.5 875 c 128,-1,83
 1463 970 1463 970 1389 1039 c 128,-1,84
 1315 1108 1315 1108 1214 1147 c 128,-1,85
 1113 1186 1113 1186 994 1186 c 0,86,87
 891 1186 891 1186 797 1157 c 128,-1,88
 703 1128 703 1128 622 1075 c 128,-1,89
 541 1022 541 1022 474.5 947.5 c 128,-1,90
 408 873 408 873 361 783 c 128,-1,91
 314 693 314 693 288.5 589 c 128,-1,92
 263 485 263 485 263 374 c 0,93,94
 263 223 263 223 311.5 99 c 128,-1,95
 360 -25 360 -25 447.5 -113.5 c 128,-1,96
 535 -202 535 -202 658 -251 c 128,-1,97
 781 -300 781 -300 931 -300 c 0,98,99
 1165 -300 1165 -300 1341.5 -176.5 c 128,-1,100
 1518 -53 1518 -53 1627 184 c 1,101,-1
 1719 156 l 1,0,1
1091 681 m 0,102,103
 1091 703 1091 703 1085 722.5 c 128,-1,104
 1079 742 1079 742 1067.5 757 c 128,-1,105
 1056 772 1056 772 1039.5 781 c 128,-1,106
 1023 790 1023 790 1001 790 c 0,107,108
 966 790 966 790 928 762.5 c 128,-1,109
 890 735 890 735 853.5 690.5 c 128,-1,110
 817 646 817 646 783.5 589.5 c 128,-1,111
 750 533 750 533 725 475 c 128,-1,112
 700 417 700 417 685 361.5 c 128,-1,113
 670 306 670 306 670 265 c 0,114,115
 670 221 670 221 689.5 189.5 c 128,-1,116
 709 158 709 158 747 158 c 0,117,118
 788 158 788 158 829 183 c 128,-1,119
 870 208 870 208 908.5 249.5 c 128,-1,120
 947 291 947 291 980 345 c 128,-1,121
 1013 399 1013 399 1038 457 c 128,-1,122
 1063 515 1063 515 1077 573 c 128,-1,123
 1091 631 1091 631 1091 681 c 0,102,103
1131 772 m 1,124,-1
 1131 773 l 1,125,-1
 1131 772 l 1,124,-1
EndSplineSet
EndChar

StartChar: bracketleft
Encoding: 35 91 35
Width: 794
GlyphClass: 2
Flags: W
LayerCount: 3
Fore
SplineSet
609 0 m 1,0,-1
 609 -88 l 1,1,-1
 174 -88 l 1,2,-1
 174 1510 l 1,3,-1
 609 1510 l 1,4,-1
 609 1424 l 1,5,-1
 310 1424 l 1,6,-1
 310 0 l 1,7,-1
 609 0 l 1,0,-1
EndSplineSet
EndChar

StartChar: backslash
Encoding: 36 92 36
Width: 1062
GlyphClass: 2
Flags: W
LayerCount: 3
Fore
SplineSet
929 -74 m 1,0,-1
 779 -74 l 1,1,-1
 156 1467 l 1,2,-1
 307 1467 l 1,3,-1
 929 -74 l 1,0,-1
EndSplineSet
EndChar

StartChar: bracketright
Encoding: 37 93 37
Width: 799
GlyphClass: 2
Flags: W
LayerCount: 3
Fore
SplineSet
176 -85 m 1,0,-1
 176 0 l 1,1,-1
 471 0 l 1,2,-1
 471 1424 l 1,3,-1
 176 1424 l 1,4,-1
 176 1510 l 1,5,-1
 609 1510 l 1,6,-1
 609 -85 l 1,7,-1
 176 -85 l 1,0,-1
EndSplineSet
EndChar

StartChar: asciicircum
Encoding: 38 94 38
Width: 1087
GlyphClass: 2
Flags: W
LayerCount: 3
Fore
SplineSet
1029 1126 m 1,0,-1
 860 1126 l 1,1,-1
 594 1541 l 1,2,-1
 325 1134 l 1,3,-1
 146 1134 l 1,4,-1
 564 1812 l 1,5,-1
 615 1812 l 1,6,-1
 1029 1126 l 1,0,-1
EndSplineSet
EndChar

StartChar: underscore
Encoding: 39 95 39
Width: 1510
GlyphClass: 2
Flags: W
LayerCount: 3
Fore
SplineSet
161 7 m 1,0,-1
 161 149 l 1,1,-1
 1349 149 l 1,2,-1
 1349 7 l 1,3,-1
 161 7 l 1,0,-1
EndSplineSet
EndChar

StartChar: braceleft
Encoding: 40 123 40
Width: 714
GlyphClass: 2
Flags: W
LayerCount: 3
Fore
SplineSet
412 569 m 1,0,1
 442 520 442 520 454 475 c 128,-1,2
 466 430 466 430 466 376 c 0,3,4
 466 302 466 302 451 226 c 0,5,6
 444 188 444 188 440.5 154.5 c 128,-1,7
 437 121 437 121 437 92 c 0,8,9
 437 22 437 22 483 -12 c 0,10,11
 506 -29 506 -29 536 -44.5 c 128,-1,12
 566 -60 566 -60 601 -74 c 1,13,-1
 601 -171 l 1,14,15
 441 -134 441 -134 364 -34 c 1,16,17
 337 -11 337 -11 320 17 c 128,-1,18
 303 45 303 45 294 76.5 c 128,-1,19
 285 108 285 108 283 141.5 c 128,-1,20
 281 175 281 175 284 210 c 0,21,22
 287 244 287 244 292.5 279 c 128,-1,23
 298 314 298 314 303.5 347 c 128,-1,24
 309 380 309 380 313 411.5 c 128,-1,25
 317 443 317 443 317 471 c 0,26,27
 317 537 317 537 267 578 c 0,28,29
 218 620 218 620 154 632 c 1,30,-1
 154 727 l 1,31,32
 219 738 219 738 267 780 c 0,33,34
 317 824 317 824 317 896 c 0,35,36
 317 940 317 940 310.5 984.5 c 128,-1,37
 304 1029 304 1029 297 1073 c 128,-1,38
 290 1117 290 1117 286.5 1160.5 c 128,-1,39
 283 1204 283 1204 288 1246 c 128,-1,40
 293 1288 293 1288 310.5 1328.5 c 128,-1,41
 328 1369 328 1369 364 1407 c 0,42,43
 388 1438 388 1438 414 1461 c 128,-1,44
 440 1484 440 1484 469 1500.5 c 128,-1,45
 498 1517 498 1517 530.5 1528.5 c 128,-1,46
 563 1540 563 1540 601 1549 c 1,47,-1
 601 1454 l 1,48,49
 552 1437 552 1437 520.5 1420 c 128,-1,50
 489 1403 489 1403 470.5 1379.5 c 128,-1,51
 452 1356 452 1356 444.5 1323 c 128,-1,52
 437 1290 437 1290 437 1241 c 0,53,54
 437 1222 437 1222 437 1210 c 128,-1,55
 437 1198 437 1198 438 1192 c 256,56,57
 439 1186 439 1186 440 1178.5 c 128,-1,58
 441 1171 441 1171 442 1162 c 0,59,60
 444 1153 444 1153 446 1139.5 c 128,-1,61
 448 1126 448 1126 452 1108 c 256,62,63
 456 1090 456 1090 459 1060.5 c 128,-1,64
 462 1031 462 1031 466 989 c 1,65,66
 466 900 466 900 456 886 c 0,67,68
 443 856 443 856 429 830 c 128,-1,69
 415 804 415 804 397 779.5 c 128,-1,70
 379 755 379 755 357 732 c 128,-1,71
 335 709 335 709 305 686 c 1,72,-1
 412 569 l 1,0,1
EndSplineSet
EndChar

StartChar: bar
Encoding: 41 124 41
Width: 450
GlyphClass: 2
Flags: W
LayerCount: 3
Fore
SplineSet
207 92 m 1,0,-1
 207 1336 l 1,1,-1
 345 1204 l 1,2,-1
 345 -8 l 1,3,-1
 207 92 l 1,0,-1
EndSplineSet
EndChar

StartChar: braceright
Encoding: 42 125 42
Width: 704
GlyphClass: 2
Flags: W
LayerCount: 3
Fore
SplineSet
281 1382 m 1,0,1
 271 1397 271 1397 241 1415.5 c 128,-1,2
 211 1434 211 1434 154 1454 c 1,3,-1
 154 1546 l 1,4,5
 230 1536 230 1536 285.5 1500 c 128,-1,6
 341 1464 341 1464 386 1412 c 0,7,8
 431 1354 431 1354 451 1294.5 c 128,-1,9
 471 1235 471 1235 471 1175 c 0,10,11
 470 1121 470 1121 466 1088 c 128,-1,12
 462 1055 462 1055 457 1028 c 128,-1,13
 452 1001 452 1001 448.5 973.5 c 128,-1,14
 445 946 445 946 445 904 c 0,15,16
 445 839 445 839 481 799 c 1,17,18
 499 770 499 770 527 757.5 c 128,-1,19
 555 745 555 745 609 737 c 1,20,-1
 609 640 l 1,21,22
 570 631 570 631 539.5 613.5 c 128,-1,23
 509 596 509 596 488 573.5 c 128,-1,24
 467 551 467 551 456 524 c 128,-1,25
 445 497 445 497 445 469 c 0,26,27
 445 445 445 445 447.5 414.5 c 128,-1,28
 450 384 450 384 461 349 c 1,29,30
 466 301 466 301 472.5 263 c 128,-1,31
 479 225 479 225 479 197 c 0,32,33
 479 91 479 91 410 -18 c 1,34,35
 361 -84 361 -84 301.5 -121.5 c 128,-1,36
 242 -159 242 -159 161 -169 c 1,37,-1
 161 -74 l 1,38,39
 248 -34 248 -34 283 7 c 0,40,41
 318 49 318 49 322 101 c 0,42,43
 325 128 325 128 322 157 c 128,-1,44
 319 186 319 186 314.5 219 c 128,-1,45
 310 252 310 252 304 291 c 128,-1,46
 298 330 298 330 295 376 c 0,47,48
 295 399 295 399 297 424 c 128,-1,49
 299 449 299 449 303 476 c 0,50,51
 312 531 312 531 349 566 c 1,52,53
 358 584 358 584 367.5 598 c 128,-1,54
 377 612 377 612 389 625.5 c 128,-1,55
 401 639 401 639 417.5 653.5 c 128,-1,56
 434 668 434 668 456 686 c 1,57,58
 423 718 423 718 402 740 c 128,-1,59
 381 762 381 762 368 775.5 c 128,-1,60
 355 789 355 789 349 795 c 128,-1,61
 343 801 343 801 342 801 c 0,62,63
 327 824 327 824 317 845 c 128,-1,64
 307 866 307 866 300.5 888 c 128,-1,65
 294 910 294 910 291.5 934.5 c 128,-1,66
 289 959 289 959 289 989 c 256,67,68
 289 1019 289 1019 299.5 1065 c 128,-1,69
 310 1111 310 1111 316 1163 c 0,70,71
 319 1190 319 1190 320.5 1217.5 c 128,-1,72
 322 1245 322 1245 319.5 1272.5 c 128,-1,73
 317 1300 317 1300 308.5 1327 c 128,-1,74
 300 1354 300 1354 284 1380 c 1,75,-1
 281 1382 l 1,0,1
EndSplineSet
EndChar

StartChar: asciitilde
Encoding: 43 126 43
Width: 1362
GlyphClass: 2
Flags: W
LayerCount: 3
Fore
SplineSet
950 642 m 1,0,1
 1087 642 1087 642 1104 801 c 1,2,-1
 1192 801 l 1,3,4
 1180 669 1180 669 1111 597 c 256,5,6
 1042 525 1042 525 945 525 c 0,7,8
 922 525 922 525 892.5 531.5 c 128,-1,9
 863 538 863 538 829.5 549.5 c 128,-1,10
 796 561 796 561 759 575 c 128,-1,11
 722 589 722 589 684 604 c 0,12,13
 609 635 609 635 534.5 660.5 c 128,-1,14
 460 686 460 686 394 686 c 0,15,16
 337 686 337 686 298 650.5 c 128,-1,17
 259 615 259 615 237 527 c 1,18,-1
 161 527 l 1,19,20
 168 659 168 659 235 730 c 0,21,22
 303 801 303 801 396 801 c 0,23,24
 437 801 437 801 509 779 c 0,25,26
 547 768 547 768 586.5 756 c 128,-1,27
 626 744 626 744 669 730 c 2,28,-1
 830 674 l 2,29,30
 868 663 868 663 898 655 c 128,-1,31
 928 647 928 647 950 642 c 1,0,1
EndSplineSet
EndChar

StartChar: endash
Encoding: 44 8211 44
Width: 1336
GlyphClass: 2
Flags: W
LayerCount: 3
Fore
SplineSet
164 526 m 1,0,-1
 164 677 l 1,1,-1
 1101 677 l 1,2,-1
 1101 526 l 1,3,-1
 164 526 l 1,0,-1
EndSplineSet
EndChar

StartChar: emdash
Encoding: 45 8212 45
Width: 1964
GlyphClass: 2
Flags: W
LayerCount: 3
Fore
SplineSet
164 526 m 1,0,-1
 164 677 l 1,1,-1
 1820 677 l 1,2,-1
 1820 526 l 1,3,-1
 164 526 l 1,0,-1
EndSplineSet
EndChar

StartChar: quoteleft
Encoding: 46 8216 46
Width: 584
GlyphClass: 2
Flags: W
LayerCount: 3
Fore
SplineSet
179 1295 m 0,0,1
 174 1300 174 1300 174 1316 c 0,2,3
 174 1339 174 1339 187 1370.5 c 128,-1,4
 200 1402 200 1402 217 1454 c 1,5,-1
 317 1669 l 1,6,7
 322 1661 322 1661 335.5 1652.5 c 128,-1,8
 349 1644 349 1644 361 1639 c 1,9,10
 286 1490 286 1490 286 1434 c 0,11,12
 286 1398 286 1398 321 1363 c 0,13,14
 338 1346 338 1346 356 1331 c 128,-1,15
 374 1316 374 1316 391 1302 c 1,16,17
 386 1293 386 1293 376 1273.5 c 128,-1,18
 366 1254 366 1254 355.5 1232.5 c 128,-1,19
 345 1211 345 1211 337 1191 c 128,-1,20
 329 1171 329 1171 327 1160 c 1,21,22
 208 1214 208 1214 179 1295 c 0,0,1
EndSplineSet
EndChar

StartChar: quoteright
Encoding: 47 8217 47
Width: 564
GlyphClass: 2
Flags: W
LayerCount: 3
Fore
SplineSet
384 1362 m 0,0,1
 385 1357 385 1357 385.5 1351 c 128,-1,2
 386 1345 386 1345 386 1339 c 0,3,4
 386 1314 386 1314 375 1281.5 c 128,-1,5
 364 1249 364 1249 345 1195 c 1,6,-1
 249 989 l 1,7,8
 241 994 241 994 228 1000 c 128,-1,9
 215 1006 215 1006 205 1011 c 1,10,11
 276 1164 276 1164 276 1219 c 0,12,13
 276 1256 276 1256 241 1291 c 0,14,15
 224 1308 224 1308 206 1323 c 128,-1,16
 188 1338 188 1338 169 1349 c 1,17,18
 176 1362 176 1362 186 1381.5 c 128,-1,19
 196 1401 196 1401 206 1422 c 128,-1,20
 216 1443 216 1443 224 1463 c 128,-1,21
 232 1483 232 1483 235 1495 c 1,22,23
 355 1440 355 1440 384 1362 c 0,0,1
EndSplineSet
EndChar

StartChar: divide
Encoding: 48 247 48
Width: 1382
GlyphClass: 2
Flags: W
LayerCount: 3
Fore
SplineSet
660 66 m 1,0,-1
 507 217 l 1,1,-1
 660 366 l 1,2,-1
 819 217 l 1,3,-1
 660 66 l 1,0,-1
164 486 m 1,4,-1
 164 650 l 1,5,-1
 1152 650 l 1,6,-1
 1152 486 l 1,7,-1
 164 486 l 1,4,-1
660 806 m 1,8,-1
 507 962 l 1,9,-1
 660 1111 l 1,10,-1
 819 960 l 1,11,-1
 660 806 l 1,8,-1
EndSplineSet
EndChar

StartChar: minus
Encoding: 49 8722 49
Width: 1300
GlyphClass: 2
Flags: W
LayerCount: 3
Fore
SplineSet
1052 496 m 1,0,-1
 249 496 l 1,1,-1
 249 640 l 1,2,-1
 1052 640 l 1,3,-1
 1052 496 l 1,0,-1
EndSplineSet
EndChar

StartChar: multiply
Encoding: 50 215 50
Width: 1309
GlyphClass: 2
Flags: W
LayerCount: 3
Fore
SplineSet
694 494 m 1,0,-1
 345 154 l 1,1,-1
 246 256 l 1,2,-1
 589 599 l 1,3,-1
 264 924 l 1,4,-1
 379 1042 l 1,5,-1
 704 714 l 1,6,-1
 1047 1055 l 1,7,-1
 1150 950 l 1,8,-1
 806 609 l 1,9,-1
 1134 281 l 1,10,-1
 1019 169 l 1,11,-1
 694 494 l 1,0,-1
EndSplineSet
EndChar

StartChar: u0964
Encoding: 51 58212 51
Width: 854
GlyphClass: 2
Flags: W
LayerCount: 3
Fore
SplineSet
592 -107 m 1,0,-1
 416 -107 l 1,1,-1
 416 1389 l 1,2,-1
 592 1389 l 1,3,-1
 592 -107 l 1,0,-1
EndSplineSet
EndChar

StartChar: u0965
Encoding: 52 58213 52
Width: 1254
GlyphClass: 2
Flags: W
LayerCount: 3
Fore
SplineSet
992 -107 m 1,0,-1
 816 -107 l 1,1,-1
 816 1389 l 1,2,-1
 992 1389 l 1,3,-1
 992 -107 l 1,0,-1
592 -107 m 1,4,-1
 416 -107 l 1,5,-1
 416 1389 l 1,6,-1
 592 1389 l 1,7,-1
 592 -107 l 1,4,-1
EndSplineSet
EndChar

StartChar: u11DA0
Encoding: 53 73120 53
Width: 1106
GlyphClass: 2
Flags: W
LayerCount: 3
Fore
SplineSet
562 1040 m 0,0,1
 477 1040 477 1040 411.5 997.5 c 128,-1,2
 346 955 346 955 301 889.5 c 128,-1,3
 256 824 256 824 232.5 745 c 128,-1,4
 209 666 209 666 209 593 c 0,5,6
 209 547 209 547 217.5 495.5 c 128,-1,7
 226 444 226 444 244 394 c 128,-1,8
 262 344 262 344 290 298 c 128,-1,9
 318 252 318 252 357.5 217 c 128,-1,10
 397 182 397 182 448 161.5 c 128,-1,11
 499 141 499 141 562 141 c 0,12,13
 599 141 599 141 638 154 c 128,-1,14
 677 167 677 167 713 189.5 c 128,-1,15
 749 212 749 212 780.5 242.5 c 128,-1,16
 812 273 812 273 835 309 c 0,17,18
 874 372 874 372 893.5 443.5 c 128,-1,19
 913 515 913 515 913 593 c 0,20,21
 913 672 913 672 889 751.5 c 128,-1,22
 865 831 865 831 819.5 895 c 128,-1,23
 774 959 774 959 709 999.5 c 128,-1,24
 644 1040 644 1040 562 1040 c 0,0,1
562 1182 m 0,25,26
 642 1182 642 1182 709.5 1157.5 c 128,-1,27
 777 1133 777 1133 832 1090 c 128,-1,28
 887 1047 887 1047 929 989.5 c 128,-1,29
 971 932 971 932 999.5 867 c 128,-1,30
 1028 802 1028 802 1042.5 731.5 c 128,-1,31
 1057 661 1057 661 1057 593 c 0,32,33
 1057 483 1057 483 1021.5 376.5 c 128,-1,34
 986 270 986 270 920.5 185.5 c 128,-1,35
 855 101 855 101 764 49 c 128,-1,36
 673 -3 673 -3 562 -3 c 0,37,38
 448 -3 448 -3 356 47.5 c 128,-1,39
 264 98 264 98 200 181.5 c 128,-1,40
 136 265 136 265 101.5 372 c 128,-1,41
 67 479 67 479 67 593 c 0,42,43
 67 662 67 662 82 733 c 128,-1,44
 97 804 97 804 126.5 869.5 c 128,-1,45
 156 935 156 935 198.5 992 c 128,-1,46
 241 1049 241 1049 296 1091 c 128,-1,47
 351 1133 351 1133 418 1157.5 c 128,-1,48
 485 1182 485 1182 562 1182 c 0,25,26
EndSplineSet
EndChar

StartChar: u11DA1
Encoding: 54 73121 54
Width: 1091
GlyphClass: 2
Flags: W
LayerCount: 3
Fore
SplineSet
845 371 m 1,0,-1
 845 321 l 2,1,2
 842 250 842 250 814 189.5 c 128,-1,3
 786 129 786 129 739 84.5 c 128,-1,4
 692 40 692 40 629.5 14.5 c 128,-1,5
 567 -11 567 -11 496 -11 c 0,6,7
 424 -11 424 -11 360.5 16 c 128,-1,8
 297 43 297 43 250.5 90.5 c 128,-1,9
 204 138 204 138 177 202 c 128,-1,10
 150 266 150 266 150 340 c 0,11,12
 150 412 150 412 177 474.5 c 128,-1,13
 204 537 204 537 250.5 584 c 128,-1,14
 297 631 297 631 360.5 658 c 128,-1,15
 424 685 424 685 496 685 c 0,16,17
 553 685 553 685 605.5 671 c 128,-1,18
 658 657 658 657 703 634 c 1,19,-1
 705 1283 l 1,20,-1
 847 1283 l 1,21,-1
 845 371 l 1,0,-1
703 376 m 2,22,23
 703 418 703 418 686 449.5 c 128,-1,24
 669 481 669 481 640 502 c 128,-1,25
 611 523 611 523 573.5 533 c 128,-1,26
 536 543 536 543 496 543 c 0,27,28
 454 543 454 543 417 527 c 128,-1,29
 380 511 380 511 353 483 c 128,-1,30
 326 455 326 455 310 418.5 c 128,-1,31
 294 382 294 382 294 340 c 0,32,33
 294 296 294 296 310 258 c 128,-1,34
 326 220 326 220 353 192 c 128,-1,35
 380 164 380 164 417 148 c 128,-1,36
 454 132 454 132 496 132 c 0,37,38
 539 132 539 132 577 148 c 128,-1,39
 615 164 615 164 643 192 c 128,-1,40
 671 220 671 220 687 258 c 128,-1,41
 703 296 703 296 703 340 c 2,42,-1
 703 376 l 2,22,23
EndSplineSet
EndChar

StartChar: u11DA2
Encoding: 55 73122 55
Width: 1516
GlyphClass: 2
Flags: W
LayerCount: 3
Fore
SplineSet
187 1226 m 1,0,-1
 1039 1230 l 2,1,2
 1115 1230 1115 1230 1181 1207 c 128,-1,3
 1247 1184 1247 1184 1296 1141.5 c 128,-1,4
 1345 1099 1345 1099 1372.5 1037.5 c 128,-1,5
 1400 976 1400 976 1400 900 c 0,6,7
 1400 835 1400 835 1377.5 776.5 c 128,-1,8
 1355 718 1355 718 1316 673.5 c 128,-1,9
 1277 629 1277 629 1223.5 602.5 c 128,-1,10
 1170 576 1170 576 1108 575 c 1,11,-1
 1108 723 l 1,12,13
 1142 723 1142 723 1169.5 738.5 c 128,-1,14
 1197 754 1197 754 1216.5 778.5 c 128,-1,15
 1236 803 1236 803 1246 833.5 c 128,-1,16
 1256 864 1256 864 1256 894 c 0,17,18
 1256 937 1256 937 1244 973.5 c 128,-1,19
 1232 1010 1232 1010 1200 1036 c 0,20,21
 1165 1065 1165 1065 1123 1073.5 c 128,-1,22
 1081 1082 1081 1082 1039 1082 c 2,23,-1
 835 1082 l 1,24,25
 876 1034 876 1034 903.5 976 c 128,-1,26
 931 918 931 918 947.5 856 c 128,-1,27
 964 794 964 794 970.5 729.5 c 128,-1,28
 977 665 977 665 977 604 c 0,29,30
 977 539 977 539 965 469 c 128,-1,31
 953 399 953 399 928 331.5 c 128,-1,32
 903 264 903 264 865.5 204 c 128,-1,33
 828 144 828 144 776 98.5 c 128,-1,34
 724 53 724 53 658 26.5 c 128,-1,35
 592 0 592 0 511 0 c 0,36,37
 409 0 409 0 330 30 c 128,-1,38
 251 60 251 60 197 111.5 c 128,-1,39
 143 163 143 163 115.5 232 c 128,-1,40
 88 301 88 301 88 379 c 0,41,42
 88 442 88 442 106.5 493.5 c 128,-1,43
 125 545 125 545 159.5 582.5 c 128,-1,44
 194 620 194 620 243.5 641.5 c 128,-1,45
 293 663 293 663 355 665 c 0,46,47
 403 665 403 665 449.5 646 c 128,-1,48
 496 627 496 627 532 589 c 0,49,50
 574 544 574 544 590 487 c 128,-1,51
 606 430 606 430 606 373 c 0,52,53
 606 310 606 310 580 252 c 128,-1,54
 554 194 554 194 515 143 c 1,55,56
 570 147 570 147 615 171 c 128,-1,57
 660 195 660 195 695.5 233 c 128,-1,58
 731 271 731 271 757 319 c 128,-1,59
 783 367 783 367 800.5 419 c 128,-1,60
 818 471 818 471 826.5 523.5 c 128,-1,61
 835 576 835 576 835 622 c 0,62,63
 833 670 833 670 825 723 c 128,-1,64
 817 776 817 776 801.5 827 c 128,-1,65
 786 878 786 878 762.5 924.5 c 128,-1,66
 739 971 739 971 705.5 1006 c 128,-1,67
 672 1041 672 1041 628 1061.5 c 128,-1,68
 584 1082 584 1082 528 1082 c 2,69,-1
 187 1082 l 1,70,-1
 187 1226 l 1,0,-1
231 394 m 0,71,72
 231 389 231 389 230.5 384.5 c 128,-1,73
 230 380 230 380 230 375 c 0,74,75
 230 223 230 223 351 169 c 1,76,77
 377 179 377 179 398 202 c 128,-1,78
 419 225 419 225 433.5 254 c 128,-1,79
 448 283 448 283 456 315.5 c 128,-1,80
 464 348 464 348 464 377 c 0,81,82
 464 401 464 401 458.5 426 c 128,-1,83
 453 451 453 451 440 471.5 c 128,-1,84
 427 492 427 492 407 506 c 128,-1,85
 387 520 387 520 357 521 c 0,86,87
 300 518 300 518 267.5 486 c 128,-1,88
 235 454 235 454 231 394 c 0,71,72
EndSplineSet
EndChar

StartChar: u11DA3
Encoding: 56 73123 56
Width: 1099
GlyphClass: 2
Flags: W
LayerCount: 3
Fore
SplineSet
453 130 m 0,0,1
 577 130 577 130 657.5 185 c 128,-1,2
 738 240 738 240 780 330 c 1,3,4
 723 409 723 409 639 444.5 c 128,-1,5
 555 480 555 480 453 480 c 0,6,7
 393 480 393 480 348.5 465.5 c 128,-1,8
 304 451 304 451 274 427 c 128,-1,9
 244 403 244 403 229.5 372 c 128,-1,10
 215 341 215 341 215 309 c 0,11,12
 215 276 215 276 230 243.5 c 128,-1,13
 245 211 245 211 275 186 c 128,-1,14
 305 161 305 161 349.5 145.5 c 128,-1,15
 394 130 394 130 453 130 c 0,0,1
453 623 m 0,16,17
 565 623 565 623 660 592 c 128,-1,18
 755 561 755 561 831 489 c 1,19,20
 836 521 836 521 838.5 554 c 128,-1,21
 841 587 841 587 841 622 c 0,22,23
 841 703 841 703 821.5 780 c 128,-1,24
 802 857 802 857 766 926 c 1,25,-1
 767 925 l 1,26,27
 755 945 755 945 741.5 964.5 c 128,-1,28
 728 984 728 984 712 1001 c 1,29,30
 700 941 700 941 670.5 890 c 128,-1,31
 641 839 641 839 598.5 801 c 128,-1,32
 556 763 556 763 502.5 741.5 c 128,-1,33
 449 720 449 720 390 720 c 0,34,35
 338 720 338 720 289.5 739 c 128,-1,36
 241 758 241 758 203.5 792.5 c 128,-1,37
 166 827 166 827 143.5 873.5 c 128,-1,38
 121 920 121 920 121 976 c 0,39,40
 121 1045 121 1045 153 1098.5 c 128,-1,41
 185 1152 185 1152 235 1188 c 128,-1,42
 285 1224 285 1224 346 1243 c 128,-1,43
 407 1262 407 1262 466 1262 c 0,44,45
 546 1262 546 1262 615.5 1235.5 c 128,-1,46
 685 1209 685 1209 742.5 1163 c 128,-1,47
 800 1117 800 1117 845 1055 c 128,-1,48
 890 993 890 993 921 922 c 128,-1,49
 952 851 952 851 968 774 c 128,-1,50
 984 697 984 697 984 622 c 0,51,52
 984 497 984 497 951.5 382 c 128,-1,53
 919 267 919 267 853.5 179 c 128,-1,54
 788 91 788 91 688 39 c 128,-1,55
 588 -13 588 -13 453 -13 c 0,56,57
 381 -13 381 -13 312.5 8 c 128,-1,58
 244 29 244 29 190.5 70.5 c 128,-1,59
 137 112 137 112 104.5 174 c 128,-1,60
 72 236 72 236 72 319 c 1,61,62
 76 393 76 393 111 450 c 128,-1,63
 146 507 146 507 199.5 545.5 c 128,-1,64
 253 584 253 584 319 603.5 c 128,-1,65
 385 623 385 623 453 623 c 0,16,17
571 1098 m 1,66,67
 544 1109 544 1109 518 1113.5 c 128,-1,68
 492 1118 492 1118 466 1118 c 0,69,70
 434 1118 434 1118 399 1110 c 128,-1,71
 364 1102 364 1102 334 1086 c 128,-1,72
 304 1070 304 1070 284.5 1044.5 c 128,-1,73
 265 1019 265 1019 265 985 c 0,74,75
 265 953 265 953 275.5 930.5 c 128,-1,76
 286 908 286 908 303.5 893 c 128,-1,77
 321 878 321 878 343.5 871 c 128,-1,78
 366 864 366 864 390 864 c 0,79,80
 431 864 431 864 464.5 881.5 c 128,-1,81
 498 899 498 899 522 928 c 128,-1,82
 546 957 546 957 559 995 c 128,-1,83
 572 1033 572 1033 572 1075 c 2,84,-1
 571 1098 l 1,66,67
EndSplineSet
EndChar

StartChar: u11DA4
Encoding: 57 73124 57
Width: 1492
GlyphClass: 2
Flags: W
LayerCount: 3
Fore
SplineSet
1092 -12 m 0,0,1
 1050 -10 1050 -10 1012.5 4.5 c 128,-1,2
 975 19 975 19 941.5 42 c 128,-1,3
 908 65 908 65 879 96 c 128,-1,4
 850 127 850 127 825 162 c 1,5,6
 756 84 756 84 664.5 40.5 c 128,-1,7
 573 -3 573 -3 473 -3 c 0,8,9
 398 -3 398 -3 324.5 19.5 c 128,-1,10
 251 42 251 42 197 92 c 0,11,12
 152 137 152 137 126 191.5 c 128,-1,13
 100 246 100 246 100 306 c 0,14,15
 100 370 100 370 126 431 c 128,-1,16
 152 492 152 492 203 534 c 0,17,18
 260 580 260 580 331.5 600 c 128,-1,19
 403 620 403 620 473 620 c 0,20,21
 579 620 579 620 666 577 c 128,-1,22
 753 534 753 534 818 430 c 1,23,24
 835 475 835 475 841.5 523 c 128,-1,25
 848 571 848 571 848 619 c 0,26,27
 848 694 848 694 831 769.5 c 128,-1,28
 814 845 814 845 778 911 c 1,29,-1
 779 911 l 1,30,31
 755 951 755 951 724 985 c 128,-1,32
 693 1019 693 1019 656 1044 c 128,-1,33
 619 1069 619 1069 576.5 1083.5 c 128,-1,34
 534 1098 534 1098 487 1098 c 0,35,36
 448 1098 448 1098 413 1089.5 c 128,-1,37
 378 1081 378 1081 351 1063.5 c 128,-1,38
 324 1046 324 1046 308.5 1018.5 c 128,-1,39
 293 991 293 991 293 954 c 0,40,41
 293 931 293 931 304 913 c 128,-1,42
 315 895 315 895 332 882 c 128,-1,43
 349 869 349 869 371 862 c 128,-1,44
 393 855 393 855 415 855 c 0,45,46
 436 855 436 855 457 861 c 128,-1,47
 478 867 478 867 494 878.5 c 128,-1,48
 510 890 510 890 520 905.5 c 128,-1,49
 530 921 530 921 530 939 c 1,50,-1
 677 939 l 1,51,52
 677 885 677 885 652 843 c 128,-1,53
 627 801 627 801 588.5 771.5 c 128,-1,54
 550 742 550 742 504 727 c 128,-1,55
 458 712 458 712 415 712 c 0,56,57
 366 712 366 712 318 728.5 c 128,-1,58
 270 745 270 745 231.5 778 c 128,-1,59
 193 811 193 811 169.5 859.5 c 128,-1,60
 146 908 146 908 146 972 c 0,61,62
 149 1041 149 1041 179.5 1092.5 c 128,-1,63
 210 1144 210 1144 258 1177.5 c 128,-1,64
 306 1211 306 1211 365.5 1227.5 c 128,-1,65
 425 1244 425 1244 487 1244 c 0,66,67
 547 1244 547 1244 607 1226.5 c 128,-1,68
 667 1209 667 1209 721 1175 c 128,-1,69
 775 1141 775 1141 821.5 1092.5 c 128,-1,70
 868 1044 868 1044 902 982 c 1,71,-1
 901 982 l 1,72,73
 949 900 949 900 972 806.5 c 128,-1,74
 995 713 995 713 995 619 c 0,75,76
 995 531 995 531 975 447.5 c 128,-1,77
 955 364 955 364 912 283 c 1,78,79
 929 259 929 259 950.5 233.5 c 128,-1,80
 972 208 972 208 996.5 186 c 128,-1,81
 1021 164 1021 164 1047 149 c 128,-1,82
 1073 134 1073 134 1098 131 c 0,83,84
 1145 132 1145 132 1177.5 148 c 128,-1,85
 1210 164 1210 164 1230.5 191.5 c 128,-1,86
 1251 219 1251 219 1260 255.5 c 128,-1,87
 1269 292 1269 292 1269 334 c 1,88,-1
 1411 334 l 1,89,90
 1411 295 1411 295 1406 255.5 c 128,-1,91
 1401 216 1401 216 1388 180 c 128,-1,92
 1375 144 1375 144 1354 112 c 128,-1,93
 1333 80 1333 80 1300 55 c 0,94,95
 1258 20 1258 20 1202 3 c 0,96,97
 1148 -12 1148 -12 1092 -12 c 0,0,1
742 282 m 1,98,99
 730 316 730 316 707 351 c 128,-1,100
 684 386 684 386 650.5 414 c 128,-1,101
 617 442 617 442 572.5 459.5 c 128,-1,102
 528 477 528 477 473 477 c 0,103,104
 415 477 415 477 372.5 463 c 128,-1,105
 330 449 330 449 301.5 425.5 c 128,-1,106
 273 402 273 402 259 372.5 c 128,-1,107
 245 343 245 343 245 312 c 0,108,109
 245 280 245 280 259.5 249.5 c 128,-1,110
 274 219 274 219 302.5 195 c 128,-1,111
 331 171 331 171 374 156 c 128,-1,112
 417 141 417 141 473 141 c 0,113,114
 558 141 558 141 626 181 c 128,-1,115
 694 221 694 221 742 282 c 1,98,99
EndSplineSet
EndChar

StartChar: u11DA5
Encoding: 58 73125 58
Width: 1081
GlyphClass: 2
Flags: W
LayerCount: 3
Fore
SplineSet
919 519 m 0,0,1
 919 474 919 474 899.5 440 c 128,-1,2
 880 406 880 406 847 383 c 1,3,4
 885 355 885 355 909 317 c 128,-1,5
 933 279 933 279 933 234 c 0,6,7
 933 185 933 185 913.5 148.5 c 128,-1,8
 894 112 894 112 861.5 86 c 128,-1,9
 829 60 829 60 786 43 c 128,-1,10
 743 26 743 26 696.5 16 c 128,-1,11
 650 6 650 6 603 2 c 128,-1,12
 556 -2 556 -2 515 -2 c 0,13,14
 471 -2 471 -2 415.5 9 c 128,-1,15
 360 20 360 20 306 41 c 128,-1,16
 252 62 252 62 206 92.5 c 128,-1,17
 160 123 160 123 136 162 c 0,18,19
 133 167 133 167 128 175.5 c 128,-1,20
 123 184 123 184 117.5 193 c 128,-1,21
 112 202 112 202 107 210 c 128,-1,22
 102 218 102 218 99 224 c 1,23,-1
 228 291 l 1,24,25
 257 244 257 244 295 214.5 c 128,-1,26
 333 185 333 185 376.5 168.5 c 128,-1,27
 420 152 420 152 468 146 c 128,-1,28
 516 140 516 140 565 140 c 0,29,30
 600 140 600 140 639 142.5 c 128,-1,31
 678 145 678 145 710.5 154 c 128,-1,32
 743 163 743 163 764 182 c 128,-1,33
 785 201 785 201 785 234 c 0,34,35
 785 256 785 256 770.5 269.5 c 128,-1,36
 756 283 756 283 733.5 289.5 c 128,-1,37
 711 296 711 296 683 298 c 128,-1,38
 655 300 655 300 628 300 c 2,39,-1
 447 300 l 1,40,-1
 447 436 l 1,41,-1
 623 436 l 2,42,43
 694 436 694 436 733.5 450 c 128,-1,44
 773 464 773 464 773 505 c 0,45,46
 773 522 773 522 750 534 c 128,-1,47
 727 546 727 546 676 546 c 2,48,-1
 607 546 l 2,49,50
 579 546 579 546 555.5 546.5 c 128,-1,51
 532 547 532 547 512 547 c 2,52,-1
 468 547 l 2,53,54
 396 547 396 547 335 571.5 c 128,-1,55
 274 596 274 596 229.5 639.5 c 128,-1,56
 185 683 185 683 160 742.5 c 128,-1,57
 135 802 135 802 135 873 c 0,58,59
 135 956 135 956 165 1021 c 128,-1,60
 195 1086 195 1086 248 1130.5 c 128,-1,61
 301 1175 301 1175 375 1198.5 c 128,-1,62
 449 1222 449 1222 538 1222 c 0,63,64
 590 1222 590 1222 641 1207.5 c 128,-1,65
 692 1193 692 1193 732.5 1163.5 c 128,-1,66
 773 1134 773 1134 798.5 1089.5 c 128,-1,67
 824 1045 824 1045 824 985 c 0,68,69
 821 930 821 930 797.5 888.5 c 128,-1,70
 774 847 774 847 737 819 c 128,-1,71
 700 791 700 791 653.5 777 c 128,-1,72
 607 763 607 763 558 763 c 0,73,74
 474 763 474 763 399 793 c 128,-1,75
 324 823 324 823 279 882 c 1,76,77
 279 828 279 828 291.5 791.5 c 128,-1,78
 304 755 304 755 327 731.5 c 128,-1,79
 350 708 350 708 383.5 696 c 128,-1,80
 417 684 417 684 459 679 c 1,81,-1
 654 678 l 2,82,83
 686 678 686 678 731.5 676 c 128,-1,84
 777 674 777 674 818.5 660 c 128,-1,85
 860 646 860 646 889.5 613 c 128,-1,86
 919 580 919 580 919 519 c 0,0,1
538 1080 m 0,87,88
 475 1080 475 1080 422.5 1064 c 128,-1,89
 370 1048 370 1048 335 1010 c 1,90,91
 370 956 370 956 423.5 931 c 128,-1,92
 477 906 477 906 547 906 c 0,93,94
 571 906 571 906 595 910 c 128,-1,95
 619 914 619 914 638.5 923.5 c 128,-1,96
 658 933 658 933 670 950 c 128,-1,97
 682 967 682 967 682 993 c 0,98,99
 682 1018 682 1018 668 1035 c 128,-1,100
 654 1052 654 1052 632.5 1062 c 128,-1,101
 611 1072 611 1072 585.5 1076 c 128,-1,102
 560 1080 560 1080 538 1080 c 0,87,88
EndSplineSet
EndChar

StartChar: u11DA6
Encoding: 59 73126 59
Width: 1142
GlyphClass: 2
Flags: W
LayerCount: 3
Fore
SplineSet
245 645 m 0,0,1
 245 579 245 579 256.5 505.5 c 128,-1,2
 268 432 268 432 287 372 c 1,3,4
 296 435 296 435 324.5 486.5 c 128,-1,5
 353 538 353 538 398 574.5 c 128,-1,6
 443 611 443 611 502.5 630.5 c 128,-1,7
 562 650 562 650 633 650 c 0,8,9
 698 650 698 650 764 630 c 128,-1,10
 830 610 830 610 883 571 c 128,-1,11
 936 532 936 532 969.5 474.5 c 128,-1,12
 1003 417 1003 417 1003 341 c 0,13,14
 1003 260 1003 260 967.5 198 c 128,-1,15
 932 136 932 136 875.5 94 c 128,-1,16
 819 52 819 52 748 31 c 128,-1,17
 677 10 677 10 606 10 c 0,18,19
 510 10 510 10 435 35 c 128,-1,20
 360 60 360 60 304 104 c 128,-1,21
 248 148 248 148 209.5 208.5 c 128,-1,22
 171 269 171 269 147 339.5 c 128,-1,23
 123 410 123 410 112.5 488 c 128,-1,24
 102 566 102 566 102 645 c 0,25,26
 102 720 102 720 118.5 796.5 c 128,-1,27
 135 873 135 873 166.5 944 c 128,-1,28
 198 1015 198 1015 243.5 1077 c 128,-1,29
 289 1139 289 1139 346.5 1185.5 c 128,-1,30
 404 1232 404 1232 472.5 1258.5 c 128,-1,31
 541 1285 541 1285 618 1285 c 0,32,33
 682 1285 682 1285 743 1268.5 c 128,-1,34
 804 1252 804 1252 852.5 1217.5 c 128,-1,35
 901 1183 901 1183 931.5 1131 c 128,-1,36
 962 1079 962 1079 964 1008 c 0,37,38
 963 977 963 977 957.5 950 c 128,-1,39
 952 923 952 923 941 898 c 0,40,41
 924 862 924 862 897.5 833 c 128,-1,42
 871 804 871 804 839 784 c 128,-1,43
 807 764 807 764 770.5 753.5 c 128,-1,44
 734 743 734 743 696 743 c 0,45,46
 637 743 637 743 583 764.5 c 128,-1,47
 529 786 529 786 486.5 824 c 128,-1,48
 444 862 444 862 415.5 913.5 c 128,-1,49
 387 965 387 965 378 1025 c 1,50,51
 345 989 345 989 320 944 c 128,-1,52
 295 899 295 899 278.5 849.5 c 128,-1,53
 262 800 262 800 253.5 747.5 c 128,-1,54
 245 695 245 695 245 645 c 0,0,1
633 503 m 0,55,56
 582 503 582 503 537.5 487 c 128,-1,57
 493 471 493 471 460 438.5 c 128,-1,58
 427 406 427 406 406.5 356.5 c 128,-1,59
 386 307 386 307 382 241 c 1,60,61
 402 212 402 212 427 194.5 c 128,-1,62
 452 177 452 177 480.5 168 c 128,-1,63
 509 159 509 159 541 156 c 128,-1,64
 573 153 573 153 606 153 c 0,65,66
 651 153 651 153 696.5 164.5 c 128,-1,67
 742 176 742 176 778 199 c 128,-1,68
 814 222 814 222 837 256.5 c 128,-1,69
 860 291 860 291 860 337 c 256,70,71
 860 383 860 383 838.5 415 c 128,-1,72
 817 447 817 447 783.5 466.5 c 128,-1,73
 750 486 750 486 710 494.5 c 128,-1,74
 670 503 670 503 633 503 c 0,55,56
618 1141 m 0,75,76
 565 1141 565 1141 514 1119 c 1,77,78
 514 1074 514 1074 525.5 1032.5 c 128,-1,79
 537 991 537 991 560 958.5 c 128,-1,80
 583 926 583 926 617 906.5 c 128,-1,81
 651 887 651 887 696 887 c 0,82,83
 717 887 717 887 739.5 893.5 c 128,-1,84
 762 900 762 900 780 913.5 c 128,-1,85
 798 927 798 927 810 947 c 128,-1,86
 822 967 822 967 822 994 c 0,87,88
 822 1029 822 1029 805.5 1056.5 c 128,-1,89
 789 1084 789 1084 761 1102.5 c 128,-1,90
 733 1121 733 1121 696 1131 c 128,-1,91
 659 1141 659 1141 618 1141 c 0,75,76
EndSplineSet
EndChar

StartChar: u11DA7
Encoding: 60 73127 60
Width: 1221
GlyphClass: 2
Flags: W
LayerCount: 3
Fore
SplineSet
1106 575 m 2,0,-1
 1106 495 l 2,1,2
 1106 397 1106 397 1073.5 306.5 c 128,-1,3
 1041 216 1041 216 981.5 146 c 128,-1,4
 922 76 922 76 838.5 34 c 128,-1,5
 755 -8 755 -8 652 -8 c 0,6,7
 565 -8 565 -8 480 22.5 c 128,-1,8
 395 53 395 53 327.5 111 c 128,-1,9
 260 169 260 169 218 252.5 c 128,-1,10
 176 336 176 336 176 442 c 0,11,12
 176 536 176 536 213 617.5 c 128,-1,13
 250 699 250 699 312 759 c 128,-1,14
 374 819 374 819 455 853 c 128,-1,15
 536 887 536 887 625 887 c 0,16,17
 663 887 663 887 704 880.5 c 128,-1,18
 745 874 745 874 785.5 861.5 c 128,-1,19
 826 849 826 849 863 829.5 c 128,-1,20
 900 810 900 810 930 784 c 1,21,22
 920 871 920 871 876.5 943.5 c 128,-1,23
 833 1016 833 1016 770.5 1067.5 c 128,-1,24
 708 1119 708 1119 633 1147.5 c 128,-1,25
 558 1176 558 1176 485 1176 c 2,26,-1
 162 1176 l 1,27,-1
 162 1319 l 1,28,-1
 485 1319 l 2,29,30
 636 1319 636 1319 751.5 1263 c 128,-1,31
 867 1207 867 1207 946 1108 c 128,-1,32
 1025 1009 1025 1009 1065.5 872.5 c 128,-1,33
 1106 736 1106 736 1106 575 c 2,0,-1
320 443 m 256,34,35
 320 380 320 380 344.5 324 c 128,-1,36
 369 268 369 268 412 226.5 c 128,-1,37
 455 185 455 185 512.5 161 c 128,-1,38
 570 137 570 137 635 137 c 256,39,40
 700 137 700 137 757.5 161 c 128,-1,41
 815 185 815 185 858 226.5 c 128,-1,42
 901 268 901 268 926 324 c 128,-1,43
 951 380 951 380 951 443 c 256,44,45
 951 506 951 506 926 562 c 128,-1,46
 901 618 901 618 858 660 c 128,-1,47
 815 702 815 702 757.5 726 c 128,-1,48
 700 750 700 750 635 750 c 256,49,50
 570 750 570 750 512.5 726 c 128,-1,51
 455 702 455 702 412 660 c 128,-1,52
 369 618 369 618 344.5 562 c 128,-1,53
 320 506 320 506 320 443 c 256,34,35
EndSplineSet
EndChar

StartChar: u11DA8
Encoding: 61 73128 61
Width: 1575
GlyphClass: 2
Flags: W
LayerCount: 3
Fore
SplineSet
1500 834 m 0,0,1
 1500 772 1500 772 1479.5 713.5 c 128,-1,2
 1459 655 1459 655 1421 609.5 c 128,-1,3
 1383 564 1383 564 1329 536.5 c 128,-1,4
 1275 509 1275 509 1209 509 c 0,5,6
 1144 509 1144 509 1087.5 529 c 128,-1,7
 1031 549 1031 549 989.5 587 c 128,-1,8
 948 625 948 625 924 678.5 c 128,-1,9
 900 732 900 732 900 800 c 0,10,11
 900 875 900 875 928 929 c 128,-1,12
 956 983 956 983 1002 1018.5 c 128,-1,13
 1048 1054 1048 1054 1107.5 1070.5 c 128,-1,14
 1167 1087 1167 1087 1229 1087 c 2,15,-1
 1254 1087 l 2,16,17
 1260 1087 1260 1087 1266 1086.5 c 128,-1,18
 1272 1086 1272 1086 1277 1085 c 1,19,20
 1243 1127 1243 1127 1196 1153 c 128,-1,21
 1149 1179 1149 1179 1086 1179 c 2,22,-1
 674 1179 l 1,23,24
 703 1158 703 1158 729.5 1128 c 128,-1,25
 756 1098 756 1098 776.5 1062 c 128,-1,26
 797 1026 797 1026 809 984 c 128,-1,27
 821 942 821 942 821 896 c 0,28,29
 821 771 821 771 778.5 684 c 128,-1,30
 736 597 736 597 632 545 c 1,31,32
 683 500 683 500 713 438.5 c 128,-1,33
 743 377 743 377 743 307 c 0,34,35
 743 250 743 250 722 194.5 c 128,-1,36
 701 139 701 139 662 95.5 c 128,-1,37
 623 52 623 52 567 25.5 c 128,-1,38
 511 -1 511 -1 442 -1 c 0,39,40
 377 -1 377 -1 320 23 c 128,-1,41
 263 47 263 47 221 87 c 128,-1,42
 179 127 179 127 154.5 179 c 128,-1,43
 130 231 130 231 130 287 c 0,44,45
 130 361 130 361 157 415.5 c 128,-1,46
 184 470 184 470 231.5 511 c 128,-1,47
 279 552 279 552 344.5 582.5 c 128,-1,48
 410 613 410 613 487 639 c 0,49,50
 530 654 530 654 565 674.5 c 128,-1,51
 600 695 600 695 624.5 724.5 c 128,-1,52
 649 754 649 754 662.5 794 c 128,-1,53
 676 834 676 834 676 887 c 0,54,55
 676 942 676 942 648.5 995 c 128,-1,56
 621 1048 621 1048 578.5 1088.5 c 128,-1,57
 536 1129 536 1129 485 1154 c 128,-1,58
 434 1179 434 1179 386 1179 c 2,59,-1
 112 1179 l 1,60,-1
 112 1321 l 1,61,-1
 1084 1321 l 2,62,63
 1193 1321 1193 1321 1271.5 1280.5 c 128,-1,64
 1350 1240 1350 1240 1401 1172.5 c 128,-1,65
 1452 1105 1452 1105 1476 1017 c 128,-1,66
 1500 929 1500 929 1500 834 c 0,0,1
599 322 m 0,67,68
 599 350 599 350 587.5 374 c 128,-1,69
 576 398 576 398 558 418 c 128,-1,70
 540 438 540 438 517 454.5 c 128,-1,71
 494 471 494 471 472 484 c 1,72,73
 434 472 434 472 398.5 456 c 128,-1,74
 363 440 363 440 335 416.5 c 128,-1,75
 307 393 307 393 290.5 361 c 128,-1,76
 274 329 274 329 274 285 c 0,77,78
 274 259 274 259 287 233 c 128,-1,79
 300 207 300 207 322 186.5 c 128,-1,80
 344 166 344 166 374 153.5 c 128,-1,81
 404 141 404 141 439 141 c 0,82,83
 476 141 476 141 505.5 154.5 c 128,-1,84
 535 168 535 168 556 192 c 128,-1,85
 577 216 577 216 588 249.5 c 128,-1,86
 599 283 599 283 599 322 c 0,67,68
1357 841 m 0,87,88
 1357 851 1357 851 1356 865.5 c 128,-1,89
 1355 880 1355 880 1353.5 895.5 c 128,-1,90
 1352 911 1352 911 1349.5 926 c 128,-1,91
 1347 941 1347 941 1344 952 c 1,92,93
 1312 961 1312 961 1283.5 963.5 c 128,-1,94
 1255 966 1255 966 1223 966 c 0,95,96
 1189 966 1189 966 1157.5 955 c 128,-1,97
 1126 944 1126 944 1101.5 922.5 c 128,-1,98
 1077 901 1077 901 1062.5 870 c 128,-1,99
 1048 839 1048 839 1048 800 c 0,100,101
 1048 728 1048 728 1092.5 689.5 c 128,-1,102
 1137 651 1137 651 1209 651 c 0,103,104
 1244 651 1244 651 1271.5 668 c 128,-1,105
 1299 685 1299 685 1318 712 c 128,-1,106
 1337 739 1337 739 1347 773 c 128,-1,107
 1357 807 1357 807 1357 841 c 0,87,88
EndSplineSet
EndChar

StartChar: u11DA9
Encoding: 62 73129 62
Width: 1339
GlyphClass: 2
Flags: W
LayerCount: 3
Fore
SplineSet
528 735 m 0,0,1
 543 735 543 735 557.5 736 c 128,-1,2
 572 737 572 737 586 737 c 0,3,4
 649 737 649 737 713.5 717.5 c 128,-1,5
 778 698 778 698 830 657 c 128,-1,6
 882 616 882 616 915 552 c 128,-1,7
 948 488 948 488 948 400 c 0,8,9
 948 366 948 366 941.5 337.5 c 128,-1,10
 935 309 935 309 923 283 c 128,-1,11
 911 257 911 257 894 232.5 c 128,-1,12
 877 208 877 208 857 183 c 1,13,14
 879 166 879 166 908 151 c 128,-1,15
 937 136 937 136 964 136 c 0,16,17
 1034 136 1034 136 1060 177.5 c 128,-1,18
 1086 219 1086 219 1086 300 c 1,19,-1
 1228 300 l 1,20,21
 1228 214 1228 214 1203 156.5 c 128,-1,22
 1178 99 1178 99 1137.5 64 c 128,-1,23
 1097 29 1097 29 1046 14 c 128,-1,24
 995 -1 995 -1 944 -1 c 1,25,26
 884 7 884 7 839 27.5 c 128,-1,27
 794 48 794 48 751 83 c 1,28,29
 676 35 676 35 598 14.5 c 128,-1,30
 520 -6 520 -6 435 -6 c 0,31,32
 384 -6 384 -6 329.5 8.5 c 128,-1,33
 275 23 275 23 230 51.5 c 128,-1,34
 185 80 185 80 155 122.5 c 128,-1,35
 125 165 125 165 124 221 c 0,36,37
 124 279 124 279 152.5 318.5 c 128,-1,38
 181 358 181 358 224 382 c 128,-1,39
 267 406 267 406 317.5 416.5 c 128,-1,40
 368 427 368 427 412 427 c 0,41,42
 507 427 507 427 583.5 397.5 c 128,-1,43
 660 368 660 368 732 303 c 2,44,-1
 755 282 l 1,45,46
 765 298 765 298 773.5 310 c 128,-1,47
 782 322 782 322 788 334 c 128,-1,48
 794 346 794 346 797.5 361.5 c 128,-1,49
 801 377 801 377 801 400 c 0,50,51
 801 445 801 445 785.5 483 c 128,-1,52
 770 521 770 521 743.5 548 c 128,-1,53
 717 575 717 575 681 590 c 128,-1,54
 645 605 645 605 605 605 c 2,55,-1
 514 605 l 2,56,57
 433 605 433 605 364 634 c 128,-1,58
 295 663 295 663 244.5 716 c 128,-1,59
 194 769 194 769 166 843.5 c 128,-1,60
 138 918 138 918 138 1008 c 0,61,62
 138 1072 138 1072 167 1128.5 c 128,-1,63
 196 1185 196 1185 244.5 1227.5 c 128,-1,64
 293 1270 293 1270 356.5 1295 c 128,-1,65
 420 1320 420 1320 489 1320 c 0,66,67
 541 1320 541 1320 592 1306.5 c 128,-1,68
 643 1293 643 1293 682.5 1265 c 128,-1,69
 722 1237 722 1237 746.5 1194 c 128,-1,70
 771 1151 771 1151 771 1092 c 0,71,72
 771 1044 771 1044 750 1004 c 128,-1,73
 729 964 729 964 693.5 936 c 128,-1,74
 658 908 658 908 611.5 892.5 c 128,-1,75
 565 877 565 877 513 877 c 0,76,77
 435 877 435 877 375 910.5 c 128,-1,78
 315 944 315 944 277 1009 c 1,79,-1
 277 1008 l 2,80,81
 277 866 277 866 339 800.5 c 128,-1,82
 401 735 401 735 528 735 c 0,0,1
435 137 m 0,83,84
 490 137 490 137 544 148.5 c 128,-1,85
 598 160 598 160 644 188 c 1,86,87
 588 240 588 240 533.5 262 c 128,-1,88
 479 284 479 284 412 284 c 0,89,90
 395 284 395 284 371 281.5 c 128,-1,91
 347 279 347 279 324 272.5 c 128,-1,92
 301 266 301 266 285 253.5 c 128,-1,93
 269 241 269 241 269 220 c 0,94,95
 269 202 269 202 286.5 186.5 c 128,-1,96
 304 171 304 171 329.5 160 c 128,-1,97
 355 149 355 149 383.5 143 c 128,-1,98
 412 137 412 137 435 137 c 0,83,84
506 1010 m 0,99,100
 528 1010 528 1010 550 1017 c 128,-1,101
 572 1024 572 1024 589.5 1036 c 128,-1,102
 607 1048 607 1048 617.5 1063.5 c 128,-1,103
 628 1079 628 1079 628 1097 c 0,104,105
 628 1121 628 1121 613.5 1137.5 c 128,-1,106
 599 1154 599 1154 578 1165 c 128,-1,107
 557 1176 557 1176 532.5 1181 c 128,-1,108
 508 1186 508 1186 489 1186 c 0,109,110
 444 1186 444 1186 406 1171.5 c 128,-1,111
 368 1157 368 1157 339 1134 c 1,112,113
 348 1108 348 1108 366 1085.5 c 128,-1,114
 384 1063 384 1063 407 1046 c 128,-1,115
 430 1029 430 1029 455.5 1019.5 c 128,-1,116
 481 1010 481 1010 506 1010 c 0,99,100
EndSplineSet
EndChar

StartChar: uni0970
Encoding: 63 2416 63
Width: 640
GlyphClass: 2
Flags: W
LayerCount: 3
Fore
SplineSet
537 306 m 256,0,1
 537 228 537 228 482 173 c 0,2,3
 428 119 428 119 350 119 c 256,4,5
 272 119 272 119 217 173 c 0,6,7
 163 228 163 228 163 306 c 256,8,9
 163 384 163 384 217 438 c 0,10,11
 272 493 272 493 350 493 c 256,12,13
 428 493 428 493 482 438 c 0,14,15
 537 384 537 384 537 306 c 256,0,1
441 306 m 256,16,17
 441 344 441 344 414.5 370.5 c 128,-1,18
 388 397 388 397 350 397 c 256,19,20
 312 397 312 397 285.5 370.5 c 128,-1,21
 259 344 259 344 259 306 c 256,22,23
 259 268 259 268 285.5 241.5 c 128,-1,24
 312 215 312 215 350 215 c 256,25,26
 388 215 388 215 414.5 241.5 c 128,-1,27
 441 268 441 268 441 306 c 256,16,17
EndSplineSet
EndChar

StartChar: u11D98
Encoding: 64 73112 64
Width: 2927
GlyphClass: 2
Flags: W
LayerCount: 3
Fore
SplineSet
2173 354 m 1,0,1
 2199 318 2199 318 2229.5 288 c 128,-1,2
 2260 258 2260 258 2293 236.5 c 128,-1,3
 2326 215 2326 215 2360.5 202.5 c 128,-1,4
 2395 190 2395 190 2428 190 c 0,5,6
 2530 190 2530 190 2587.5 288.5 c 128,-1,7
 2645 387 2645 387 2645 595 c 0,8,9
 2645 660 2645 660 2633 729.5 c 128,-1,10
 2621 799 2621 799 2597.5 865 c 128,-1,11
 2574 931 2574 931 2540.5 989.5 c 128,-1,12
 2507 1048 2507 1048 2463.5 1092 c 128,-1,13
 2420 1136 2420 1136 2367.5 1161.5 c 128,-1,14
 2315 1187 2315 1187 2254 1187 c 0,15,16
 2180 1187 2180 1187 2130.5 1143 c 128,-1,17
 2081 1099 2081 1099 2048.5 1027 c 128,-1,18
 2016 955 2016 955 1995 862.5 c 128,-1,19
 1974 770 1974 770 1957 673 c 0,20,21
 1943 597 1943 597 1927.5 517.5 c 128,-1,22
 1912 438 1912 438 1890 363.5 c 128,-1,23
 1868 289 1868 289 1838 222.5 c 128,-1,24
 1808 156 1808 156 1764 106.5 c 128,-1,25
 1720 57 1720 57 1661 28.5 c 128,-1,26
 1602 0 1602 0 1523 0 c 0,27,28
 1373 0 1373 0 1268 89.5 c 128,-1,29
 1163 179 1163 179 1093 355 c 1,30,31
 1061 275 1061 275 1016 210 c 128,-1,32
 971 145 971 145 911 98.5 c 128,-1,33
 851 52 851 52 776 26.5 c 128,-1,34
 701 1 701 1 608 1 c 0,35,36
 540 1 540 1 476.5 21.5 c 128,-1,37
 413 42 413 42 357 78 c 128,-1,38
 301 114 301 114 254.5 164 c 128,-1,39
 208 214 208 214 174.5 273.5 c 128,-1,40
 141 333 141 333 122.5 400.5 c 128,-1,41
 104 468 104 468 104 539 c 0,42,43
 104 636 104 636 128 718.5 c 128,-1,44
 152 801 152 801 195.5 861.5 c 128,-1,45
 239 922 239 922 300 956 c 128,-1,46
 361 990 361 990 435 990 c 0,47,48
 489 990 489 990 539.5 973.5 c 128,-1,49
 590 957 590 957 633.5 926.5 c 128,-1,50
 677 896 677 896 712 851.5 c 128,-1,51
 747 807 747 807 770 751 c 1,52,-1
 645 687 l 1,53,54
 629 722 629 722 609.5 749.5 c 128,-1,55
 590 777 590 777 565 796 c 128,-1,56
 540 815 540 815 508 825 c 128,-1,57
 476 835 476 835 436 835 c 0,58,59
 360 835 360 835 312 760.5 c 128,-1,60
 264 686 264 686 264 539 c 0,61,62
 264 471 264 471 283.5 407.5 c 128,-1,63
 303 344 303 344 343 294 c 128,-1,64
 383 244 383 244 443.5 214 c 128,-1,65
 504 184 504 184 586 184 c 0,66,67
 680 184 680 184 756.5 226.5 c 128,-1,68
 833 269 833 269 887 344.5 c 128,-1,69
 941 420 941 420 970.5 523.5 c 128,-1,70
 1000 627 1000 627 1000 748 c 2,71,-1
 1000 1162 l 1,72,-1
 1185 1162 l 1,73,-1
 1185 755 l 2,74,75
 1185 632 1185 632 1208 528.5 c 128,-1,76
 1231 425 1231 425 1274.5 349.5 c 128,-1,77
 1318 274 1318 274 1380.5 232 c 128,-1,78
 1443 190 1443 190 1523 190 c 0,79,80
 1589 190 1589 190 1629.5 228 c 128,-1,81
 1670 266 1670 266 1696 330.5 c 128,-1,82
 1722 395 1722 395 1739.5 480.5 c 128,-1,83
 1757 566 1757 566 1777 660 c 0,84,85
 1793 737 1793 737 1811.5 816.5 c 128,-1,86
 1830 896 1830 896 1855.5 970.5 c 128,-1,87
 1881 1045 1881 1045 1915 1110.5 c 128,-1,88
 1949 1176 1949 1176 1997 1225 c 128,-1,89
 2045 1274 2045 1274 2108.5 1302 c 128,-1,90
 2172 1330 2172 1330 2256 1330 c 0,91,92
 2339 1330 2339 1330 2413.5 1300.5 c 128,-1,93
 2488 1271 2488 1271 2551 1219 c 128,-1,94
 2614 1167 2614 1167 2664.5 1096.5 c 128,-1,95
 2715 1026 2715 1026 2750.5 944.5 c 128,-1,96
 2786 863 2786 863 2805 773.5 c 128,-1,97
 2824 684 2824 684 2824 595 c 0,98,99
 2824 465 2824 465 2796.5 356 c 128,-1,100
 2769 247 2769 247 2718.5 168 c 128,-1,101
 2668 89 2668 89 2598.5 44.5 c 128,-1,102
 2529 0 2529 0 2445 0 c 0,103,104
 2379 0 2379 0 2321.5 21.5 c 128,-1,105
 2264 43 2264 43 2215 79.5 c 128,-1,106
 2166 116 2166 116 2126.5 163.5 c 128,-1,107
 2087 211 2087 211 2057 263 c 1,108,-1
 2173 354 l 1,0,1
1239 1732 m 1,109,110
 1260 1671 1260 1671 1297.5 1620.5 c 128,-1,111
 1335 1570 1335 1570 1383 1533.5 c 128,-1,112
 1431 1497 1431 1497 1487 1476.5 c 128,-1,113
 1543 1456 1543 1456 1601 1456 c 256,114,115
 1659 1456 1659 1456 1715 1476 c 128,-1,116
 1771 1496 1771 1496 1819 1532.5 c 128,-1,117
 1867 1569 1867 1569 1904.5 1619.5 c 128,-1,118
 1942 1670 1942 1670 1963 1731 c 1,119,-1
 2106 1689 l 1,120,121
 2083 1608 2083 1608 2035 1537 c 128,-1,122
 1987 1466 1987 1466 1920 1412.5 c 128,-1,123
 1853 1359 1853 1359 1771.5 1328 c 128,-1,124
 1690 1297 1690 1297 1600 1297 c 0,125,126
 1511 1297 1511 1297 1430 1328 c 128,-1,127
 1349 1359 1349 1359 1282.5 1412 c 128,-1,128
 1216 1465 1216 1465 1168 1536 c 128,-1,129
 1120 1607 1120 1607 1097 1688 c 1,130,-1
 1239 1732 l 1,109,110
2543 2564 m 0,131,132
 2543 2591 2543 2591 2555.5 2614 c 128,-1,133
 2568 2637 2568 2637 2589 2654.5 c 128,-1,134
 2610 2672 2610 2672 2636.5 2681.5 c 128,-1,135
 2663 2691 2663 2691 2691 2691 c 0,136,137
 2726 2691 2726 2691 2758.5 2676.5 c 128,-1,138
 2791 2662 2791 2662 2816.5 2637.5 c 128,-1,139
 2842 2613 2842 2613 2857 2579.5 c 128,-1,140
 2872 2546 2872 2546 2872 2509 c 0,141,142
 2872 2478 2872 2478 2861 2452 c 128,-1,143
 2850 2426 2850 2426 2831 2407.5 c 128,-1,144
 2812 2389 2812 2389 2786.5 2379 c 128,-1,145
 2761 2369 2761 2369 2731 2369 c 0,146,147
 2691 2369 2691 2369 2657 2384.5 c 128,-1,148
 2623 2400 2623 2400 2597.5 2426.5 c 128,-1,149
 2572 2453 2572 2453 2557.5 2488.5 c 128,-1,150
 2543 2524 2543 2524 2543 2564 c 0,131,132
1489 1773 m 256,151,152
 1489 1795 1489 1795 1497 1814 c 128,-1,153
 1505 1833 1505 1833 1519.5 1847 c 128,-1,154
 1534 1861 1534 1861 1553 1869.5 c 128,-1,155
 1572 1878 1572 1878 1594 1878 c 256,156,157
 1616 1878 1616 1878 1635 1869.5 c 128,-1,158
 1654 1861 1654 1861 1668 1847 c 128,-1,159
 1682 1833 1682 1833 1690.5 1814 c 128,-1,160
 1699 1795 1699 1795 1699 1773 c 256,161,162
 1699 1751 1699 1751 1690.5 1732 c 128,-1,163
 1682 1713 1682 1713 1668 1699 c 128,-1,164
 1654 1685 1654 1685 1635 1677 c 128,-1,165
 1616 1669 1616 1669 1594 1669 c 256,166,167
 1572 1669 1572 1669 1553 1677 c 128,-1,168
 1534 1685 1534 1685 1519.5 1699 c 128,-1,169
 1505 1713 1505 1713 1497 1732 c 128,-1,170
 1489 1751 1489 1751 1489 1773 c 256,151,152
EndSplineSet
EndChar

StartChar: uni20A8
Encoding: 65 8360 65
Width: 1398
GlyphClass: 2
Flags: W
LayerCount: 3
Fore
SplineSet
1053 0 m 1,0,-1
 774 0 l 1,1,-1
 278 496 l 1,2,-1
 277 673 l 1,3,-1
 345 673 l 2,4,5
 544 673 544 673 647 715.5 c 128,-1,6
 750 758 750 758 758 834 c 1,7,-1
 258 834 l 1,8,-1
 258 993 l 1,9,-1
 747 993 l 1,10,11
 740 1014 740 1014 725.5 1042 c 128,-1,12
 711 1070 711 1070 686 1095.5 c 128,-1,13
 661 1121 661 1121 623.5 1138.5 c 128,-1,14
 586 1156 586 1156 533 1156 c 2,15,-1
 267 1156 l 1,16,-1
 267 1320 l 1,17,-1
 1132 1320 l 1,18,-1
 1132 1156 l 1,19,-1
 875 1156 l 1,20,21
 896 1138 896 1138 911.5 1116.5 c 128,-1,22
 927 1095 927 1095 938 1073 c 128,-1,23
 949 1051 949 1051 956.5 1030 c 128,-1,24
 964 1009 964 1009 969 993 c 1,25,-1
 1152 993 l 1,26,-1
 1152 834 l 1,27,-1
 971 834 l 1,28,29
 963 774 963 774 932 720 c 128,-1,30
 901 666 901 666 847 623.5 c 128,-1,31
 793 581 793 581 717 553 c 128,-1,32
 641 525 641 525 544 518 c 1,33,-1
 1053 0 l 1,0,-1
EndSplineSet
EndChar

StartChar: u11D96
Encoding: 66 73110 66
Width: 640
GlyphClass: 2
Flags: W
LayerCount: 3
Fore
SplineSet
302 979 m 0,0,1
 280 979 280 979 259 970.5 c 128,-1,2
 238 962 238 962 221.5 946.5 c 128,-1,3
 205 931 205 931 195 909.5 c 128,-1,4
 185 888 185 888 185 861 c 0,5,6
 185 839 185 839 195 818 c 128,-1,7
 205 797 205 797 221.5 780.5 c 128,-1,8
 238 764 238 764 259 754 c 128,-1,9
 280 744 280 744 302 744 c 0,10,11
 328 744 328 744 351.5 754 c 128,-1,12
 375 764 375 764 392.5 780.5 c 128,-1,13
 410 797 410 797 420.5 818 c 128,-1,14
 431 839 431 839 431 861 c 0,15,16
 431 888 431 888 420.5 909.5 c 128,-1,17
 410 931 410 931 392.5 946.5 c 128,-1,18
 375 962 375 962 351.5 970.5 c 128,-1,19
 328 979 328 979 302 979 c 0,0,1
302 1084 m 0,20,21
 350 1084 350 1084 391 1067.5 c 128,-1,22
 432 1051 432 1051 461.5 1021 c 128,-1,23
 491 991 491 991 507.5 950 c 128,-1,24
 524 909 524 909 524 861 c 0,25,26
 524 817 524 817 507.5 777 c 128,-1,27
 491 737 491 737 461.5 706 c 128,-1,28
 432 675 432 675 391 657 c 128,-1,29
 350 639 350 639 302 639 c 0,30,31
 258 639 258 639 217.5 657 c 128,-1,32
 177 675 177 675 146.5 706 c 128,-1,33
 116 737 116 737 97.5 777 c 128,-1,34
 79 817 79 817 79 861 c 0,35,36
 79 909 79 909 97.5 950 c 128,-1,37
 116 991 116 991 146.5 1021 c 128,-1,38
 177 1051 177 1051 217.5 1067.5 c 128,-1,39
 258 1084 258 1084 302 1084 c 0,20,21
302 410 m 0,40,41
 280 410 280 410 259 400 c 128,-1,42
 238 390 238 390 221.5 372.5 c 128,-1,43
 205 355 205 355 195 331.5 c 128,-1,44
 185 308 185 308 185 281 c 0,45,46
 185 259 185 259 195 238 c 128,-1,47
 205 217 205 217 221.5 200.5 c 128,-1,48
 238 184 238 184 259 174 c 128,-1,49
 280 164 280 164 302 164 c 0,50,51
 328 164 328 164 351.5 174 c 128,-1,52
 375 184 375 184 392.5 200.5 c 128,-1,53
 410 217 410 217 420.5 238 c 128,-1,54
 431 259 431 259 431 281 c 0,55,56
 431 308 431 308 420.5 331.5 c 128,-1,57
 410 355 410 355 392.5 372.5 c 128,-1,58
 375 390 375 390 351.5 400 c 128,-1,59
 328 410 328 410 302 410 c 0,40,41
302 516 m 0,60,61
 350 516 350 516 391 497.5 c 128,-1,62
 432 479 432 479 461.5 447 c 128,-1,63
 491 415 491 415 507.5 372 c 128,-1,64
 524 329 524 329 524 281 c 0,65,66
 524 237 524 237 507.5 197 c 128,-1,67
 491 157 491 157 461.5 126 c 128,-1,68
 432 95 432 95 391 77 c 128,-1,69
 350 59 350 59 302 59 c 0,70,71
 258 59 258 59 217.5 77 c 128,-1,72
 177 95 177 95 146.5 126 c 128,-1,73
 116 157 116 157 97.5 197 c 128,-1,74
 79 237 79 237 79 281 c 0,75,76
 79 329 79 329 97.5 372 c 128,-1,77
 116 415 116 415 146.5 447 c 128,-1,78
 177 479 177 479 217.5 497.5 c 128,-1,79
 258 516 258 516 302 516 c 0,60,61
-53 1318 m 1,80,-1
 686 1318 l 1,81,-1
 686 1225 l 1,82,-1
 -53 1225 l 1,83,-1
 -53 1318 l 1,80,-1
EndSplineSet
EndChar

StartChar: u11D60
Encoding: 67 73056 67
Width: 1602
GlyphClass: 2
Flags: W
LayerCount: 3
Fore
SplineSet
-39 1320 m 1,0,-1
 1617 1320 l 1,1,-1
 1617 1226 l 1,2,-1
 1445 1226 l 1,3,-1
 1450 331 l 2,4,5
 1450 256 1450 256 1425.5 195 c 128,-1,6
 1401 134 1401 134 1357 90.5 c 128,-1,7
 1313 47 1313 47 1252.5 23.5 c 128,-1,8
 1192 0 1192 0 1119 0 c 0,9,10
 1069 0 1069 0 1022 9.5 c 128,-1,11
 975 19 975 19 934 38 c 128,-1,12
 893 57 893 57 860 85.5 c 128,-1,13
 827 114 827 114 805 152 c 1,14,15
 751 80 751 80 667.5 40 c 128,-1,16
 584 0 584 0 481 0 c 0,17,18
 401 0 401 0 334 29.5 c 128,-1,19
 267 59 267 59 218.5 109.5 c 128,-1,20
 170 160 170 160 143 228.5 c 128,-1,21
 116 297 116 297 116 375 c 0,22,23
 116 440 116 440 134.5 500 c 128,-1,24
 153 560 153 560 189.5 605.5 c 128,-1,25
 226 651 226 651 280.5 678.5 c 128,-1,26
 335 706 335 706 408 706 c 0,27,28
 486 706 486 706 549 673 c 128,-1,29
 612 640 612 640 663 576 c 1,30,-1
 547 491 l 1,31,32
 519 530 519 530 484.5 547.5 c 128,-1,33
 450 565 450 565 408 565 c 0,34,35
 370 565 370 565 341.5 548.5 c 128,-1,36
 313 532 313 532 294.5 505 c 128,-1,37
 276 478 276 478 267 444 c 128,-1,38
 258 410 258 410 258 375 c 0,39,40
 258 327 258 327 273.5 284 c 128,-1,41
 289 241 289 241 318 209.5 c 128,-1,42
 347 178 347 178 388.5 159.5 c 128,-1,43
 430 141 430 141 481 141 c 0,44,45
 565 141 565 141 619.5 174.5 c 128,-1,46
 674 208 674 208 706.5 260.5 c 128,-1,47
 739 313 739 313 753 378 c 128,-1,48
 767 443 767 443 769 506 c 2,49,-1
 769 730 l 1,50,-1
 910 730 l 1,51,-1
 910 297 l 2,52,53
 910 255 910 255 928 225.5 c 128,-1,54
 946 196 946 196 975 177.5 c 128,-1,55
 1004 159 1004 159 1042 150 c 128,-1,56
 1080 141 1080 141 1119 141 c 0,57,58
 1161 141 1161 141 1196 154 c 128,-1,59
 1231 167 1231 167 1256 191.5 c 128,-1,60
 1281 216 1281 216 1295 251.5 c 128,-1,61
 1309 287 1309 287 1309 331 c 0,62,63
 1308 553 1308 553 1306.5 778 c 128,-1,64
 1305 1003 1305 1003 1304 1226 c 1,65,-1
 -39 1226 l 1,66,-1
 -39 1320 l 1,0,-1
EndSplineSet
EndChar

StartChar: u11D61
Encoding: 68 73057 68
Width: 2148
GlyphClass: 2
Flags: W
LayerCount: 3
Fore
SplineSet
-39 1320 m 1,0,-1
 2157 1320 l 1,1,-1
 2157 1226 l 1,2,-1
 1478 1226 l 1,3,-1
 1478 980 l 1,4,5
 1524 1000 1524 1000 1578 1010 c 128,-1,6
 1632 1020 1632 1020 1692 1020 c 0,7,8
 1763 1020 1763 1020 1825 993 c 128,-1,9
 1887 966 1887 966 1933 919.5 c 128,-1,10
 1979 873 1979 873 2005.5 811 c 128,-1,11
 2032 749 2032 749 2032 679 c 0,12,13
 2032 614 2032 614 2007.5 557.5 c 128,-1,14
 1983 501 1983 501 1941 459.5 c 128,-1,15
 1899 418 1899 418 1843 394 c 128,-1,16
 1787 370 1787 370 1724 370 c 0,17,18
 1655 370 1655 370 1598.5 392.5 c 128,-1,19
 1542 415 1542 415 1498.5 453.5 c 128,-1,20
 1455 492 1455 492 1423.5 543 c 128,-1,21
 1392 594 1392 594 1373 650 c 1,22,23
 1366 623 1366 623 1362.5 593.5 c 128,-1,24
 1359 564 1359 564 1359 531 c 0,25,26
 1359 505 1359 505 1361 479 c 128,-1,27
 1363 453 1363 453 1363 427 c 0,28,29
 1363 344 1363 344 1346.5 269 c 128,-1,30
 1330 194 1330 194 1293.5 135.5 c 128,-1,31
 1257 77 1257 77 1199.5 40.5 c 128,-1,32
 1142 4 1142 4 1060 0 c 1,33,-1
 1059 0 l 2,34,35
 1056 0 1056 0 1053 -0.5 c 128,-1,36
 1050 -1 1050 -1 1048 -1 c 2,37,-1
 1039 -1 l 2,38,39
 945 -1 945 -1 874.5 39 c 128,-1,40
 804 79 804 79 764 152 c 1,41,42
 710 80 710 80 627 40 c 128,-1,43
 544 0 544 0 441 0 c 0,44,45
 361 0 361 0 294 29.5 c 128,-1,46
 227 59 227 59 178.5 109.5 c 128,-1,47
 130 160 130 160 103 228.5 c 128,-1,48
 76 297 76 297 76 375 c 0,49,50
 76 440 76 440 94 500 c 128,-1,51
 112 560 112 560 148.5 605.5 c 128,-1,52
 185 651 185 651 239.5 678.5 c 128,-1,53
 294 706 294 706 368 706 c 0,54,55
 446 706 446 706 508.5 673 c 128,-1,56
 571 640 571 640 622 576 c 1,57,-1
 506 491 l 1,58,59
 478 530 478 530 444 547.5 c 128,-1,60
 410 565 410 565 368 565 c 0,61,62
 330 565 330 565 301.5 548.5 c 128,-1,63
 273 532 273 532 254 505 c 128,-1,64
 235 478 235 478 226 444 c 128,-1,65
 217 410 217 410 217 375 c 0,66,67
 217 327 217 327 232.5 284 c 128,-1,68
 248 241 248 241 277.5 209.5 c 128,-1,69
 307 178 307 178 348.5 159.5 c 128,-1,70
 390 141 390 141 441 141 c 0,71,72
 525 141 525 141 579.5 174.5 c 128,-1,73
 634 208 634 208 666.5 260.5 c 128,-1,74
 699 313 699 313 712.5 378 c 128,-1,75
 726 443 726 443 728 506 c 2,76,-1
 728 730 l 1,77,-1
 869 730 l 1,78,-1
 869 297 l 2,79,80
 869 259 869 259 881.5 229.5 c 128,-1,81
 894 200 894 200 916 180 c 128,-1,82
 938 160 938 160 967.5 149.5 c 128,-1,83
 997 139 997 139 1032 139 c 0,84,85
 1092 139 1092 139 1129.5 162 c 128,-1,86
 1167 185 1167 185 1188 224 c 128,-1,87
 1209 263 1209 263 1216.5 314 c 128,-1,88
 1224 365 1224 365 1224 421 c 0,89,90
 1224 456 1224 456 1221.5 492 c 128,-1,91
 1219 528 1219 528 1219 563 c 0,92,93
 1219 663 1219 663 1250.5 741.5 c 128,-1,94
 1282 820 1282 820 1336 880 c 1,95,-1
 1336 1226 l 1,96,-1
 -39 1226 l 1,97,-1
 -39 1320 l 1,0,-1
1692 879 m 0,98,99
 1623 879 1623 879 1571.5 864 c 128,-1,100
 1520 849 1520 849 1482 823 c 1,101,102
 1487 769 1487 769 1502.5 714 c 128,-1,103
 1518 659 1518 659 1546.5 614 c 128,-1,104
 1575 569 1575 569 1618 540.5 c 128,-1,105
 1661 512 1661 512 1722 512 c 0,106,107
 1756 512 1756 512 1786 525 c 128,-1,108
 1816 538 1816 538 1838.5 560.5 c 128,-1,109
 1861 583 1861 583 1873.5 613.5 c 128,-1,110
 1886 644 1886 644 1886 679 c 0,111,112
 1886 721 1886 721 1871 757.5 c 128,-1,113
 1856 794 1856 794 1830 821 c 128,-1,114
 1804 848 1804 848 1768.5 863.5 c 128,-1,115
 1733 879 1733 879 1692 879 c 0,98,99
EndSplineSet
EndChar

StartChar: u11D62
Encoding: 69 73058 69
Width: 1825
GlyphClass: 2
Flags: W
LayerCount: 3
Fore
SplineSet
-39 1320 m 1,0,-1
 777 1320 l 1,1,2
 795 1401 795 1401 831 1472 c 128,-1,3
 867 1543 867 1543 922 1595.5 c 128,-1,4
 977 1648 977 1648 1051.5 1678 c 128,-1,5
 1126 1708 1126 1708 1221 1708 c 0,6,7
 1322 1708 1322 1708 1398 1679 c 128,-1,8
 1474 1650 1474 1650 1527 1598 c 128,-1,9
 1580 1546 1580 1546 1612 1475 c 128,-1,10
 1644 1404 1644 1404 1657 1320 c 1,11,-1
 1857 1320 l 1,12,-1
 1857 1226 l 1,13,-1
 1665 1226 l 1,14,15
 1666 1219 1666 1219 1666 1212 c 128,-1,16
 1666 1205 1666 1205 1666 1198 c 2,17,-1
 1666 408 l 2,18,19
 1666 337 1666 337 1649.5 271 c 128,-1,20
 1633 205 1633 205 1597 154.5 c 128,-1,21
 1561 104 1561 104 1504 73.5 c 128,-1,22
 1447 43 1447 43 1366 43 c 0,23,24
 1237 43 1237 43 1171.5 107.5 c 128,-1,25
 1106 172 1106 172 1106 298 c 1,26,-1
 1256 298 l 1,27,28
 1256 268 1256 268 1261 247 c 128,-1,29
 1266 226 1266 226 1279 213 c 128,-1,30
 1292 200 1292 200 1313 194 c 128,-1,31
 1334 188 1334 188 1366 188 c 0,32,33
 1405 188 1405 188 1433.5 204 c 128,-1,34
 1462 220 1462 220 1480 249 c 128,-1,35
 1498 278 1498 278 1507 318.5 c 128,-1,36
 1516 359 1516 359 1516 408 c 2,37,-1
 1516 1198 l 2,38,39
 1516 1205 1516 1205 1516 1212 c 128,-1,40
 1516 1219 1516 1219 1515 1226 c 1,41,-1
 908 1226 l 1,42,43
 907 1218 907 1218 906.5 1211.5 c 128,-1,44
 906 1205 906 1205 906 1198 c 0,45,46
 906 1108 906 1108 906 1023 c 128,-1,47
 906 938 906 938 906.5 854.5 c 128,-1,48
 907 771 907 771 907 688 c 128,-1,49
 907 605 907 605 907 521 c 0,50,51
 907 461 907 461 898 398 c 128,-1,52
 889 335 889 335 869 275 c 128,-1,53
 849 215 849 215 816 162 c 128,-1,54
 783 109 783 109 734.5 69 c 128,-1,55
 686 29 686 29 620.5 6 c 128,-1,56
 555 -17 555 -17 471 -17 c 0,57,58
 385 -17 385 -17 315 13.5 c 128,-1,59
 245 44 245 44 195 96 c 128,-1,60
 145 148 145 148 118 218 c 128,-1,61
 91 288 91 288 91 368 c 0,62,63
 91 431 91 431 110.5 492 c 128,-1,64
 130 553 130 553 168.5 601 c 128,-1,65
 207 649 207 649 264 678.5 c 128,-1,66
 321 708 321 708 396 708 c 256,67,68
 471 708 471 708 536 677.5 c 128,-1,69
 601 647 601 647 646 583 c 1,70,-1
 526 498 l 1,71,72
 500 532 500 532 469 547.5 c 128,-1,73
 438 563 438 563 396 563 c 0,74,75
 352 563 352 563 322 544.5 c 128,-1,76
 292 526 292 526 274 497.5 c 128,-1,77
 256 469 256 469 248.5 434.5 c 128,-1,78
 241 400 241 400 241 368 c 0,79,80
 241 315 241 315 258.5 270.5 c 128,-1,81
 276 226 276 226 307 194.5 c 128,-1,82
 338 163 338 163 380 145.5 c 128,-1,83
 422 128 422 128 471 128 c 0,84,85
 559 128 559 128 615 165.5 c 128,-1,86
 671 203 671 203 703.5 263 c 128,-1,87
 736 323 736 323 748.5 397.5 c 128,-1,88
 761 472 761 472 761 546 c 2,89,-1
 761 1203 l 2,90,91
 761 1208 761 1208 761.5 1214 c 128,-1,92
 762 1220 762 1220 763 1226 c 1,93,-1
 -39 1226 l 1,94,-1
 -39 1320 l 1,0,-1
1221 1563 m 0,95,96
 1137 1563 1137 1563 1075 1529 c 128,-1,97
 1013 1495 1013 1495 971 1423 c 0,98,99
 958 1400 958 1400 947.5 1373.5 c 128,-1,100
 937 1347 937 1347 929 1320 c 1,101,-1
 1506 1320 l 1,102,103
 1496 1373 1496 1373 1475.5 1417.5 c 128,-1,104
 1455 1462 1455 1462 1421 1494.5 c 128,-1,105
 1387 1527 1387 1527 1337.5 1545 c 128,-1,106
 1288 1563 1288 1563 1221 1563 c 0,95,96
EndSplineSet
EndChar

StartChar: u11D63
Encoding: 70 73059 70
Width: 2150
GlyphClass: 2
Flags: W
LayerCount: 3
Fore
SplineSet
-39 1320 m 1,0,-1
 769 1320 l 1,1,2
 778 1399 778 1399 800 1470 c 128,-1,3
 822 1541 822 1541 864 1594 c 128,-1,4
 906 1647 906 1647 970.5 1678 c 128,-1,5
 1035 1709 1035 1709 1129 1709 c 0,6,7
 1208 1709 1208 1709 1272 1686.5 c 128,-1,8
 1336 1664 1336 1664 1381 1616.5 c 128,-1,9
 1426 1569 1426 1569 1451 1495.5 c 128,-1,10
 1476 1422 1476 1422 1478 1320 c 1,11,-1
 2167 1320 l 1,12,-1
 2167 1226 l 1,13,-1
 1479 1226 l 1,14,-1
 1479 554 l 1,15,16
 1495 576 1495 576 1519 595 c 128,-1,17
 1543 614 1543 614 1571 627.5 c 128,-1,18
 1599 641 1599 641 1630 648.5 c 128,-1,19
 1661 656 1661 656 1691 656 c 0,20,21
 1763 656 1763 656 1823 628 c 128,-1,22
 1883 600 1883 600 1925.5 550.5 c 128,-1,23
 1968 501 1968 501 1991.5 434.5 c 128,-1,24
 2015 368 2015 368 2015 290 c 0,25,26
 2015 202 2015 202 1984 123.5 c 128,-1,27
 1953 45 1953 45 1889 -16 c 1,28,-1
 1784 89 l 1,29,30
 1826 127 1826 127 1846 175.5 c 128,-1,31
 1866 224 1866 224 1866 278 c 0,32,33
 1866 327 1866 327 1855.5 369.5 c 128,-1,34
 1845 412 1845 412 1823 443 c 128,-1,35
 1801 474 1801 474 1767.5 492 c 128,-1,36
 1734 510 1734 510 1688 510 c 0,37,38
 1641 510 1641 510 1602.5 486.5 c 128,-1,39
 1564 463 1564 463 1536.5 427 c 128,-1,40
 1509 391 1509 391 1494 347.5 c 128,-1,41
 1479 304 1479 304 1479 264 c 2,42,-1
 1479 4 l 1,43,-1
 1334 4 l 1,44,-1
 1334 1226 l 1,45,-1
 908 1226 l 1,46,47
 908 1205 908 1205 908.5 1185 c 128,-1,48
 909 1165 909 1165 909 1145 c 2,49,-1
 909 542 l 2,50,51
 909 479 909 479 900.5 413 c 128,-1,52
 892 347 892 347 872.5 284.5 c 128,-1,53
 853 222 853 222 820.5 166.5 c 128,-1,54
 788 111 788 111 739 69.5 c 128,-1,55
 690 28 690 28 623 3.5 c 128,-1,56
 556 -21 556 -21 469 -21 c 0,57,58
 388 -21 388 -21 319.5 10.5 c 128,-1,59
 251 42 251 42 200.5 95 c 128,-1,60
 150 148 150 148 122 217.5 c 128,-1,61
 94 287 94 287 94 364 c 0,62,63
 94 430 94 430 114.5 492 c 128,-1,64
 135 554 135 554 174 602 c 128,-1,65
 213 650 213 650 268.5 679.5 c 128,-1,66
 324 709 324 709 394 709 c 0,67,68
 473 709 473 709 538.5 676.5 c 128,-1,69
 604 644 604 644 649 584 c 1,70,-1
 529 494 l 1,71,72
 503 528 503 528 469.5 543.5 c 128,-1,73
 436 559 436 559 394 559 c 0,74,75
 353 559 353 559 323.5 542.5 c 128,-1,76
 294 526 294 526 275 498.5 c 128,-1,77
 256 471 256 471 247.5 436 c 128,-1,78
 239 401 239 401 239 364 c 0,79,80
 239 313 239 313 256.5 270 c 128,-1,81
 274 227 274 227 305 195.5 c 128,-1,82
 336 164 336 164 378 146.5 c 128,-1,83
 420 129 420 129 469 129 c 0,84,85
 532 129 532 129 578.5 147.5 c 128,-1,86
 625 166 625 166 658 197.5 c 128,-1,87
 691 229 691 229 711.5 272 c 128,-1,88
 732 315 732 315 743.5 364 c 128,-1,89
 755 413 755 413 759.5 465.5 c 128,-1,90
 764 518 764 518 764 569 c 0,91,92
 764 723 764 723 763 868.5 c 128,-1,93
 762 1014 762 1014 762 1168 c 0,94,95
 762 1182 762 1182 762 1196.5 c 128,-1,96
 762 1211 762 1211 763 1226 c 1,97,-1
 -39 1226 l 1,98,-1
 -39 1320 l 1,0,-1
1129 1571 m 0,99,100
 1065 1571 1065 1571 1024 1550.5 c 128,-1,101
 983 1530 983 1530 958.5 1495.5 c 128,-1,102
 934 1461 934 1461 923.5 1415.5 c 128,-1,103
 913 1370 913 1370 910 1320 c 1,104,-1
 1334 1320 l 1,105,106
 1334 1337 1334 1337 1331.5 1362 c 128,-1,107
 1329 1387 1329 1387 1322 1415 c 128,-1,108
 1315 1443 1315 1443 1301.5 1471 c 128,-1,109
 1288 1499 1288 1499 1265.5 1521 c 128,-1,110
 1243 1543 1243 1543 1209.5 1557 c 128,-1,111
 1176 1571 1176 1571 1129 1571 c 0,99,100
EndSplineSet
EndChar

StartChar: u11D64
Encoding: 71 73060 71
Width: 1672
GlyphClass: 2
Flags: W
LayerCount: 3
Fore
SplineSet
-39 1320 m 1,0,-1
 1677 1320 l 1,1,-1
 1677 1226 l 1,2,-1
 1496 1226 l 1,3,4
 1497 1201 1497 1201 1498.5 1175.5 c 128,-1,5
 1500 1150 1500 1150 1500 1124 c 0,6,7
 1500 1070 1500 1070 1485.5 1023.5 c 128,-1,8
 1471 977 1471 977 1446.5 936 c 128,-1,9
 1422 895 1422 895 1390.5 859 c 128,-1,10
 1359 823 1359 823 1325 789 c 1,11,12
 1372 772 1372 772 1411.5 746.5 c 128,-1,13
 1451 721 1451 721 1479.5 685 c 128,-1,14
 1508 649 1508 649 1524 601.5 c 128,-1,15
 1540 554 1540 554 1540 494 c 256,16,17
 1540 434 1540 434 1518.5 381 c 128,-1,18
 1497 328 1497 328 1459 289 c 128,-1,19
 1421 250 1421 250 1368.5 227 c 128,-1,20
 1316 204 1316 204 1255 204 c 0,21,22
 1196 204 1196 204 1144.5 225 c 128,-1,23
 1093 246 1093 246 1054 283 c 128,-1,24
 1015 320 1015 320 992.5 370 c 128,-1,25
 970 420 970 420 970 479 c 0,26,27
 970 539 970 539 984.5 589.5 c 128,-1,28
 999 640 999 640 1025 689 c 1,29,-1
 798 689 l 1,30,31
 783 637 783 637 752.5 605 c 128,-1,32
 722 573 722 573 681.5 553.5 c 128,-1,33
 641 534 641 534 594.5 523 c 128,-1,34
 548 512 548 512 502 503 c 128,-1,35
 456 494 456 494 413 483.5 c 128,-1,36
 370 473 370 473 337 453.5 c 128,-1,37
 304 434 304 434 284.5 402 c 128,-1,38
 265 370 265 370 265 319 c 0,39,40
 265 274 265 274 291.5 240 c 128,-1,41
 318 206 318 206 358 183.5 c 128,-1,42
 398 161 398 161 444.5 150 c 128,-1,43
 491 139 491 139 530 139 c 0,44,45
 554 139 554 139 582 141.5 c 128,-1,46
 610 144 610 144 638.5 149.5 c 128,-1,47
 667 155 667 155 694 163.5 c 128,-1,48
 721 172 721 172 743 185 c 1,49,-1
 819 60 l 1,50,51
 755 22 755 22 680 5.5 c 128,-1,52
 605 -11 605 -11 540 -11 c 0,53,54
 469 -11 469 -11 393.5 10.5 c 128,-1,55
 318 32 318 32 256 74 c 128,-1,56
 194 116 194 116 154.5 178.5 c 128,-1,57
 115 241 115 241 115 324 c 0,58,59
 115 405 115 405 138.5 457.5 c 128,-1,60
 162 510 162 510 201 543.5 c 128,-1,61
 240 577 240 577 289 595 c 128,-1,62
 338 613 338 613 390 624.5 c 128,-1,63
 442 636 442 636 491 645 c 128,-1,64
 540 654 540 654 579 669 c 128,-1,65
 618 684 618 684 641.5 709.5 c 128,-1,66
 665 735 665 735 665 779 c 0,67,68
 665 815 665 815 645 836.5 c 128,-1,69
 625 858 625 858 593 869.5 c 128,-1,70
 561 881 561 881 519.5 885 c 128,-1,71
 478 889 478 889 435 889 c 2,72,-1
 185 884 l 1,73,-1
 185 1226 l 1,74,-1
 -39 1226 l 1,75,-1
 -39 1320 l 1,0,-1
330 1034 m 1,76,-1
 430 1034 l 2,77,78
 488 1034 488 1034 549.5 1028.5 c 128,-1,79
 611 1023 611 1023 663.5 1002.5 c 128,-1,80
 716 982 716 982 754.5 942.5 c 128,-1,81
 793 903 793 903 805 834 c 1,82,-1
 945 834 l 2,83,84
 999 834 999 834 1050 833.5 c 128,-1,85
 1101 833 1101 833 1150 829 c 1,86,87
 1180 859 1180 859 1216 890.5 c 128,-1,88
 1252 922 1252 922 1282.5 957 c 128,-1,89
 1313 992 1313 992 1334 1032 c 128,-1,90
 1355 1072 1355 1072 1355 1119 c 0,91,92
 1355 1148 1355 1148 1353.5 1174 c 128,-1,93
 1352 1200 1352 1200 1351 1226 c 1,94,-1
 330 1226 l 1,95,-1
 330 1034 l 1,76,-1
1200 674 m 1,96,97
 1158 632 1158 632 1136.5 584 c 128,-1,98
 1115 536 1115 536 1115 479 c 0,99,100
 1115 451 1115 451 1126.5 427 c 128,-1,101
 1138 403 1138 403 1157 386 c 128,-1,102
 1176 369 1176 369 1201.5 359 c 128,-1,103
 1227 349 1227 349 1255 349 c 0,104,105
 1287 349 1287 349 1313 361 c 128,-1,106
 1339 373 1339 373 1357 393.5 c 128,-1,107
 1375 414 1375 414 1385 440 c 128,-1,108
 1395 466 1395 466 1395 494 c 0,109,110
 1395 537 1395 537 1379.5 567 c 128,-1,111
 1364 597 1364 597 1337 618 c 128,-1,112
 1310 639 1310 639 1274.5 652 c 128,-1,113
 1239 665 1239 665 1200 674 c 1,96,97
EndSplineSet
EndChar

StartChar: u11D65
Encoding: 72 73061 72
Width: 1641
GlyphClass: 2
Flags: W
LayerCount: 3
Fore
SplineSet
342 291 m 2,0,1
 330 291 330 291 308.5 291 c 128,-1,2
 287 291 287 291 265.5 285 c 128,-1,3
 244 279 244 279 228 263 c 128,-1,4
 212 247 212 247 212 216 c 0,5,6
 212 188 212 188 244 169.5 c 128,-1,7
 276 151 276 151 321 140.5 c 128,-1,8
 366 130 366 130 414.5 125.5 c 128,-1,9
 463 121 463 121 497 121 c 0,10,11
 576 121 576 121 648 154 c 128,-1,12
 720 187 720 187 777 251 c 1,13,-1
 817 316 l 1,14,-1
 937 236 l 1,15,-1
 902 176 l 2,16,17
 869 119 869 119 818.5 81 c 128,-1,18
 768 43 768 43 708.5 19.5 c 128,-1,19
 649 -4 649 -4 585 -14 c 128,-1,20
 521 -24 521 -24 462 -24 c 0,21,22
 396 -24 396 -24 325.5 -11 c 128,-1,23
 255 2 255 2 196.5 31.5 c 128,-1,24
 138 61 138 61 100 109 c 128,-1,25
 62 157 62 157 62 226 c 0,26,27
 62 254 62 254 71.5 280 c 128,-1,28
 81 306 81 306 97 328 c 128,-1,29
 113 350 113 350 133.5 367.5 c 128,-1,30
 154 385 154 385 177 396 c 1,31,32
 154 419 154 419 145.5 451 c 128,-1,33
 137 483 137 483 137 521 c 0,34,35
 137 573 137 573 158 609.5 c 128,-1,36
 179 646 179 646 213 668.5 c 128,-1,37
 247 691 247 691 289 701 c 128,-1,38
 331 711 331 711 372 711 c 0,39,40
 406 711 406 711 437 706 c 128,-1,41
 468 701 468 701 502 701 c 0,42,43
 524 701 524 701 548 705.5 c 128,-1,44
 572 710 572 710 592 720.5 c 128,-1,45
 612 731 612 731 624.5 749.5 c 128,-1,46
 637 768 637 768 637 796 c 0,47,48
 637 822 637 822 618 838.5 c 128,-1,49
 599 855 599 855 568 864.5 c 128,-1,50
 537 874 537 874 497.5 877.5 c 128,-1,51
 458 881 458 881 417 881 c 0,52,53
 361 881 361 881 309.5 880 c 128,-1,54
 258 879 258 879 232 879 c 2,55,-1
 162 879 l 1,56,-1
 162 1226 l 1,57,-1
 -39 1226 l 1,58,-1
 -39 1320 l 1,59,-1
 1657 1320 l 1,60,-1
 1657 1226 l 1,61,-1
 1473 1226 l 1,62,63
 1474 1204 1474 1204 1475.5 1182 c 128,-1,64
 1477 1160 1477 1160 1477 1136 c 0,65,66
 1477 1079 1477 1079 1463.5 1029.5 c 128,-1,67
 1450 980 1450 980 1426.5 936 c 128,-1,68
 1403 892 1403 892 1371 853.5 c 128,-1,69
 1339 815 1339 815 1302 781 c 1,70,71
 1349 764 1349 764 1388.5 738.5 c 128,-1,72
 1428 713 1428 713 1456.5 677 c 128,-1,73
 1485 641 1485 641 1501 593.5 c 128,-1,74
 1517 546 1517 546 1517 486 c 0,75,76
 1517 424 1517 424 1495 371 c 128,-1,77
 1473 318 1473 318 1434 279 c 128,-1,78
 1395 240 1395 240 1342 218 c 128,-1,79
 1289 196 1289 196 1227 196 c 0,80,81
 1171 196 1171 196 1119.5 217 c 128,-1,82
 1068 238 1068 238 1028.5 275 c 128,-1,83
 989 312 989 312 965.5 362 c 128,-1,84
 942 412 942 412 942 471 c 0,85,86
 942 531 942 531 957 581.5 c 128,-1,87
 972 632 972 632 1002 681 c 1,88,-1
 758 681 l 1,89,90
 739 648 739 648 710.5 624.5 c 128,-1,91
 682 601 682 601 648 585.5 c 128,-1,92
 614 570 614 570 576.5 563 c 128,-1,93
 539 556 539 556 502 556 c 0,94,95
 485 556 485 556 472 557 c 128,-1,96
 459 558 459 558 445.5 558.5 c 128,-1,97
 432 559 432 559 415.5 560 c 128,-1,98
 399 561 399 561 377 561 c 0,99,100
 324 561 324 561 305.5 543 c 128,-1,101
 287 525 287 525 287 491 c 0,102,103
 287 474 287 474 300.5 464 c 128,-1,104
 314 454 314 454 335 448.5 c 128,-1,105
 356 443 356 443 380.5 441.5 c 128,-1,106
 405 440 405 440 428 440 c 0,107,108
 443 440 443 440 456 440.5 c 128,-1,109
 469 441 469 441 477 441 c 2,110,-1
 627 441 l 1,111,-1
 627 291 l 1,112,-1
 342 291 l 2,0,1
1127 821 m 1,113,114
 1164 858 1164 858 1200 890.5 c 128,-1,115
 1236 923 1236 923 1264.5 959 c 128,-1,116
 1293 995 1293 995 1310 1039.5 c 128,-1,117
 1327 1084 1327 1084 1327 1146 c 0,118,119
 1327 1167 1327 1167 1325.5 1186.5 c 128,-1,120
 1324 1206 1324 1206 1323 1226 c 1,121,-1
 307 1226 l 1,122,-1
 307 1026 l 1,123,124
 327 1026 327 1026 352 1026.5 c 128,-1,125
 377 1027 377 1027 405 1027 c 0,126,127
 443 1027 443 1027 485 1024.5 c 128,-1,128
 527 1022 527 1022 567.5 1015 c 128,-1,129
 608 1008 608 1008 645.5 994.5 c 128,-1,130
 683 981 683 981 712.5 958.5 c 128,-1,131
 742 936 742 936 761 903 c 128,-1,132
 780 870 780 870 785 824 c 1,133,134
 830 824 830 824 881 823.5 c 128,-1,135
 932 823 932 823 979 822.5 c 128,-1,136
 1026 822 1026 822 1065.5 821.5 c 128,-1,137
 1105 821 1105 821 1127 821 c 1,113,114
1177 666 m 1,138,139
 1135 624 1135 624 1113.5 576 c 128,-1,140
 1092 528 1092 528 1092 471 c 0,141,142
 1092 443 1092 443 1103.5 419 c 128,-1,143
 1115 395 1115 395 1134 378 c 128,-1,144
 1153 361 1153 361 1178.5 351 c 128,-1,145
 1204 341 1204 341 1232 341 c 0,146,147
 1268 341 1268 341 1293.5 354.5 c 128,-1,148
 1319 368 1319 368 1335.5 389 c 128,-1,149
 1352 410 1352 410 1359.5 436 c 128,-1,150
 1367 462 1367 462 1367 486 c 0,151,152
 1367 529 1367 529 1352 559 c 128,-1,153
 1337 589 1337 589 1311.5 610 c 128,-1,154
 1286 631 1286 631 1251 644 c 128,-1,155
 1216 657 1216 657 1177 666 c 1,138,139
EndSplineSet
EndChar

StartChar: u11D67
Encoding: 73 73063 73
Width: 1602
GlyphClass: 2
Flags: W
LayerCount: 3
Fore
SplineSet
-39 1320 m 1,0,-1
 1296 1320 l 1,1,2
 1276 1383 1276 1383 1200 1410 c 128,-1,3
 1124 1437 1124 1437 992 1437 c 0,4,5
 866 1437 866 1437 778 1459 c 128,-1,6
 690 1481 690 1481 635 1518.5 c 128,-1,7
 580 1556 580 1556 555 1606 c 128,-1,8
 530 1656 530 1656 530 1711 c 0,9,10
 530 1754 530 1754 546.5 1790 c 128,-1,11
 563 1826 563 1826 590.5 1852 c 128,-1,12
 618 1878 618 1878 654.5 1892.5 c 128,-1,13
 691 1907 691 1907 731 1907 c 0,14,15
 772 1907 772 1907 809 1893 c 128,-1,16
 846 1879 846 1879 874.5 1852.5 c 128,-1,17
 903 1826 903 1826 919.5 1789.5 c 128,-1,18
 936 1753 936 1753 936 1708 c 0,19,20
 936 1673 936 1673 920.5 1634.5 c 128,-1,21
 905 1596 905 1596 873 1564 c 1,22,23
 899 1561 899 1561 929 1560 c 128,-1,24
 959 1559 959 1559 994 1559 c 0,25,26
 1100 1559 1100 1559 1174 1542 c 128,-1,27
 1248 1525 1248 1525 1297.5 1493.5 c 128,-1,28
 1347 1462 1347 1462 1376 1418 c 128,-1,29
 1405 1374 1405 1374 1421 1320 c 1,30,-1
 1617 1320 l 1,31,-1
 1617 1226 l 1,32,-1
 1445 1226 l 1,33,-1
 1450 331 l 2,34,35
 1450 256 1450 256 1425.5 195 c 128,-1,36
 1401 134 1401 134 1357 90.5 c 128,-1,37
 1313 47 1313 47 1252.5 23.5 c 128,-1,38
 1192 0 1192 0 1119 0 c 0,39,40
 1069 0 1069 0 1022 9.5 c 128,-1,41
 975 19 975 19 934 38 c 128,-1,42
 893 57 893 57 860 85.5 c 128,-1,43
 827 114 827 114 805 152 c 1,44,45
 751 80 751 80 667.5 40 c 128,-1,46
 584 0 584 0 481 0 c 0,47,48
 401 0 401 0 334 29.5 c 128,-1,49
 267 59 267 59 218.5 109.5 c 128,-1,50
 170 160 170 160 143 228.5 c 128,-1,51
 116 297 116 297 116 375 c 0,52,53
 116 440 116 440 134.5 500 c 128,-1,54
 153 560 153 560 189.5 605.5 c 128,-1,55
 226 651 226 651 280.5 678.5 c 128,-1,56
 335 706 335 706 408 706 c 0,57,58
 486 706 486 706 549 673 c 128,-1,59
 612 640 612 640 663 576 c 1,60,-1
 547 491 l 1,61,62
 519 530 519 530 484.5 547.5 c 128,-1,63
 450 565 450 565 408 565 c 0,64,65
 370 565 370 565 341.5 548.5 c 128,-1,66
 313 532 313 532 294.5 505 c 128,-1,67
 276 478 276 478 267 444 c 128,-1,68
 258 410 258 410 258 375 c 0,69,70
 258 327 258 327 273.5 284 c 128,-1,71
 289 241 289 241 318 209.5 c 128,-1,72
 347 178 347 178 388.5 159.5 c 128,-1,73
 430 141 430 141 481 141 c 0,74,75
 565 141 565 141 619.5 174.5 c 128,-1,76
 674 208 674 208 706.5 260.5 c 128,-1,77
 739 313 739 313 753 378 c 128,-1,78
 767 443 767 443 769 506 c 2,79,-1
 769 730 l 1,80,-1
 910 730 l 1,81,-1
 910 297 l 2,82,83
 910 255 910 255 928 225.5 c 128,-1,84
 946 196 946 196 975 177.5 c 128,-1,85
 1004 159 1004 159 1042 150 c 128,-1,86
 1080 141 1080 141 1119 141 c 0,87,88
 1161 141 1161 141 1196 154 c 128,-1,89
 1231 167 1231 167 1256 191.5 c 128,-1,90
 1281 216 1281 216 1295 251.5 c 128,-1,91
 1309 287 1309 287 1309 331 c 0,92,93
 1308 553 1308 553 1306.5 778 c 128,-1,94
 1305 1003 1305 1003 1304 1226 c 1,95,-1
 -39 1226 l 1,96,-1
 -39 1320 l 1,0,-1
812 1708 m 0,97,98
 812 1746 812 1746 788.5 1768 c 128,-1,99
 765 1790 765 1790 733 1790 c 0,100,101
 715 1790 715 1790 700.5 1782.5 c 128,-1,102
 686 1775 686 1775 675.5 1763.5 c 128,-1,103
 665 1752 665 1752 659.5 1737.5 c 128,-1,104
 654 1723 654 1723 654 1708 c 0,105,106
 654 1669 654 1669 676 1639.5 c 128,-1,107
 698 1610 698 1610 749 1590 c 1,108,109
 782 1621 782 1621 797 1650 c 128,-1,110
 812 1679 812 1679 812 1708 c 0,97,98
EndSplineSet
EndChar

StartChar: u11D68
Encoding: 74 73064 74
Width: 1602
GlyphClass: 2
Flags: W
LayerCount: 3
Fore
SplineSet
-39 1320 m 1,0,-1
 1296 1320 l 1,1,2
 1277 1384 1277 1384 1216.5 1413.5 c 128,-1,3
 1156 1443 1156 1443 1072 1443 c 0,4,5
 1021 1443 1021 1443 975.5 1451.5 c 128,-1,6
 930 1460 930 1460 892 1476 c 1,7,8
 797 1446 797 1446 672 1446 c 0,9,10
 567 1446 567 1446 485.5 1466.5 c 128,-1,11
 404 1487 404 1487 348 1523 c 128,-1,12
 292 1559 292 1559 263 1607.5 c 128,-1,13
 234 1656 234 1656 234 1711 c 0,14,15
 234 1754 234 1754 250 1790 c 128,-1,16
 266 1826 266 1826 293 1852 c 128,-1,17
 320 1878 320 1878 355.5 1892.5 c 128,-1,18
 391 1907 391 1907 431 1907 c 0,19,20
 472 1907 472 1907 508.5 1893 c 128,-1,21
 545 1879 545 1879 572.5 1852.5 c 128,-1,22
 600 1826 600 1826 616 1789.5 c 128,-1,23
 632 1753 632 1753 632 1708 c 0,24,25
 632 1673 632 1673 619 1635.5 c 128,-1,26
 606 1598 606 1598 574 1565 c 1,27,28
 622 1559 622 1559 674 1559 c 0,29,30
 700 1559 700 1559 723.5 1560 c 128,-1,31
 747 1561 747 1561 769 1563 c 1,32,33
 714 1627 714 1627 714 1711 c 0,34,35
 714 1754 714 1754 730 1790 c 128,-1,36
 746 1826 746 1826 773 1852 c 128,-1,37
 800 1878 800 1878 835.5 1892.5 c 128,-1,38
 871 1907 871 1907 911 1907 c 0,39,40
 952 1907 952 1907 988.5 1893 c 128,-1,41
 1025 1879 1025 1879 1052.5 1852.5 c 128,-1,42
 1080 1826 1080 1826 1096 1789.5 c 128,-1,43
 1112 1753 1112 1753 1112 1708 c 0,44,45
 1112 1664 1112 1664 1094.5 1627 c 128,-1,46
 1077 1590 1077 1590 1045 1559 c 1,47,-1
 1074 1559 l 2,48,49
 1147 1559 1147 1559 1204 1542 c 128,-1,50
 1261 1525 1261 1525 1303.5 1493.5 c 128,-1,51
 1346 1462 1346 1462 1375 1418 c 128,-1,52
 1404 1374 1404 1374 1420 1320 c 1,53,-1
 1617 1320 l 1,54,-1
 1617 1226 l 1,55,-1
 1445 1226 l 1,56,-1
 1450 331 l 2,57,58
 1450 256 1450 256 1425.5 195 c 128,-1,59
 1401 134 1401 134 1357 90.5 c 128,-1,60
 1313 47 1313 47 1252.5 23.5 c 128,-1,61
 1192 0 1192 0 1119 0 c 0,62,63
 1069 0 1069 0 1022 9.5 c 128,-1,64
 975 19 975 19 934 38 c 128,-1,65
 893 57 893 57 860 85.5 c 128,-1,66
 827 114 827 114 805 152 c 1,67,68
 751 80 751 80 667.5 40 c 128,-1,69
 584 0 584 0 481 0 c 0,70,71
 401 0 401 0 334 29.5 c 128,-1,72
 267 59 267 59 218.5 109.5 c 128,-1,73
 170 160 170 160 143 228.5 c 128,-1,74
 116 297 116 297 116 375 c 0,75,76
 116 440 116 440 134.5 500 c 128,-1,77
 153 560 153 560 189.5 605.5 c 128,-1,78
 226 651 226 651 280.5 678.5 c 128,-1,79
 335 706 335 706 408 706 c 0,80,81
 486 706 486 706 549 673 c 128,-1,82
 612 640 612 640 663 576 c 1,83,-1
 547 491 l 1,84,85
 519 530 519 530 484.5 547.5 c 128,-1,86
 450 565 450 565 408 565 c 0,87,88
 370 565 370 565 341.5 548.5 c 128,-1,89
 313 532 313 532 294.5 505 c 128,-1,90
 276 478 276 478 267 444 c 128,-1,91
 258 410 258 410 258 375 c 0,92,93
 258 327 258 327 273.5 284 c 128,-1,94
 289 241 289 241 318 209.5 c 128,-1,95
 347 178 347 178 388.5 159.5 c 128,-1,96
 430 141 430 141 481 141 c 0,97,98
 565 141 565 141 619.5 174.5 c 128,-1,99
 674 208 674 208 706.5 260.5 c 128,-1,100
 739 313 739 313 753 378 c 128,-1,101
 767 443 767 443 769 506 c 2,102,-1
 769 730 l 1,103,-1
 910 730 l 1,104,-1
 910 297 l 2,105,106
 910 255 910 255 928 225.5 c 128,-1,107
 946 196 946 196 975 177.5 c 128,-1,108
 1004 159 1004 159 1042 150 c 128,-1,109
 1080 141 1080 141 1119 141 c 0,110,111
 1161 141 1161 141 1196 154 c 128,-1,112
 1231 167 1231 167 1256 191.5 c 128,-1,113
 1281 216 1281 216 1295 251.5 c 128,-1,114
 1309 287 1309 287 1309 331 c 0,115,116
 1308 553 1308 553 1306.5 778 c 128,-1,117
 1305 1003 1305 1003 1304 1226 c 1,118,-1
 -39 1226 l 1,119,-1
 -39 1320 l 1,0,-1
992 1708 m 0,120,121
 992 1746 992 1746 968.5 1768 c 128,-1,122
 945 1790 945 1790 913 1790 c 0,123,124
 895 1790 895 1790 880.5 1782.5 c 128,-1,125
 866 1775 866 1775 855.5 1763.5 c 128,-1,126
 845 1752 845 1752 839.5 1737.5 c 128,-1,127
 834 1723 834 1723 834 1708 c 0,128,129
 834 1670 834 1670 850 1641 c 128,-1,130
 866 1612 866 1612 901 1592 c 1,131,132
 949 1612 949 1612 970.5 1641.5 c 128,-1,133
 992 1671 992 1671 992 1708 c 0,120,121
512 1708 m 0,134,135
 512 1746 512 1746 488.5 1768 c 128,-1,136
 465 1790 465 1790 433 1790 c 0,137,138
 415 1790 415 1790 400.5 1782.5 c 128,-1,139
 386 1775 386 1775 375.5 1763.5 c 128,-1,140
 365 1752 365 1752 359.5 1737.5 c 128,-1,141
 354 1723 354 1723 354 1708 c 0,142,143
 354 1672 354 1672 381.5 1644.5 c 128,-1,144
 409 1617 409 1617 456 1597 c 1,145,146
 485 1626 485 1626 498.5 1653.5 c 128,-1,147
 512 1681 512 1681 512 1708 c 0,134,135
EndSplineSet
EndChar

StartChar: u11D6A
Encoding: 75 73066 75
Width: 2148
GlyphClass: 2
Flags: W
LayerCount: 3
Fore
SplineSet
-39 1320 m 1,0,-1
 1370 1320 l 1,1,2
 1356 1354 1356 1354 1327.5 1376.5 c 128,-1,3
 1299 1399 1299 1399 1264 1412.5 c 128,-1,4
 1229 1426 1229 1426 1191.5 1432 c 128,-1,5
 1154 1438 1154 1438 1122 1440.5 c 128,-1,6
 1090 1443 1090 1443 1067.5 1442.5 c 128,-1,7
 1045 1442 1045 1442 1040 1442 c 0,8,9
 1007 1442 1007 1442 963 1445 c 128,-1,10
 919 1448 919 1448 872 1457 c 128,-1,11
 825 1466 825 1466 779.5 1482.5 c 128,-1,12
 734 1499 734 1499 698 1526 c 128,-1,13
 662 1553 662 1553 640 1592.5 c 128,-1,14
 618 1632 618 1632 618 1686 c 0,15,16
 618 1721 618 1721 632 1749 c 128,-1,17
 646 1777 646 1777 669 1797 c 128,-1,18
 692 1817 692 1817 721.5 1827.5 c 128,-1,19
 751 1838 751 1838 782 1838 c 0,20,21
 817 1838 817 1838 847 1825.5 c 128,-1,22
 877 1813 877 1813 899 1791 c 128,-1,23
 921 1769 921 1769 933.5 1739 c 128,-1,24
 946 1709 946 1709 946 1674 c 0,25,26
 946 1632 946 1632 930 1606 c 128,-1,27
 914 1580 914 1580 888 1554 c 1,28,29
 910 1548 910 1548 943.5 1544.5 c 128,-1,30
 977 1541 977 1541 1013.5 1538.5 c 128,-1,31
 1050 1536 1050 1536 1085 1535 c 128,-1,32
 1120 1534 1120 1534 1146 1533 c 0,33,34
 1202 1530 1202 1530 1259.5 1516.5 c 128,-1,35
 1317 1503 1317 1503 1365.5 1477 c 128,-1,36
 1414 1451 1414 1451 1449.5 1412 c 128,-1,37
 1485 1373 1485 1373 1498 1320 c 1,38,-1
 2173 1320 l 1,39,-1
 2173 1226 l 1,40,-1
 1478 1226 l 1,41,-1
 1478 980 l 1,42,43
 1524 1000 1524 1000 1578 1010 c 128,-1,44
 1632 1020 1632 1020 1692 1020 c 0,45,46
 1763 1020 1763 1020 1825 993 c 128,-1,47
 1887 966 1887 966 1933 919.5 c 128,-1,48
 1979 873 1979 873 2005.5 811 c 128,-1,49
 2032 749 2032 749 2032 679 c 0,50,51
 2032 614 2032 614 2007.5 557.5 c 128,-1,52
 1983 501 1983 501 1941 459.5 c 128,-1,53
 1899 418 1899 418 1843 394 c 128,-1,54
 1787 370 1787 370 1724 370 c 0,55,56
 1655 370 1655 370 1598.5 392.5 c 128,-1,57
 1542 415 1542 415 1498.5 453.5 c 128,-1,58
 1455 492 1455 492 1423.5 543 c 128,-1,59
 1392 594 1392 594 1373 650 c 1,60,61
 1366 623 1366 623 1362.5 593.5 c 128,-1,62
 1359 564 1359 564 1359 531 c 0,63,64
 1359 505 1359 505 1361 479 c 128,-1,65
 1363 453 1363 453 1363 427 c 0,66,67
 1363 344 1363 344 1346.5 269 c 128,-1,68
 1330 194 1330 194 1293.5 135.5 c 128,-1,69
 1257 77 1257 77 1199.5 40.5 c 128,-1,70
 1142 4 1142 4 1060 0 c 1,71,-1
 1059 0 l 2,72,73
 1056 0 1056 0 1053 -0.5 c 128,-1,74
 1050 -1 1050 -1 1048 -1 c 2,75,-1
 1039 -1 l 2,76,77
 945 -1 945 -1 874.5 39 c 128,-1,78
 804 79 804 79 764 152 c 1,79,80
 710 80 710 80 627 40 c 128,-1,81
 544 0 544 0 441 0 c 0,82,83
 361 0 361 0 294 29.5 c 128,-1,84
 227 59 227 59 178.5 109.5 c 128,-1,85
 130 160 130 160 103 228.5 c 128,-1,86
 76 297 76 297 76 375 c 0,87,88
 76 440 76 440 94 500 c 128,-1,89
 112 560 112 560 148.5 605.5 c 128,-1,90
 185 651 185 651 239.5 678.5 c 128,-1,91
 294 706 294 706 368 706 c 0,92,93
 446 706 446 706 508.5 673 c 128,-1,94
 571 640 571 640 622 576 c 1,95,-1
 506 491 l 1,96,97
 478 530 478 530 444 547.5 c 128,-1,98
 410 565 410 565 368 565 c 0,99,100
 330 565 330 565 301.5 548.5 c 128,-1,101
 273 532 273 532 254 505 c 128,-1,102
 235 478 235 478 226 444 c 128,-1,103
 217 410 217 410 217 375 c 0,104,105
 217 327 217 327 232.5 284 c 128,-1,106
 248 241 248 241 277.5 209.5 c 128,-1,107
 307 178 307 178 348.5 159.5 c 128,-1,108
 390 141 390 141 441 141 c 0,109,110
 525 141 525 141 579.5 174.5 c 128,-1,111
 634 208 634 208 666.5 260.5 c 128,-1,112
 699 313 699 313 712.5 378 c 128,-1,113
 726 443 726 443 728 506 c 2,114,-1
 728 730 l 1,115,-1
 869 730 l 1,116,-1
 869 297 l 2,117,118
 869 259 869 259 881.5 229.5 c 128,-1,119
 894 200 894 200 916 180 c 128,-1,120
 938 160 938 160 967.5 149.5 c 128,-1,121
 997 139 997 139 1032 139 c 0,122,123
 1092 139 1092 139 1129.5 162 c 128,-1,124
 1167 185 1167 185 1188 224 c 128,-1,125
 1209 263 1209 263 1216.5 314 c 128,-1,126
 1224 365 1224 365 1224 421 c 0,127,128
 1224 456 1224 456 1221.5 492 c 128,-1,129
 1219 528 1219 528 1219 563 c 0,130,131
 1219 663 1219 663 1250.5 741.5 c 128,-1,132
 1282 820 1282 820 1336 880 c 1,133,-1
 1336 1226 l 1,134,-1
 -39 1226 l 1,135,-1
 -39 1320 l 1,0,-1
1692 879 m 0,136,137
 1623 879 1623 879 1571.5 864 c 128,-1,138
 1520 849 1520 849 1482 823 c 1,139,140
 1487 769 1487 769 1502.5 714 c 128,-1,141
 1518 659 1518 659 1546.5 614 c 128,-1,142
 1575 569 1575 569 1618 540.5 c 128,-1,143
 1661 512 1661 512 1722 512 c 0,144,145
 1756 512 1756 512 1786 525 c 128,-1,146
 1816 538 1816 538 1838.5 560.5 c 128,-1,147
 1861 583 1861 583 1873.5 613.5 c 128,-1,148
 1886 644 1886 644 1886 679 c 0,149,150
 1886 721 1886 721 1871 757.5 c 128,-1,151
 1856 794 1856 794 1830 821 c 128,-1,152
 1804 848 1804 848 1768.5 863.5 c 128,-1,153
 1733 879 1733 879 1692 879 c 0,136,137
736 1683 m 0,154,155
 736 1671 736 1671 738.5 1658 c 128,-1,156
 741 1645 741 1645 747.5 1633 c 128,-1,157
 754 1621 754 1621 765 1611 c 128,-1,158
 776 1601 776 1601 794 1595 c 1,159,160
 818 1602 818 1602 834 1621.5 c 128,-1,161
 850 1641 850 1641 850 1683 c 0,162,163
 850 1705 850 1705 831.5 1720 c 128,-1,164
 813 1735 813 1735 791 1735 c 256,165,166
 769 1735 769 1735 752.5 1720 c 128,-1,167
 736 1705 736 1705 736 1683 c 0,154,155
EndSplineSet
EndChar

StartChar: u11D6B
Encoding: 76 73067 76
Width: 2148
GlyphClass: 2
Flags: W
LayerCount: 3
Fore
SplineSet
-1 1320 m 1,0,-1
 1369 1320 l 1,1,-1
 1364 1334 l 2,2,3
 1344 1383 1344 1383 1311.5 1411 c 128,-1,4
 1279 1439 1279 1439 1239.5 1454 c 128,-1,5
 1200 1469 1200 1469 1157 1474.5 c 128,-1,6
 1114 1480 1114 1480 1072.5 1484.5 c 128,-1,7
 1031 1489 1031 1489 994 1496.5 c 128,-1,8
 957 1504 957 1504 931 1522 c 1,9,10
 877 1495 877 1495 818 1479 c 128,-1,11
 759 1463 759 1463 696 1463 c 0,12,13
 628 1463 628 1463 568 1483.5 c 128,-1,14
 508 1504 508 1504 463 1539 c 128,-1,15
 418 1574 418 1574 391.5 1621 c 128,-1,16
 365 1668 365 1668 365 1721 c 0,17,18
 365 1756 365 1756 377.5 1786 c 128,-1,19
 390 1816 390 1816 412.5 1838 c 128,-1,20
 435 1860 435 1860 465.5 1872.5 c 128,-1,21
 496 1885 496 1885 532 1885 c 0,22,23
 567 1885 567 1885 595.5 1872.5 c 128,-1,24
 624 1860 624 1860 644 1838 c 128,-1,25
 664 1816 664 1816 674.5 1786 c 128,-1,26
 685 1756 685 1756 685 1721 c 0,27,28
 685 1685 685 1685 667 1647.5 c 128,-1,29
 649 1610 649 1610 614 1592 c 1,30,31
 640 1583 640 1583 659.5 1577 c 128,-1,32
 679 1571 679 1571 696 1571 c 0,33,34
 731 1571 731 1571 763.5 1575 c 128,-1,35
 796 1579 796 1579 831 1595 c 1,36,37
 809 1628 809 1628 798 1655.5 c 128,-1,38
 787 1683 787 1683 787 1721 c 0,39,40
 787 1756 787 1756 799.5 1786 c 128,-1,41
 812 1816 812 1816 834.5 1838 c 128,-1,42
 857 1860 857 1860 887.5 1872.5 c 128,-1,43
 918 1885 918 1885 954 1885 c 0,44,45
 989 1885 989 1885 1017.5 1872.5 c 128,-1,46
 1046 1860 1046 1860 1066 1838 c 128,-1,47
 1086 1816 1086 1816 1096.5 1786 c 128,-1,48
 1107 1756 1107 1756 1107 1721 c 256,49,50
 1107 1686 1107 1686 1090.5 1652 c 128,-1,51
 1074 1618 1074 1618 1048 1592 c 1,52,53
 1093 1592 1093 1592 1156.5 1580 c 128,-1,54
 1220 1568 1220 1568 1283 1541 c 128,-1,55
 1346 1514 1346 1514 1397.5 1471.5 c 128,-1,56
 1449 1429 1449 1429 1470 1369 c 2,57,-1
 1489 1320 l 1,58,-1
 2208 1320 l 1,59,-1
 2208 1227 l 1,60,-1
 1478 1227 l 1,61,-1
 1478 980 l 1,62,63
 1524 1000 1524 1000 1578 1010 c 128,-1,64
 1632 1020 1632 1020 1692 1020 c 0,65,66
 1763 1020 1763 1020 1825 993 c 128,-1,67
 1887 966 1887 966 1933 919.5 c 128,-1,68
 1979 873 1979 873 2005.5 811 c 128,-1,69
 2032 749 2032 749 2032 679 c 0,70,71
 2032 614 2032 614 2007.5 557.5 c 128,-1,72
 1983 501 1983 501 1941 459.5 c 128,-1,73
 1899 418 1899 418 1843 394 c 128,-1,74
 1787 370 1787 370 1724 370 c 0,75,76
 1655 370 1655 370 1598.5 392.5 c 128,-1,77
 1542 415 1542 415 1498.5 453.5 c 128,-1,78
 1455 492 1455 492 1423.5 543 c 128,-1,79
 1392 594 1392 594 1373 650 c 1,80,81
 1366 623 1366 623 1362.5 593.5 c 128,-1,82
 1359 564 1359 564 1359 531 c 0,83,84
 1359 505 1359 505 1361 479 c 128,-1,85
 1363 453 1363 453 1363 427 c 0,86,87
 1363 344 1363 344 1346.5 269 c 128,-1,88
 1330 194 1330 194 1293.5 135.5 c 128,-1,89
 1257 77 1257 77 1199.5 40.5 c 128,-1,90
 1142 4 1142 4 1060 0 c 1,91,-1
 1059 0 l 2,92,93
 1056 0 1056 0 1053 -0.5 c 128,-1,94
 1050 -1 1050 -1 1048 -1 c 2,95,-1
 1039 -1 l 2,96,97
 945 -1 945 -1 874.5 39 c 128,-1,98
 804 79 804 79 764 152 c 1,99,100
 710 80 710 80 627 40 c 128,-1,101
 544 0 544 0 441 0 c 0,102,103
 361 0 361 0 294 29.5 c 128,-1,104
 227 59 227 59 178.5 109.5 c 128,-1,105
 130 160 130 160 103 228.5 c 128,-1,106
 76 297 76 297 76 375 c 0,107,108
 76 440 76 440 94 500 c 128,-1,109
 112 560 112 560 148.5 605.5 c 128,-1,110
 185 651 185 651 239.5 678.5 c 128,-1,111
 294 706 294 706 368 706 c 0,112,113
 446 706 446 706 508.5 673 c 128,-1,114
 571 640 571 640 622 576 c 1,115,-1
 506 491 l 1,116,117
 478 530 478 530 444 547.5 c 128,-1,118
 410 565 410 565 368 565 c 0,119,120
 330 565 330 565 301.5 548.5 c 128,-1,121
 273 532 273 532 254 505 c 128,-1,122
 235 478 235 478 226 444 c 128,-1,123
 217 410 217 410 217 375 c 0,124,125
 217 327 217 327 232.5 284 c 128,-1,126
 248 241 248 241 277.5 209.5 c 128,-1,127
 307 178 307 178 348.5 159.5 c 128,-1,128
 390 141 390 141 441 141 c 0,129,130
 525 141 525 141 579.5 174.5 c 128,-1,131
 634 208 634 208 666.5 260.5 c 128,-1,132
 699 313 699 313 712.5 378 c 128,-1,133
 726 443 726 443 728 506 c 2,134,-1
 728 730 l 1,135,-1
 869 730 l 1,136,-1
 869 297 l 2,137,138
 869 259 869 259 881.5 229.5 c 128,-1,139
 894 200 894 200 916 180 c 128,-1,140
 938 160 938 160 967.5 149.5 c 128,-1,141
 997 139 997 139 1032 139 c 0,142,143
 1092 139 1092 139 1129.5 162 c 128,-1,144
 1167 185 1167 185 1188 224 c 128,-1,145
 1209 263 1209 263 1216.5 314 c 128,-1,146
 1224 365 1224 365 1224 421 c 0,147,148
 1224 456 1224 456 1221.5 492 c 128,-1,149
 1219 528 1219 528 1219 563 c 0,150,151
 1219 663 1219 663 1250.5 741.5 c 128,-1,152
 1282 820 1282 820 1336 880 c 1,153,-1
 1336 1227 l 1,154,-1
 -1 1227 l 1,155,-1
 -1 1320 l 1,0,-1
1692 879 m 0,156,157
 1623 879 1623 879 1571.5 864 c 128,-1,158
 1520 849 1520 849 1482 823 c 1,159,160
 1487 769 1487 769 1502.5 714 c 128,-1,161
 1518 659 1518 659 1546.5 614 c 128,-1,162
 1575 569 1575 569 1618 540.5 c 128,-1,163
 1661 512 1661 512 1722 512 c 0,164,165
 1756 512 1756 512 1786 525 c 128,-1,166
 1816 538 1816 538 1838.5 560.5 c 128,-1,167
 1861 583 1861 583 1873.5 613.5 c 128,-1,168
 1886 644 1886 644 1886 679 c 0,169,170
 1886 721 1886 721 1871 757.5 c 128,-1,171
 1856 794 1856 794 1830 821 c 128,-1,172
 1804 848 1804 848 1768.5 863.5 c 128,-1,173
 1733 879 1733 879 1692 879 c 0,156,157
521 1642 m 1,174,175
 534 1643 534 1643 545 1650 c 128,-1,176
 556 1657 556 1657 563.5 1668 c 128,-1,177
 571 1679 571 1679 575 1693 c 128,-1,178
 579 1707 579 1707 579 1721 c 0,179,180
 579 1745 579 1745 562.5 1760.5 c 128,-1,181
 546 1776 546 1776 523 1776 c 0,182,183
 497 1776 497 1776 484 1757 c 128,-1,184
 471 1738 471 1738 471 1712 c 0,185,186
 471 1695 471 1695 484.5 1672.5 c 128,-1,187
 498 1650 498 1650 521 1642 c 1,174,175
931 1653 m 1,188,189
 953 1655 953 1655 966.5 1664 c 128,-1,190
 980 1673 980 1673 987.5 1684.5 c 128,-1,191
 995 1696 995 1696 998 1706.5 c 128,-1,192
 1001 1717 1001 1717 1001 1721 c 0,193,194
 1001 1738 1001 1738 986.5 1753 c 128,-1,195
 972 1768 972 1768 954 1768 c 0,196,197
 928 1768 928 1768 916 1751.5 c 128,-1,198
 904 1735 904 1735 904 1709 c 0,199,200
 904 1692 904 1692 913 1677 c 128,-1,201
 922 1662 922 1662 931 1653 c 1,188,189
EndSplineSet
EndChar

StartChar: u11D97
Encoding: 77 73111 77
Width: 0
GlyphClass: 2
Flags: W
LayerCount: 3
Fore
SplineSet
-277 -30 m 1,0,-1
 91 -317 l 1,1,-1
 8 -421 l 1,2,-1
 -360 -134 l 1,3,-1
 -277 -30 l 1,0,-1
EndSplineSet
EndChar

StartChar: u11F0B
Encoding: 78 58123 78
Width: 1042
GlyphClass: 2
Flags: W
LayerCount: 3
Fore
SplineSet
127 0 m 1,0,-1
 127 1339 l 1,1,-1
 906 1339 l 1,2,-1
 906 0 l 1,3,-1
 127 0 l 1,0,-1
259 127 m 1,4,-1
 779 127 l 1,5,-1
 779 1211 l 1,6,-1
 259 1211 l 1,7,-1
 259 127 l 1,4,-1
EndSplineSet
EndChar

StartChar: u11F0C
Encoding: 79 58124 79
Width: 1042
GlyphClass: 2
Flags: W
LayerCount: 3
Fore
SplineSet
127 0 m 1,0,-1
 127 1339 l 1,1,-1
 906 1339 l 1,2,-1
 906 0 l 1,3,-1
 127 0 l 1,0,-1
259 127 m 1,4,-1
 779 127 l 1,5,-1
 779 1211 l 1,6,-1
 259 1211 l 1,7,-1
 259 127 l 1,4,-1
EndSplineSet
EndChar

StartChar: u11D71
Encoding: 80 73073 80
Width: 2171
GlyphClass: 2
Flags: W
AnchorPoint: "M" 1959 1322 basechar 0
AnchorPoint: "L" 0 0 basechar 0
AnchorPoint: "U" 2169 0 basechar 0
LayerCount: 3
Fore
SplineSet
-39 1320 m 1,0,-1
 888 1320 l 1,1,2
 843 1386 843 1386 771 1425 c 128,-1,3
 699 1464 699 1464 599 1464 c 0,4,5
 566 1464 566 1464 531 1457.5 c 128,-1,6
 496 1451 496 1451 462.5 1438.5 c 128,-1,7
 429 1426 429 1426 399.5 1408.5 c 128,-1,8
 370 1391 370 1391 349 1369 c 1,9,-1
 239 1464 l 1,10,11
 269 1498 269 1498 310 1524.5 c 128,-1,12
 351 1551 351 1551 397.5 1570 c 128,-1,13
 444 1589 444 1589 493 1599 c 128,-1,14
 542 1609 542 1609 589 1609 c 0,15,16
 674 1609 674 1609 747 1588 c 128,-1,17
 820 1567 820 1567 878.5 1529 c 128,-1,18
 937 1491 937 1491 981.5 1437.5 c 128,-1,19
 1026 1384 1026 1384 1056 1320 c 1,20,-1
 2217 1320 l 1,21,-1
 2217 1226 l 1,22,-1
 2034 1226 l 1,23,24
 2034 1169 2034 1169 2003.5 1122 c 128,-1,25
 1973 1075 1973 1075 1924 1034.5 c 128,-1,26
 1875 994 1875 994 1812.5 958.5 c 128,-1,27
 1750 923 1750 923 1685 888 c 1,28,29
 1767 818 1767 818 1818 723.5 c 128,-1,30
 1869 629 1869 629 1869 509 c 0,31,32
 1869 441 1869 441 1843.5 381 c 128,-1,33
 1818 321 1818 321 1774 276 c 128,-1,34
 1730 231 1730 231 1670.5 205 c 128,-1,35
 1611 179 1611 179 1544 179 c 0,36,37
 1462 179 1462 179 1396.5 208 c 128,-1,38
 1331 237 1331 237 1285 286.5 c 128,-1,39
 1239 336 1239 336 1214 402.5 c 128,-1,40
 1189 469 1189 469 1189 544 c 0,41,42
 1189 602 1189 602 1206.5 652 c 128,-1,43
 1224 702 1224 702 1254 744 c 128,-1,44
 1284 786 1284 786 1324.5 821.5 c 128,-1,45
 1365 857 1365 857 1411 888 c 1,46,47
 1272 940 1272 940 1099 949 c 1,48,49
 1080 870 1080 870 1037 799 c 128,-1,50
 994 728 994 728 934 679 c 1,51,52
 971 658 971 658 1003 629 c 128,-1,53
 1035 600 1035 600 1058.5 564 c 128,-1,54
 1082 528 1082 528 1095.5 484 c 128,-1,55
 1109 440 1109 440 1109 389 c 0,56,57
 1109 303 1109 303 1076.5 229.5 c 128,-1,58
 1044 156 1044 156 988.5 102.5 c 128,-1,59
 933 49 933 49 858 19 c 128,-1,60
 783 -11 783 -11 699 -11 c 0,61,62
 577 -11 577 -11 479.5 26 c 128,-1,63
 382 63 382 63 313.5 128.5 c 128,-1,64
 245 194 245 194 206.5 282.5 c 128,-1,65
 168 371 168 371 164 474 c 1,66,67
 164 594 164 594 198 687 c 128,-1,68
 232 780 232 780 290 849.5 c 128,-1,69
 348 919 348 919 426.5 966.5 c 128,-1,70
 505 1014 505 1014 593 1043.5 c 128,-1,71
 681 1073 681 1073 775 1086 c 128,-1,72
 869 1099 869 1099 959 1099 c 1,73,74
 956 1133 956 1133 950 1164.5 c 128,-1,75
 944 1196 944 1196 933 1226 c 1,76,-1
 -39 1226 l 1,77,-1
 -39 1320 l 1,0,-1
944 949 m 1,78,79
 868 948 868 948 791 938 c 128,-1,80
 714 928 714 928 643.5 905.5 c 128,-1,81
 573 883 573 883 512 847.5 c 128,-1,82
 451 812 451 812 406 760 c 128,-1,83
 361 708 361 708 335 638.5 c 128,-1,84
 309 569 309 569 309 479 c 1,85,86
 313 404 313 404 341.5 340.5 c 128,-1,87
 370 277 370 277 420 231.5 c 128,-1,88
 470 186 470 186 540.5 160 c 128,-1,89
 611 134 611 134 699 134 c 0,90,91
 753 134 753 134 801.5 152.5 c 128,-1,92
 850 171 850 171 886 205 c 128,-1,93
 922 239 922 239 943 286 c 128,-1,94
 964 333 964 333 964 389 c 0,95,96
 964 443 964 443 939.5 483 c 128,-1,97
 915 523 915 523 876.5 549 c 128,-1,98
 838 575 838 575 791 587.5 c 128,-1,99
 744 600 744 600 699 600 c 1,100,-1
 700 718 l 1,101,102
 747 722 747 722 786 743 c 128,-1,103
 825 764 825 764 855.5 796 c 128,-1,104
 886 828 886 828 908.5 868 c 128,-1,105
 931 908 931 908 944 949 c 1,78,79
1334 544 m 0,106,107
 1334 497 1334 497 1348 457 c 128,-1,108
 1362 417 1362 417 1388 387.5 c 128,-1,109
 1414 358 1414 358 1452.5 341 c 128,-1,110
 1491 324 1491 324 1539 324 c 0,111,112
 1576 324 1576 324 1609 338.5 c 128,-1,113
 1642 353 1642 353 1666.5 378.5 c 128,-1,114
 1691 404 1691 404 1705 440 c 128,-1,115
 1719 476 1719 476 1719 519 c 0,116,117
 1719 611 1719 611 1674.5 685 c 128,-1,118
 1630 759 1630 759 1552 814 c 1,119,120
 1507 787 1507 787 1467 757.5 c 128,-1,121
 1427 728 1427 728 1397.5 695 c 128,-1,122
 1368 662 1368 662 1351 624.5 c 128,-1,123
 1334 587 1334 587 1334 544 c 0,106,107
1109 1099 m 1,124,125
 1158 1099 1158 1099 1214 1091 c 128,-1,126
 1270 1083 1270 1083 1329 1067.5 c 128,-1,127
 1388 1052 1388 1052 1447 1028.5 c 128,-1,128
 1506 1005 1506 1005 1562 974 c 1,129,130
 1623 1006 1623 1006 1681 1035 c 128,-1,131
 1739 1064 1739 1064 1783.5 1094 c 128,-1,132
 1828 1124 1828 1124 1855.5 1156 c 128,-1,133
 1883 1188 1883 1188 1883 1226 c 1,134,-1
 1089 1226 l 1,135,136
 1097 1195 1097 1195 1102 1163.5 c 128,-1,137
 1107 1132 1107 1132 1109 1099 c 1,124,125
EndSplineSet
EndChar

StartChar: u11D72
Encoding: 81 73074 81
Width: 1999
GlyphClass: 2
Flags: W
AnchorPoint: "M" 1789 1318 basechar 0
AnchorPoint: "L" 0 0 basechar 0
AnchorPoint: "U" 2007 0 basechar 0
LayerCount: 3
Fore
SplineSet
1202 752 m 1,0,1
 1247 791 1247 791 1300.5 831 c 128,-1,2
 1354 871 1354 871 1408.5 911.5 c 128,-1,3
 1463 952 1463 952 1515 992.5 c 128,-1,4
 1567 1033 1567 1033 1609 1072.5 c 128,-1,5
 1651 1112 1651 1112 1679.5 1150.5 c 128,-1,6
 1708 1189 1708 1189 1715 1226 c 1,7,-1
 -18 1226 l 1,8,-1
 -18 1320 l 1,9,-1
 2034 1320 l 1,10,-1
 2034 1226 l 1,11,-1
 1861 1226 l 1,12,13
 1858 1180 1858 1180 1836 1135.5 c 128,-1,14
 1814 1091 1814 1091 1777.5 1048 c 128,-1,15
 1741 1005 1741 1005 1693.5 964 c 128,-1,16
 1646 923 1646 923 1593.5 883.5 c 128,-1,17
 1541 844 1541 844 1486 806.5 c 128,-1,18
 1431 769 1431 769 1380 733 c 1,19,20
 1451 718 1451 718 1513 688.5 c 128,-1,21
 1575 659 1575 659 1621.5 613 c 128,-1,22
 1668 567 1668 567 1695 502 c 128,-1,23
 1722 437 1722 437 1722 352 c 0,24,25
 1722 285 1722 285 1700 225 c 128,-1,26
 1678 165 1678 165 1638.5 120 c 128,-1,27
 1599 75 1599 75 1542.5 48.5 c 128,-1,28
 1486 22 1486 22 1417 22 c 0,29,30
 1337 22 1337 22 1275 50 c 128,-1,31
 1213 78 1213 78 1171 127 c 128,-1,32
 1129 176 1129 176 1107.5 243.5 c 128,-1,33
 1086 311 1086 311 1086 391 c 0,34,35
 1086 448 1086 448 1095.5 499.5 c 128,-1,36
 1105 551 1105 551 1122 597 c 1,37,38
 1053 589 1053 589 992.5 571 c 128,-1,39
 932 553 932 553 887 527 c 1,40,-1
 882 536 l 1,41,42
 880 483 880 483 869.5 432.5 c 128,-1,43
 859 382 859 382 842 332 c 1,44,45
 876 291 876 291 905 244 c 128,-1,46
 934 197 934 197 959.5 147 c 128,-1,47
 985 97 985 97 1006.5 46 c 128,-1,48
 1028 -5 1028 -5 1047 -53 c 1,49,-1
 912 -103 l 1,50,51
 886 -34 886 -34 849 42 c 128,-1,52
 812 118 812 118 767 187 c 1,53,54
 738 148 738 148 700 114 c 128,-1,55
 662 80 662 80 617.5 55 c 128,-1,56
 573 30 573 30 523.5 16 c 128,-1,57
 474 2 474 2 422 2 c 0,58,59
 361 2 361 2 302 21.5 c 128,-1,60
 243 41 243 41 196 77 c 128,-1,61
 149 113 149 113 120 165 c 128,-1,62
 91 217 91 217 91 282 c 0,63,64
 91 354 91 354 119.5 406.5 c 128,-1,65
 148 459 148 459 194.5 493.5 c 128,-1,66
 241 528 241 528 300.5 545 c 128,-1,67
 360 562 360 562 422 562 c 0,68,69
 513 562 513 562 587.5 534 c 128,-1,70
 662 506 662 506 722 457 c 1,71,72
 730 480 730 480 731 504.5 c 128,-1,73
 732 529 732 529 732 552 c 0,74,75
 732 617 732 617 712.5 687.5 c 128,-1,76
 693 758 693 758 655 817 c 128,-1,77
 617 876 617 876 562 914 c 128,-1,78
 507 952 507 952 437 952 c 0,79,80
 409 952 409 952 380.5 946 c 128,-1,81
 352 940 352 940 329 927 c 128,-1,82
 306 914 306 914 291.5 894.5 c 128,-1,83
 277 875 277 875 277 847 c 0,84,85
 277 809 277 809 305.5 788 c 128,-1,86
 334 767 334 767 372 767 c 0,87,88
 385 767 385 767 401 771 c 128,-1,89
 417 775 417 775 430.5 783 c 128,-1,90
 444 791 444 791 453 802 c 128,-1,91
 462 813 462 813 462 827 c 1,92,-1
 607 827 l 1,93,94
 607 778 607 778 585.5 739 c 128,-1,95
 564 700 564 700 530 673 c 128,-1,96
 496 646 496 646 454 631.5 c 128,-1,97
 412 617 412 617 372 617 c 0,98,99
 330 617 330 617 287 632 c 128,-1,100
 244 647 244 647 209.5 675.5 c 128,-1,101
 175 704 175 704 153 745.5 c 128,-1,102
 131 787 131 787 131 841 c 0,103,104
 131 905 131 905 156.5 953 c 128,-1,105
 182 1001 182 1001 224.5 1033 c 128,-1,106
 267 1065 267 1065 322.5 1081 c 128,-1,107
 378 1097 378 1097 437 1097 c 0,108,109
 525 1097 525 1097 597 1062 c 128,-1,110
 669 1027 669 1027 723.5 969 c 128,-1,111
 778 911 778 911 814.5 836 c 128,-1,112
 851 761 851 761 868 682 c 1,113,114
 946 717 946 717 1031.5 734.5 c 128,-1,115
 1117 752 1117 752 1202 752 c 1,0,1
1287 602 m 1,116,117
 1261 548 1261 548 1246.5 491 c 128,-1,118
 1232 434 1232 434 1232 362 c 0,119,120
 1236 276 1236 276 1281.5 224 c 128,-1,121
 1327 172 1327 172 1417 172 c 0,122,123
 1451 172 1451 172 1480 185 c 128,-1,124
 1509 198 1509 198 1530.5 220 c 128,-1,125
 1552 242 1552 242 1564.5 271 c 128,-1,126
 1577 300 1577 300 1577 332 c 0,127,128
 1577 398 1577 398 1554.5 446 c 128,-1,129
 1532 494 1532 494 1493 526 c 128,-1,130
 1454 558 1454 558 1401 576.5 c 128,-1,131
 1348 595 1348 595 1287 602 c 1,116,117
667 307 m 1,132,133
 618 356 618 356 557.5 386.5 c 128,-1,134
 497 417 497 417 422 417 c 0,135,136
 375 417 375 417 340 406 c 128,-1,137
 305 395 305 395 282 377 c 128,-1,138
 259 359 259 359 247.5 335.5 c 128,-1,139
 236 312 236 312 236 287 c 0,140,141
 236 261 236 261 248 237 c 128,-1,142
 260 213 260 213 283.5 194 c 128,-1,143
 307 175 307 175 341.5 163.5 c 128,-1,144
 376 152 376 152 422 152 c 0,145,146
 504 152 504 152 567.5 195 c 128,-1,147
 631 238 631 238 667 307 c 1,132,133
EndSplineSet
EndChar

StartChar: u11D76
Encoding: 82 73078 82
Width: 1641
GlyphClass: 2
Flags: W
AnchorPoint: "M" 1419 1318 basechar 0
AnchorPoint: "L" 0 0 basechar 0
AnchorPoint: "U" 1638 0 basechar 0
LayerCount: 3
Fore
SplineSet
-18 1320 m 1,0,-1
 1674 1320 l 1,1,-1
 1674 1226 l 1,2,-1
 1491 1226 l 1,3,-1
 1491 1090 l 2,4,5
 1491 1012 1491 1012 1460.5 944 c 128,-1,6
 1430 876 1430 876 1380.5 818.5 c 128,-1,7
 1331 761 1331 761 1269.5 713.5 c 128,-1,8
 1208 666 1208 666 1146 630 c 1,9,10
 1185 609 1185 609 1219 581 c 128,-1,11
 1253 553 1253 553 1278.5 517 c 128,-1,12
 1304 481 1304 481 1319 437 c 128,-1,13
 1334 393 1334 393 1336 340 c 0,14,15
 1336 271 1336 271 1312.5 209 c 128,-1,16
 1289 147 1289 147 1247 100.5 c 128,-1,17
 1205 54 1205 54 1146 27 c 128,-1,18
 1087 0 1087 0 1016 0 c 256,19,20
 945 0 945 0 885 22.5 c 128,-1,21
 825 45 825 45 781.5 86 c 128,-1,22
 738 127 738 127 713 185.5 c 128,-1,23
 688 244 688 244 686 315 c 0,24,25
 686 399 686 399 719 462.5 c 128,-1,26
 752 526 752 526 806 580 c 1,27,28
 776 588 776 588 746 598.5 c 128,-1,29
 716 609 716 609 686 620 c 1,30,31
 641 597 641 597 600 575.5 c 128,-1,32
 559 554 559 554 521 535 c 1,33,34
 559 493 559 493 582.5 443.5 c 128,-1,35
 606 394 606 394 606 340 c 0,36,37
 606 291 606 291 589 248.5 c 128,-1,38
 572 206 572 206 541.5 174 c 128,-1,39
 511 142 511 142 469 123.5 c 128,-1,40
 427 105 427 105 376 105 c 256,41,42
 325 105 325 105 282.5 122.5 c 128,-1,43
 240 140 240 140 209.5 171 c 128,-1,44
 179 202 179 202 162.5 244 c 128,-1,45
 146 286 146 286 146 335 c 0,46,47
 146 385 146 385 165 425.5 c 128,-1,48
 184 466 184 466 216 500 c 128,-1,49
 248 534 248 534 288.5 562.5 c 128,-1,50
 329 591 329 591 372.5 616 c 128,-1,51
 416 641 416 641 458.5 664 c 128,-1,52
 501 687 501 687 536 710 c 1,53,54
 482 752 482 752 449 811.5 c 128,-1,55
 416 871 416 871 416 950 c 0,56,57
 418 1004 418 1004 440.5 1047.5 c 128,-1,58
 463 1091 463 1091 500 1121.5 c 128,-1,59
 537 1152 537 1152 585 1168.5 c 128,-1,60
 633 1185 633 1185 686 1185 c 256,61,62
 739 1185 739 1185 783 1169.5 c 128,-1,63
 827 1154 827 1154 859.5 1125 c 128,-1,64
 892 1096 892 1096 912 1054 c 128,-1,65
 932 1012 932 1012 936 960 c 1,66,67
 936 880 936 880 906 825 c 128,-1,68
 876 770 876 770 826 725 c 1,69,70
 864 714 864 714 897 706 c 128,-1,71
 930 698 930 698 956 690 c 1,72,73
 993 712 993 712 1036 736.5 c 128,-1,74
 1079 761 1079 761 1122.5 789.5 c 128,-1,75
 1166 818 1166 818 1206 851 c 128,-1,76
 1246 884 1246 884 1277.5 921 c 128,-1,77
 1309 958 1309 958 1327.5 1000 c 128,-1,78
 1346 1042 1346 1042 1346 1090 c 2,79,-1
 1346 1226 l 1,80,-1
 -18 1226 l 1,81,-1
 -18 1320 l 1,0,-1
986 535 m 1,82,83
 954 511 954 511 926 486 c 128,-1,84
 898 461 898 461 877 434 c 128,-1,85
 856 407 856 407 843.5 377.5 c 128,-1,86
 831 348 831 348 831 315 c 0,87,88
 835 231 835 231 886 190.5 c 128,-1,89
 937 150 937 150 1016 150 c 0,90,91
 1056 150 1056 150 1087.5 164 c 128,-1,92
 1119 178 1119 178 1141 202 c 128,-1,93
 1163 226 1163 226 1174.5 258.5 c 128,-1,94
 1186 291 1186 291 1186 329 c 0,95,96
 1186 373 1186 373 1170 406 c 128,-1,97
 1154 439 1154 439 1126.5 464 c 128,-1,98
 1099 489 1099 489 1062.5 506 c 128,-1,99
 1026 523 1026 523 986 535 c 1,82,83
676 790 m 1,100,101
 724 826 724 826 755 862.5 c 128,-1,102
 786 899 786 899 786 942 c 0,103,104
 786 995 786 995 758.5 1015 c 128,-1,105
 731 1035 731 1035 686 1035 c 0,106,107
 663 1035 663 1035 641.5 1030 c 128,-1,108
 620 1025 620 1025 603.5 1014.5 c 128,-1,109
 587 1004 587 1004 576.5 986.5 c 128,-1,110
 566 969 566 969 566 945 c 0,111,112
 566 896 566 896 596.5 858 c 128,-1,113
 627 820 627 820 676 790 c 1,100,101
391 450 m 1,114,115
 295 406 295 406 295 328 c 0,116,117
 295 293 295 293 316.5 274 c 128,-1,118
 338 255 338 255 376 255 c 256,119,120
 414 255 414 255 435 278.5 c 128,-1,121
 456 302 456 302 456 340 c 0,122,123
 456 374 456 374 437 402 c 128,-1,124
 418 430 418 430 391 450 c 1,114,115
EndSplineSet
EndChar

StartChar: u11D77
Encoding: 83 73079 83
Width: 1720
GlyphClass: 2
Flags: W
AnchorPoint: "M" 1514 1318 basechar 0
AnchorPoint: "L" 0 0 basechar 0
AnchorPoint: "U" 1719 0 basechar 0
LayerCount: 3
Fore
SplineSet
1001 1320 m 1,0,-1
 1778 1320 l 1,1,-1
 1778 1226 l 1,2,-1
 1579 1226 l 1,3,-1
 1580 1209 l 2,4,5
 1580 1151 1580 1151 1551 1104.5 c 128,-1,6
 1522 1058 1522 1058 1475 1017 c 128,-1,7
 1428 976 1428 976 1368.5 938.5 c 128,-1,8
 1309 901 1309 901 1247 862 c 1,9,10
 1290 841 1290 841 1327.5 812.5 c 128,-1,11
 1365 784 1365 784 1392.5 746.5 c 128,-1,12
 1420 709 1420 709 1436 662 c 128,-1,13
 1452 615 1452 615 1452 557 c 0,14,15
 1452 501 1452 501 1432 448.5 c 128,-1,16
 1412 396 1412 396 1375.5 355.5 c 128,-1,17
 1339 315 1339 315 1288.5 290.5 c 128,-1,18
 1238 266 1238 266 1177 266 c 0,19,20
 1118 266 1118 266 1064 286 c 128,-1,21
 1010 306 1010 306 968.5 342 c 128,-1,22
 927 378 927 378 902 429 c 128,-1,23
 877 480 877 480 877 542 c 0,24,25
 877 611 877 611 896 668 c 128,-1,26
 915 725 915 725 957 782 c 1,27,-1
 334 782 l 1,28,29
 339 775 339 775 343 769 c 128,-1,30
 347 763 347 763 352 757 c 0,31,32
 375 727 375 727 409.5 702 c 128,-1,33
 444 677 444 677 482 677 c 0,34,35
 539 677 539 677 594 666.5 c 128,-1,36
 649 656 649 656 692 631 c 128,-1,37
 735 606 735 606 761 563.5 c 128,-1,38
 787 521 787 521 787 457 c 0,39,40
 787 387 787 387 747 332 c 1,41,42
 810 298 810 298 848.5 239 c 128,-1,43
 887 180 887 180 887 92 c 1,44,45
 883 32 883 32 852 -19 c 128,-1,46
 821 -70 821 -70 772 -108 c 0,47,48
 738 -134 738 -134 699.5 -150.5 c 128,-1,49
 661 -167 661 -167 619.5 -176.5 c 128,-1,50
 578 -186 578 -186 535.5 -189.5 c 128,-1,51
 493 -193 493 -193 452 -193 c 0,52,53
 404 -190 404 -190 351.5 -178 c 128,-1,54
 299 -166 299 -166 251 -143.5 c 128,-1,55
 203 -121 203 -121 164.5 -87.5 c 128,-1,56
 126 -54 126 -54 107 -8 c 1,57,-1
 242 57 l 1,58,59
 249 29 249 29 277.5 10 c 128,-1,60
 306 -9 306 -9 344 -21 c 128,-1,61
 382 -33 382 -33 422 -38.5 c 128,-1,62
 462 -44 462 -44 491 -44 c 0,63,64
 527 -44 527 -44 568.5 -37 c 128,-1,65
 610 -30 610 -30 647 -13 c 128,-1,66
 684 4 684 4 710.5 32 c 128,-1,67
 737 60 737 60 742 102 c 0,68,69
 742 110 742 110 739 119.5 c 128,-1,70
 736 129 736 129 732 137 c 0,71,72
 722 170 722 170 697.5 189 c 128,-1,73
 673 208 673 208 642.5 217.5 c 128,-1,74
 612 227 612 227 579.5 229.5 c 128,-1,75
 547 232 547 232 522 232 c 2,76,-1
 282 232 l 1,77,-1
 282 382 l 1,78,79
 343 382 343 382 378.5 382 c 128,-1,80
 414 382 414 382 434 381.5 c 128,-1,81
 454 381 454 381 463 381 c 128,-1,82
 472 381 472 381 478 381 c 0,83,84
 503 381 503 381 531 383.5 c 128,-1,85
 559 386 559 386 582.5 393.5 c 128,-1,86
 606 401 606 401 621.5 416 c 128,-1,87
 637 431 637 431 637 457 c 0,88,89
 637 485 637 485 619.5 500.5 c 128,-1,90
 602 516 602 516 577.5 523 c 128,-1,91
 553 530 553 530 526.5 531 c 128,-1,92
 500 532 500 532 482 532 c 0,93,94
 395 532 395 532 329.5 576 c 128,-1,95
 264 620 264 620 220 689 c 128,-1,96
 176 758 176 758 154 842 c 128,-1,97
 132 926 132 926 132 1007 c 0,98,99
 132 1111 132 1111 170 1199.5 c 128,-1,100
 208 1288 208 1288 273.5 1352.5 c 128,-1,101
 339 1417 339 1417 426.5 1454 c 128,-1,102
 514 1491 514 1491 612 1492 c 0,103,104
 660 1490 660 1490 705 1475 c 128,-1,105
 750 1460 750 1460 785 1432 c 128,-1,106
 820 1404 820 1404 841 1363.5 c 128,-1,107
 862 1323 862 1323 862 1270 c 0,108,109
 862 1215 862 1215 842.5 1170.5 c 128,-1,110
 823 1126 823 1126 788.5 1095 c 128,-1,111
 754 1064 754 1064 706.5 1047 c 128,-1,112
 659 1030 659 1030 604 1030 c 0,113,114
 557 1030 557 1030 517.5 1047 c 128,-1,115
 478 1064 478 1064 447.5 1093 c 128,-1,116
 417 1122 417 1122 396.5 1160.5 c 128,-1,117
 376 1199 376 1199 367 1242 c 1,118,119
 277 1144 277 1144 277 1007 c 0,120,121
 277 987 277 987 278 967 c 128,-1,122
 279 947 279 947 282 927 c 1,123,-1
 937 927 l 2,124,125
 971 927 971 927 1008 924 c 128,-1,126
 1045 921 1045 921 1087 917 c 1,127,128
 1151 955 1151 955 1212 992.5 c 128,-1,129
 1273 1030 1273 1030 1321 1066.5 c 128,-1,130
 1369 1103 1369 1103 1398 1139.5 c 128,-1,131
 1427 1176 1427 1176 1427 1212 c 2,132,-1
 1427 1226 l 1,133,-1
 1001 1226 l 1,134,-1
 1001 1320 l 1,0,-1
1127 752 m 1,135,136
 1079 704 1079 704 1053 655 c 128,-1,137
 1027 606 1027 606 1027 542 c 0,138,139
 1027 514 1027 514 1038.5 490 c 128,-1,140
 1050 466 1050 466 1069 449 c 128,-1,141
 1088 432 1088 432 1113.5 422 c 128,-1,142
 1139 412 1139 412 1167 412 c 256,143,144
 1195 412 1195 412 1220.5 423.5 c 128,-1,145
 1246 435 1246 435 1265.5 454.5 c 128,-1,146
 1285 474 1285 474 1296 500.5 c 128,-1,147
 1307 527 1307 527 1307 557 c 0,148,149
 1307 598 1307 598 1292 629.5 c 128,-1,150
 1277 661 1277 661 1252.5 684.5 c 128,-1,151
 1228 708 1228 708 1195.5 724.5 c 128,-1,152
 1163 741 1163 741 1127 752 c 1,135,136
522 1332 m 1,153,154
 514 1303 514 1303 514 1284 c 0,155,156
 514 1263 514 1263 520.5 1243.5 c 128,-1,157
 527 1224 527 1224 539.5 1209 c 128,-1,158
 552 1194 552 1194 570.5 1185.5 c 128,-1,159
 589 1177 589 1177 614 1177 c 0,160,161
 659 1177 659 1177 688 1201 c 128,-1,162
 717 1225 717 1225 717 1267 c 0,163,164
 717 1288 717 1288 707 1302 c 128,-1,165
 697 1316 697 1316 681 1325.5 c 128,-1,166
 665 1335 665 1335 645.5 1340 c 128,-1,167
 626 1345 626 1345 607 1347 c 0,168,169
 567 1347 567 1347 522 1332 c 1,153,154
-39 1320 m 1,170,-1
 98 1320 l 1,171,-1
 98 1226 l 1,172,-1
 -39 1226 l 1,173,-1
 -39 1320 l 1,170,-1
EndSplineSet
EndChar

StartChar: u11D84
Encoding: 84 73092 84
Width: 1555
GlyphClass: 2
Flags: W
AnchorPoint: "M" 1334 1318 basechar 0
AnchorPoint: "L" 0 0 basechar 0
AnchorPoint: "U" 1656 0 basechar 0
LayerCount: 3
Fore
SplineSet
834 1320 m 1,0,-1
 1594 1320 l 1,1,-1
 1594 1226 l 1,2,-1
 1406 1226 l 1,3,-1
 1406 1075 l 2,4,5
 1406 1006 1406 1006 1384.5 945 c 128,-1,6
 1363 884 1363 884 1321 835 c 0,7,8
 1295 801 1295 801 1262 773.5 c 128,-1,9
 1229 746 1229 746 1193.5 722.5 c 128,-1,10
 1158 699 1158 699 1121 677.5 c 128,-1,11
 1084 656 1084 656 1051 635 c 1,12,13
 1090 607 1090 607 1123 575 c 128,-1,14
 1156 543 1156 543 1180 505.5 c 128,-1,15
 1204 468 1204 468 1217.5 424.5 c 128,-1,16
 1231 381 1231 381 1231 330 c 0,17,18
 1231 262 1231 262 1208 202 c 128,-1,19
 1185 142 1185 142 1143.5 97 c 128,-1,20
 1102 52 1102 52 1044 26 c 128,-1,21
 986 0 986 0 916 0 c 0,22,23
 845 0 845 0 784.5 22.5 c 128,-1,24
 724 45 724 45 679.5 86 c 128,-1,25
 635 127 635 127 609 185.5 c 128,-1,26
 583 244 583 244 581 315 c 0,27,28
 581 366 581 366 595 409.5 c 128,-1,29
 609 453 609 453 633.5 491 c 128,-1,30
 658 529 658 529 690.5 562 c 128,-1,31
 723 595 723 595 761 625 c 1,32,33
 700 654 700 654 653 690 c 128,-1,34
 606 726 606 726 573.5 774 c 128,-1,35
 541 822 541 822 524.5 884 c 128,-1,36
 508 946 508 946 508 1027 c 0,37,38
 508 1067 508 1067 514 1104.5 c 128,-1,39
 520 1142 520 1142 527 1177 c 128,-1,40
 534 1212 534 1212 540 1245 c 128,-1,41
 546 1278 546 1278 546 1310 c 0,42,43
 546 1347 546 1347 539.5 1385.5 c 128,-1,44
 533 1424 533 1424 516.5 1455 c 128,-1,45
 500 1486 500 1486 472 1505.5 c 128,-1,46
 444 1525 444 1525 401 1525 c 0,47,48
 367 1525 367 1525 341 1511 c 128,-1,49
 315 1497 315 1497 297 1474.5 c 128,-1,50
 279 1452 279 1452 270 1423.5 c 128,-1,51
 261 1395 261 1395 261 1365 c 0,52,53
 261 1296 261 1296 298.5 1265.5 c 128,-1,54
 336 1235 336 1235 396 1235 c 1,55,-1
 396 1085 l 1,56,57
 334 1087 334 1087 282.5 1107 c 128,-1,58
 231 1127 231 1127 194 1163 c 128,-1,59
 157 1199 157 1199 136.5 1250 c 128,-1,60
 116 1301 116 1301 116 1365 c 0,61,62
 116 1425 116 1425 136 1480 c 128,-1,63
 156 1535 156 1535 193 1577.5 c 128,-1,64
 230 1620 230 1620 282.5 1645 c 128,-1,65
 335 1670 335 1670 401 1670 c 0,66,67
 477 1670 477 1670 533 1640 c 128,-1,68
 589 1610 589 1610 625 1559.5 c 128,-1,69
 661 1509 661 1509 678.5 1444 c 128,-1,70
 696 1379 696 1379 696 1310 c 0,71,72
 696 1269 696 1269 689.5 1229.5 c 128,-1,73
 683 1190 683 1190 675.5 1153.5 c 128,-1,74
 668 1117 668 1117 661.5 1082 c 128,-1,75
 655 1047 655 1047 655 1015 c 256,76,77
 655 983 655 983 660.5 944 c 128,-1,78
 666 905 666 905 681 875 c 0,79,80
 711 822 711 822 771 786 c 128,-1,81
 831 750 831 750 906 720 c 1,82,83
 929 731 929 731 950.5 745 c 128,-1,84
 972 759 972 759 991 770 c 0,85,86
 1036 797 1036 797 1083.5 826 c 128,-1,87
 1131 855 1131 855 1170.5 891 c 128,-1,88
 1210 927 1210 927 1235.5 971.5 c 128,-1,89
 1261 1016 1261 1016 1261 1075 c 2,90,-1
 1261 1226 l 1,91,-1
 834 1226 l 1,92,-1
 834 1320 l 1,0,-1
911 550 m 1,93,94
 875 527 875 527 842.5 501.5 c 128,-1,95
 810 476 810 476 785 447 c 128,-1,96
 760 418 760 418 745.5 385 c 128,-1,97
 731 352 731 352 731 315 c 0,98,99
 731 233 731 233 782.5 191.5 c 128,-1,100
 834 150 834 150 916 150 c 0,101,102
 955 150 955 150 986.5 165 c 128,-1,103
 1018 180 1018 180 1040 205 c 128,-1,104
 1062 230 1062 230 1074 263.5 c 128,-1,105
 1086 297 1086 297 1086 335 c 0,106,107
 1084 371 1084 371 1068.5 402 c 128,-1,108
 1053 433 1053 433 1028.5 459.5 c 128,-1,109
 1004 486 1004 486 973.5 508.5 c 128,-1,110
 943 531 943 531 911 550 c 1,93,94
-39 1320 m 1,111,-1
 37 1320 l 1,112,-1
 37 1226 l 1,113,-1
 -39 1226 l 1,114,-1
 -39 1320 l 1,111,-1
EndSplineSet
EndChar

StartChar: u11D7B
Encoding: 85 73083 85
Width: 1513
GlyphClass: 2
Flags: W
AnchorPoint: "M" 1244 1318 basechar 0
AnchorPoint: "L" 0 0 basechar 0
AnchorPoint: "U" 1467 0 basechar 0
LayerCount: 3
Fore
SplineSet
-18 1320 m 1,0,-1
 1534 1320 l 1,1,-1
 1534 1226 l 1,2,-1
 1325 1226 l 1,3,-1
 1325 1075 l 2,4,5
 1325 1000 1325 1000 1293 930 c 128,-1,6
 1261 860 1261 860 1210.5 800 c 128,-1,7
 1160 740 1160 740 1097.5 692.5 c 128,-1,8
 1035 645 1035 645 975 615 c 1,9,10
 1018 593 1018 593 1053 564.5 c 128,-1,11
 1088 536 1088 536 1113 500 c 128,-1,12
 1138 464 1138 464 1151.5 419 c 128,-1,13
 1165 374 1165 374 1165 319 c 0,14,15
 1165 250 1165 250 1142 189.5 c 128,-1,16
 1119 129 1119 129 1077.5 85 c 128,-1,17
 1036 41 1036 41 978 15.5 c 128,-1,18
 920 -10 920 -10 850 -10 c 0,19,20
 779 -10 779 -10 718.5 11.5 c 128,-1,21
 658 33 658 33 613.5 73.5 c 128,-1,22
 569 114 569 114 543 171.5 c 128,-1,23
 517 229 517 229 515 300 c 0,24,25
 515 384 515 384 549 447.5 c 128,-1,26
 583 511 583 511 640 565 c 1,27,28
 580 582 580 582 525 605 c 1,29,30
 502 590 502 590 483 575 c 128,-1,31
 464 560 464 560 445 545 c 0,32,33
 419 524 419 524 390 499.5 c 128,-1,34
 361 475 361 475 335 447.5 c 128,-1,35
 309 420 309 420 287.5 389.5 c 128,-1,36
 266 359 266 359 255 325 c 1,37,-1
 115 375 l 1,38,39
 131 426 131 426 160 468.5 c 128,-1,40
 189 511 189 511 226 548.5 c 128,-1,41
 263 586 263 586 304 619.5 c 128,-1,42
 345 653 345 653 385 685 c 1,43,44
 322 728 322 728 286 785.5 c 128,-1,45
 250 843 250 843 250 921 c 0,46,47
 250 978 250 978 271.5 1024.5 c 128,-1,48
 293 1071 293 1071 329.5 1103 c 128,-1,49
 366 1135 366 1135 414 1152.5 c 128,-1,50
 462 1170 462 1170 515 1170 c 0,51,52
 566 1170 566 1170 611 1153.5 c 128,-1,53
 656 1137 656 1137 690.5 1107 c 128,-1,54
 725 1077 725 1077 745 1034.5 c 128,-1,55
 765 992 765 992 765 940 c 0,56,57
 765 876 765 876 733.5 821.5 c 128,-1,58
 702 767 702 767 650 715 c 1,59,60
 692 704 692 704 728 694 c 128,-1,61
 764 684 764 684 790 680 c 1,62,63
 824 703 824 703 857.5 721.5 c 128,-1,64
 891 740 891 740 925 760 c 0,65,66
 964 782 964 782 1008 815 c 128,-1,67
 1052 848 1052 848 1089 889 c 128,-1,68
 1126 930 1126 930 1150.5 977 c 128,-1,69
 1175 1024 1175 1024 1175 1075 c 2,70,-1
 1175 1226 l 1,71,-1
 -18 1226 l 1,72,-1
 -18 1320 l 1,0,-1
820 520 m 1,73,74
 748 475 748 475 706.5 421.5 c 128,-1,75
 665 368 665 368 665 305 c 0,76,77
 665 221 665 221 715.5 178 c 128,-1,78
 766 135 766 135 850 135 c 0,79,80
 889 135 889 135 920.5 150 c 128,-1,81
 952 165 952 165 974 190.5 c 128,-1,82
 996 216 996 216 1008 251 c 128,-1,83
 1020 286 1020 286 1020 325 c 0,84,85
 1018 368 1018 368 1000 400.5 c 128,-1,86
 982 433 982 433 954 456.5 c 128,-1,87
 926 480 926 480 891 495.5 c 128,-1,88
 856 511 856 511 820 520 c 1,73,74
505 780 m 1,89,90
 516 791 516 791 533.5 806 c 128,-1,91
 551 821 551 821 568 839.5 c 128,-1,92
 585 858 585 858 598.5 879.5 c 128,-1,93
 612 901 612 901 615 925 c 0,94,95
 615 929 615 929 617.5 932.5 c 128,-1,96
 620 936 620 936 620 940 c 0,97,98
 620 961 620 961 610.5 976.5 c 128,-1,99
 601 992 601 992 586 1003 c 128,-1,100
 571 1014 571 1014 552.5 1019.5 c 128,-1,101
 534 1025 534 1025 515 1025 c 0,102,103
 494 1025 494 1025 473.5 1019.5 c 128,-1,104
 453 1014 453 1014 436 1002 c 128,-1,105
 419 990 419 990 408 972 c 128,-1,106
 397 954 397 954 395 930 c 0,107,108
 395 885 395 885 425.5 847.5 c 128,-1,109
 456 810 456 810 505 780 c 1,89,90
EndSplineSet
EndChar

StartChar: u11D7C
Encoding: 86 73084 86
Width: 1464
GlyphClass: 2
Flags: W
AnchorPoint: "M" 1207 1318 basechar 0
AnchorPoint: "L" 0 0 basechar 0
AnchorPoint: "U" 1413 0 basechar 0
LayerCount: 3
Fore
SplineSet
-18 1320 m 1,0,-1
 1484 1320 l 1,1,-1
 1484 1226 l 1,2,-1
 1275 1226 l 1,3,-1
 1275 576 l 2,4,5
 1275 451 1275 451 1242 345 c 128,-1,6
 1209 239 1209 239 1143.5 161.5 c 128,-1,7
 1078 84 1078 84 979.5 40 c 128,-1,8
 881 -4 881 -4 750 -4 c 0,9,10
 606 -4 606 -4 508 44.5 c 128,-1,11
 410 93 410 93 350 181 c 1,12,-1
 95 -44 l 1,13,-1
 0 66 l 1,14,15
 72 132 72 132 145.5 193.5 c 128,-1,16
 219 255 219 255 285 321 c 1,17,18
 270 370 270 370 262.5 425.5 c 128,-1,19
 255 481 255 481 255 541 c 0,20,21
 255 596 255 596 260 655.5 c 128,-1,22
 265 715 265 715 278.5 771.5 c 128,-1,23
 292 828 292 828 314 879 c 128,-1,24
 336 930 336 930 370.5 968 c 128,-1,25
 405 1006 405 1006 453 1028.5 c 128,-1,26
 501 1051 501 1051 565 1051 c 0,27,28
 631 1051 631 1051 677.5 1031.5 c 128,-1,29
 724 1012 724 1012 753.5 976 c 128,-1,30
 783 940 783 940 796.5 890.5 c 128,-1,31
 810 841 810 841 810 781 c 0,32,33
 810 734 810 734 792.5 688 c 128,-1,34
 775 642 775 642 748 598.5 c 128,-1,35
 721 555 721 555 689.5 516.5 c 128,-1,36
 658 478 658 478 630 446 c 0,37,38
 590 401 590 401 546.5 359 c 128,-1,39
 503 317 503 317 460 281 c 1,40,41
 502 217 502 217 571.5 181.5 c 128,-1,42
 641 146 641 146 750 146 c 0,43,44
 834 146 834 146 903 177.5 c 128,-1,45
 972 209 972 209 1021.5 266 c 128,-1,46
 1071 323 1071 323 1098 402 c 128,-1,47
 1125 481 1125 481 1125 576 c 2,48,-1
 1125 1226 l 1,49,-1
 -18 1226 l 1,50,-1
 -18 1320 l 1,0,-1
410 436 m 1,51,52
 437 460 437 460 464.5 486.5 c 128,-1,53
 492 513 492 513 520 541 c 0,54,55
 537 562 537 562 561 591.5 c 128,-1,56
 585 621 585 621 607 653.5 c 128,-1,57
 629 686 629 686 644.5 719 c 128,-1,58
 660 752 660 752 660 781 c 0,59,60
 660 807 660 807 657 830 c 128,-1,61
 654 853 654 853 644.5 870 c 128,-1,62
 635 887 635 887 617.5 896.5 c 128,-1,63
 600 906 600 906 570 906 c 0,64,65
 532 906 532 906 504.5 887.5 c 128,-1,66
 477 869 477 869 458 839 c 128,-1,67
 439 809 439 809 428 770 c 128,-1,68
 417 731 417 731 410.5 690.5 c 128,-1,69
 404 650 404 650 402 611 c 128,-1,70
 400 572 400 572 400 541 c 0,71,72
 400 515 400 515 403 488.5 c 128,-1,73
 406 462 406 462 410 436 c 1,51,52
EndSplineSet
EndChar

StartChar: u11D80
Encoding: 87 73088 87
Width: 1600
GlyphClass: 2
Flags: W
AnchorPoint: "M" 1384 1318 basechar 0
AnchorPoint: "L" 0 0 basechar 0
AnchorPoint: "U" 1602 0 basechar 0
LayerCount: 3
Fore
SplineSet
-43 1320 m 1,0,-1
 1644 1320 l 1,1,-1
 1644 1226 l 1,2,-1
 1461 1226 l 1,3,-1
 1461 1059 l 1,4,5
 1466 943 1466 943 1397.5 824 c 128,-1,6
 1329 705 1329 705 1191 571 c 1,7,8
 1236 550 1236 550 1273.5 521.5 c 128,-1,9
 1311 493 1311 493 1338.5 455.5 c 128,-1,10
 1366 418 1366 418 1381 371 c 128,-1,11
 1396 324 1396 324 1396 266 c 0,12,13
 1396 207 1396 207 1375.5 154.5 c 128,-1,14
 1355 102 1355 102 1317.5 62.5 c 128,-1,15
 1280 23 1280 23 1227.5 -0.5 c 128,-1,16
 1175 -24 1175 -24 1111 -24 c 0,17,18
 1052 -24 1052 -24 1000.5 -3 c 128,-1,19
 949 18 949 18 910 55.5 c 128,-1,20
 871 93 871 93 848.5 144.5 c 128,-1,21
 826 196 826 196 826 256 c 0,22,23
 826 320 826 320 844.5 377 c 128,-1,24
 863 434 863 434 901 491 c 1,25,-1
 306 491 l 1,26,27
 328 457 328 457 351.5 433 c 128,-1,28
 375 409 375 409 404.5 393.5 c 128,-1,29
 434 378 434 378 473 369 c 128,-1,30
 512 360 512 360 566 356 c 2,31,-1
 684 351 l 1,32,-1
 681 206 l 1,33,-1
 491 206 l 2,34,35
 454 206 454 206 417.5 190.5 c 128,-1,36
 381 175 381 175 351.5 147 c 128,-1,37
 322 119 322 119 304 80.5 c 128,-1,38
 286 42 286 42 286 -4 c 0,39,40
 286 -68 286 -68 311 -113.5 c 128,-1,41
 336 -159 336 -159 376.5 -188 c 128,-1,42
 417 -217 417 -217 469 -230.5 c 128,-1,43
 521 -244 521 -244 576 -244 c 1,44,45
 652 -238 652 -238 709 -202 c 128,-1,46
 766 -166 766 -166 801 -94 c 1,47,-1
 941 -139 l 1,48,49
 921 -200 921 -200 881.5 -246.5 c 128,-1,50
 842 -293 842 -293 790 -325 c 128,-1,51
 738 -357 738 -357 677.5 -373.5 c 128,-1,52
 617 -390 617 -390 556 -390 c 0,53,54
 466 -390 466 -390 390 -361.5 c 128,-1,55
 314 -333 314 -333 258.5 -282 c 128,-1,56
 203 -231 203 -231 172 -160 c 128,-1,57
 141 -89 141 -89 141 -4 c 0,58,59
 141 96 141 96 185.5 169.5 c 128,-1,60
 230 243 230 243 306 291 c 1,61,62
 204 351 204 351 150 460.5 c 128,-1,63
 96 570 96 570 96 736 c 0,64,65
 96 839 96 839 134 930.5 c 128,-1,66
 172 1022 172 1022 251 1091 c 0,67,68
 312 1145 312 1145 385.5 1173 c 128,-1,69
 459 1201 459 1201 537 1201 c 0,70,71
 589 1201 589 1201 638.5 1187.5 c 128,-1,72
 688 1174 688 1174 726.5 1147 c 128,-1,73
 765 1120 765 1120 788 1078 c 128,-1,74
 811 1036 811 1036 811 979 c 0,75,76
 811 925 811 925 791.5 881 c 128,-1,77
 772 837 772 837 737.5 805.5 c 128,-1,78
 703 774 703 774 656.5 757 c 128,-1,79
 610 740 610 740 556 740 c 0,80,81
 499 740 499 740 451 764 c 128,-1,82
 403 788 403 788 368 830 c 1,83,-1
 466 941 l 1,84,85
 491 890 491 890 550 890 c 0,86,87
 598 890 598 890 629.5 909 c 128,-1,88
 661 928 661 928 661 976 c 0,89,90
 661 999 661 999 651 1013.5 c 128,-1,91
 641 1028 641 1028 625 1037 c 128,-1,92
 609 1046 609 1046 589.5 1050 c 128,-1,93
 570 1054 570 1054 551 1056 c 0,94,95
 482 1051 482 1051 425.5 1025 c 128,-1,96
 369 999 369 999 329 956.5 c 128,-1,97
 289 914 289 914 267.5 857.5 c 128,-1,98
 246 801 246 801 246 736 c 0,99,100
 246 710 246 710 248.5 684.5 c 128,-1,101
 251 659 251 659 251 636 c 1,102,-1
 881 636 l 2,103,104
 956 636 956 636 1031 621 c 1,105,106
 1098 685 1098 685 1151 737.5 c 128,-1,107
 1204 790 1204 790 1241 841 c 128,-1,108
 1278 892 1278 892 1297 946 c 128,-1,109
 1316 1000 1316 1000 1316 1066 c 2,110,-1
 1316 1226 l 1,111,-1
 -43 1226 l 1,112,-1
 -43 1320 l 1,0,-1
1071 466 m 1,113,114
 1048 436 1048 436 1029.5 411 c 128,-1,115
 1011 386 1011 386 998 362 c 128,-1,116
 985 338 985 338 978 312.5 c 128,-1,117
 971 287 971 287 971 256 c 0,118,119
 971 226 971 226 982.5 202 c 128,-1,120
 994 178 994 178 1013 160.5 c 128,-1,121
 1032 143 1032 143 1057.5 133 c 128,-1,122
 1083 123 1083 123 1111 121 c 0,123,124
 1144 121 1144 121 1170 133.5 c 128,-1,125
 1196 146 1196 146 1214 166.5 c 128,-1,126
 1232 187 1232 187 1241.5 213 c 128,-1,127
 1251 239 1251 239 1251 266 c 0,128,129
 1251 307 1251 307 1236 339 c 128,-1,130
 1221 371 1221 371 1196.5 396 c 128,-1,131
 1172 421 1172 421 1139.5 438 c 128,-1,132
 1107 455 1107 455 1071 466 c 1,113,114
EndSplineSet
EndChar

StartChar: u11D81
Encoding: 88 73089 88
Width: 1883
GlyphClass: 2
Flags: W
AnchorPoint: "M" 1674 1318 basechar 0
AnchorPoint: "L" 0 0 basechar 0
AnchorPoint: "U" 1890 0 basechar 0
LayerCount: 3
Fore
SplineSet
-18 1320 m 1,0,-1
 1924 1320 l 1,1,-1
 1924 1226 l 1,2,-1
 1745 1226 l 1,3,-1
 1745 1221 l 2,4,5
 1745 1122 1745 1122 1679 1014.5 c 128,-1,6
 1613 907 1613 907 1498 806 c 1,7,8
 1530 770 1530 770 1556 728 c 128,-1,9
 1582 686 1582 686 1600 640 c 128,-1,10
 1618 594 1618 594 1628 546.5 c 128,-1,11
 1638 499 1638 499 1638 451 c 0,12,13
 1638 383 1638 383 1615 319 c 128,-1,14
 1592 255 1592 255 1550 205.5 c 128,-1,15
 1508 156 1508 156 1449 126 c 128,-1,16
 1390 96 1390 96 1318 96 c 0,17,18
 1248 96 1248 96 1187.5 119 c 128,-1,19
 1127 142 1127 142 1083 184.5 c 128,-1,20
 1039 227 1039 227 1013.5 286.5 c 128,-1,21
 988 346 988 346 988 420 c 0,22,23
 988 483 988 483 1012.5 539 c 128,-1,24
 1037 595 1037 595 1076 643 c 128,-1,25
 1115 691 1115 691 1164 730.5 c 128,-1,26
 1213 770 1213 770 1263 801 c 1,27,28
 1234 818 1234 818 1202 831.5 c 128,-1,29
 1170 845 1170 845 1137 845 c 2,30,-1
 283 844 l 1,31,-1
 283 811 l 2,32,33
 283 753 283 753 291.5 707.5 c 128,-1,34
 300 662 300 662 323 630.5 c 128,-1,35
 346 599 346 599 388 582.5 c 128,-1,36
 430 566 430 566 498 566 c 0,37,38
 530 566 530 566 559.5 570.5 c 128,-1,39
 589 575 589 575 614.5 586.5 c 128,-1,40
 640 598 640 598 660 618.5 c 128,-1,41
 680 639 680 639 693 671 c 1,42,-1
 693 751 l 1,43,-1
 838 751 l 1,44,-1
 838 381 l 2,45,46
 838 343 838 343 837 303.5 c 128,-1,47
 836 264 836 264 828 226 c 0,48,49
 811 162 811 162 778 117.5 c 128,-1,50
 745 73 745 73 699.5 45 c 128,-1,51
 654 17 654 17 597.5 4 c 128,-1,52
 541 -9 541 -9 478 -9 c 0,53,54
 394 -9 394 -9 327 14.5 c 128,-1,55
 260 38 260 38 213.5 83 c 128,-1,56
 167 128 167 128 142.5 193 c 128,-1,57
 118 258 118 258 118 341 c 1,58,-1
 268 341 l 1,59,60
 268 235 268 235 320 185.5 c 128,-1,61
 372 136 372 136 478 136 c 0,62,63
 558 136 558 136 601.5 158 c 128,-1,64
 645 180 645 180 665.5 222 c 128,-1,65
 686 264 686 264 689.5 324 c 128,-1,66
 693 384 693 384 693 461 c 1,67,68
 651 438 651 438 601.5 429.5 c 128,-1,69
 552 421 552 421 498 421 c 0,70,71
 420 421 420 421 354 441 c 128,-1,72
 288 461 288 461 240 507 c 128,-1,73
 192 553 192 553 165 627.5 c 128,-1,74
 138 702 138 702 138 811 c 2,75,-1
 138 1226 l 1,76,-1
 -18 1226 l 1,77,-1
 -18 1320 l 1,0,-1
1388 901 m 1,78,79
 1427 932 1427 932 1464.5 970.5 c 128,-1,80
 1502 1009 1502 1009 1531.5 1051 c 128,-1,81
 1561 1093 1561 1093 1579.5 1136 c 128,-1,82
 1598 1179 1598 1179 1598 1219 c 2,83,-1
 1598 1226 l 1,84,-1
 283 1226 l 1,85,-1
 283 975 l 1,86,-1
 1113 975 l 2,87,88
 1188 975 1188 975 1258 959 c 128,-1,89
 1328 943 1328 943 1388 901 c 1,78,79
1388 711 m 1,90,91
 1365 693 1365 693 1323.5 665 c 128,-1,92
 1282 637 1282 637 1240.5 600 c 128,-1,93
 1199 563 1199 563 1168.5 517.5 c 128,-1,94
 1138 472 1138 472 1138 418 c 0,95,96
 1138 330 1138 330 1187 288 c 128,-1,97
 1236 246 1236 246 1318 246 c 0,98,99
 1358 246 1358 246 1389.5 263.5 c 128,-1,100
 1421 281 1421 281 1443 309 c 128,-1,101
 1465 337 1465 337 1476.5 373 c 128,-1,102
 1488 409 1488 409 1488 445 c 0,103,104
 1488 521 1488 521 1462 587.5 c 128,-1,105
 1436 654 1436 654 1388 711 c 1,90,91
EndSplineSet
EndChar

StartChar: u11D7D
Encoding: 89 73085 89
Width: 2103
GlyphClass: 2
Flags: W
AnchorPoint: "M" 1894 1319 basechar 0
AnchorPoint: "L" 0 0 basechar 0
AnchorPoint: "U" 2106 0 basechar 0
LayerCount: 3
Fore
SplineSet
1334 439 m 0,0,1
 1334 410 1334 410 1337 378.5 c 128,-1,2
 1340 347 1340 347 1347.5 315.5 c 128,-1,3
 1355 284 1355 284 1367.5 255 c 128,-1,4
 1380 226 1380 226 1399 204 c 0,5,6
 1429 169 1429 169 1466 156.5 c 128,-1,7
 1503 144 1503 144 1549 144 c 0,8,9
 1628 144 1628 144 1671 187 c 128,-1,10
 1714 230 1714 230 1714 309 c 0,11,12
 1712 358 1712 358 1695 392.5 c 128,-1,13
 1678 427 1678 427 1648.5 448.5 c 128,-1,14
 1619 470 1619 470 1577 479.5 c 128,-1,15
 1535 489 1535 489 1484 489 c 2,16,-1
 1337 489 l 1,17,18
 1334 465 1334 465 1334 439 c 0,0,1
589 949 m 0,19,20
 512 949 512 949 454 910.5 c 128,-1,21
 396 872 396 872 357 813 c 128,-1,22
 318 754 318 754 298.5 683.5 c 128,-1,23
 279 613 279 613 279 549 c 0,24,25
 279 487 279 487 298.5 417.5 c 128,-1,26
 318 348 318 348 357 289.5 c 128,-1,27
 396 231 396 231 454 192.5 c 128,-1,28
 512 154 512 154 589 154 c 0,29,30
 668 154 668 154 726 192 c 128,-1,31
 784 230 784 230 822.5 288 c 128,-1,32
 861 346 861 346 880 416 c 128,-1,33
 899 486 899 486 899 549 c 0,34,35
 899 615 899 615 880 685.5 c 128,-1,36
 861 756 861 756 822.5 814.5 c 128,-1,37
 784 873 784 873 726 911 c 128,-1,38
 668 949 668 949 589 949 c 0,19,20
589 1099 m 0,39,40
 680 1099 680 1099 756.5 1060.5 c 128,-1,41
 833 1022 833 1022 891 958 c 128,-1,42
 949 894 949 894 986.5 811 c 128,-1,43
 1024 728 1024 728 1037 639 c 1,44,-1
 1237 639 l 1,45,46
 1273 712 1273 712 1328 769 c 128,-1,47
 1383 826 1383 826 1445.5 873 c 128,-1,48
 1508 920 1508 920 1571 960.5 c 128,-1,49
 1634 1001 1634 1001 1686.5 1042 c 128,-1,50
 1739 1083 1739 1083 1773.5 1127.5 c 128,-1,51
 1808 1172 1808 1172 1814 1226 c 1,52,-1
 -18 1226 l 1,53,-1
 -18 1319.33398438 l 1,54,-1
 2184 1319.33398438 l 1,55,-1
 2184 1226 l 1,56,-1
 1964 1226 l 1,57,58
 1960 1156 1960 1156 1927.5 1100.5 c 128,-1,59
 1895 1045 1895 1045 1845.5 998.5 c 128,-1,60
 1796 952 1796 952 1735 910 c 128,-1,61
 1674 868 1674 868 1613 826.5 c 128,-1,62
 1552 785 1552 785 1496 739.5 c 128,-1,63
 1440 694 1440 694 1400 639 c 1,64,-1
 1504 639 l 2,65,66
 1580 639 1580 639 1645 617.5 c 128,-1,67
 1710 596 1710 596 1757.5 554 c 128,-1,68
 1805 512 1805 512 1832 449 c 128,-1,69
 1859 386 1859 386 1859 303 c 0,70,71
 1859 235 1859 235 1837 179.5 c 128,-1,72
 1815 124 1815 124 1775 83.5 c 128,-1,73
 1735 43 1735 43 1680 21 c 128,-1,74
 1625 -1 1625 -1 1559 -1 c 0,75,76
 1459 -1 1459 -1 1389 33 c 128,-1,77
 1319 67 1319 67 1274.5 124.5 c 128,-1,78
 1230 182 1230 182 1209.5 259 c 128,-1,79
 1189 336 1189 336 1189 423 c 0,80,81
 1189 440 1189 440 1190 456.5 c 128,-1,82
 1191 473 1191 473 1193 489 c 1,83,-1
 1041 489 l 1,84,85
 1032 402 1032 402 998 315.5 c 128,-1,86
 964 229 964 229 906.5 160 c 128,-1,87
 849 91 849 91 769 47.5 c 128,-1,88
 689 4 689 4 589 4 c 0,89,90
 522 4 522 4 462 26 c 128,-1,91
 402 48 402 48 351.5 86.5 c 128,-1,92
 301 125 301 125 260.5 177 c 128,-1,93
 220 229 220 229 192 289.5 c 128,-1,94
 164 350 164 350 149 416.5 c 128,-1,95
 134 483 134 483 134 549 c 0,96,97
 134 611 134 611 147.5 676.5 c 128,-1,98
 161 742 161 742 188 803 c 128,-1,99
 215 864 215 864 253.5 918 c 128,-1,100
 292 972 292 972 343 1012 c 128,-1,101
 394 1052 394 1052 455.5 1075.5 c 128,-1,102
 517 1099 517 1099 589 1099 c 0,39,40
EndSplineSet
EndChar

StartChar: u11D7E
Encoding: 90 73086 90
Width: 2103
GlyphClass: 2
Flags: W
AnchorPoint: "M" 1894 1318 basechar 0
AnchorPoint: "L" 0 0 basechar 0
AnchorPoint: "U" 2106 0 basechar 0
LayerCount: 3
Fore
SplineSet
589 1099 m 0,0,1
 680 1099 680 1099 756.5 1060.5 c 128,-1,2
 833 1022 833 1022 891 958 c 128,-1,3
 949 894 949 894 986.5 811 c 128,-1,4
 1024 728 1024 728 1037 639 c 1,5,-1
 1237 639 l 1,6,7
 1273 712 1273 712 1328 769 c 128,-1,8
 1383 826 1383 826 1445.5 873 c 128,-1,9
 1508 920 1508 920 1571 960.5 c 128,-1,10
 1634 1001 1634 1001 1686.5 1042 c 128,-1,11
 1739 1083 1739 1083 1773.5 1127.5 c 128,-1,12
 1808 1172 1808 1172 1814 1226 c 1,13,-1
 -18 1226 l 1,14,-1
 -18 1320 l 1,15,-1
 2184 1320 l 1,16,-1
 2184 1226 l 1,17,-1
 1964 1226 l 1,18,19
 1960 1156 1960 1156 1927.5 1100.5 c 128,-1,20
 1895 1045 1895 1045 1845.5 998.5 c 128,-1,21
 1796 952 1796 952 1735 910 c 128,-1,22
 1674 868 1674 868 1613 826.5 c 128,-1,23
 1552 785 1552 785 1496 739.5 c 128,-1,24
 1440 694 1440 694 1400 639 c 1,25,-1
 1504 639 l 2,26,27
 1580 639 1580 639 1645 617.5 c 128,-1,28
 1710 596 1710 596 1757.5 554 c 128,-1,29
 1805 512 1805 512 1832 449 c 128,-1,30
 1859 386 1859 386 1859 303 c 0,31,32
 1859 235 1859 235 1837 179.5 c 128,-1,33
 1815 124 1815 124 1775 83.5 c 128,-1,34
 1735 43 1735 43 1680 21 c 128,-1,35
 1625 -1 1625 -1 1559 -1 c 0,36,37
 1459 -1 1459 -1 1389 33 c 128,-1,38
 1319 67 1319 67 1274.5 124.5 c 128,-1,39
 1230 182 1230 182 1209.5 259 c 128,-1,40
 1189 336 1189 336 1189 423 c 0,41,42
 1189 440 1189 440 1190 456.5 c 128,-1,43
 1191 473 1191 473 1193 489 c 1,44,-1
 1041 489 l 1,45,46
 1032 402 1032 402 998 315.5 c 128,-1,47
 964 229 964 229 906.5 160 c 128,-1,48
 849 91 849 91 769 47.5 c 128,-1,49
 689 4 689 4 589 4 c 0,50,51
 522 4 522 4 462 26 c 128,-1,52
 402 48 402 48 351.5 86.5 c 128,-1,53
 301 125 301 125 260.5 177 c 128,-1,54
 220 229 220 229 192 289.5 c 128,-1,55
 164 350 164 350 149 416.5 c 128,-1,56
 134 483 134 483 134 549 c 0,57,58
 134 611 134 611 147.5 676.5 c 128,-1,59
 161 742 161 742 188 803 c 128,-1,60
 215 864 215 864 253.5 918 c 128,-1,61
 292 972 292 972 343 1012 c 128,-1,62
 394 1052 394 1052 455.5 1075.5 c 128,-1,63
 517 1099 517 1099 589 1099 c 0,0,1
589 154 m 0,64,65
 659 154 659 154 712.5 184 c 128,-1,66
 766 214 766 214 804 262 c 128,-1,67
 842 310 842 310 864.5 370 c 128,-1,68
 887 430 887 430 895 489 c 1,69,-1
 283 489 l 1,70,71
 291 430 291 430 314.5 370.5 c 128,-1,72
 338 311 338 311 376.5 263 c 128,-1,73
 415 215 415 215 468 184.5 c 128,-1,74
 521 154 521 154 589 154 c 0,64,65
589 949 m 0,75,76
 525 949 525 949 474 922 c 128,-1,77
 423 895 423 895 385.5 851 c 128,-1,78
 348 807 348 807 323.5 751.5 c 128,-1,79
 299 696 299 696 288 639 c 1,80,-1
 891 639 l 1,81,82
 880 696 880 696 856.5 752 c 128,-1,83
 833 808 833 808 795.5 851.5 c 128,-1,84
 758 895 758 895 706.5 922 c 128,-1,85
 655 949 655 949 589 949 c 0,75,76
1334 439 m 0,86,87
 1334 410 1334 410 1337 378.5 c 128,-1,88
 1340 347 1340 347 1347.5 315.5 c 128,-1,89
 1355 284 1355 284 1367.5 255 c 128,-1,90
 1380 226 1380 226 1399 204 c 0,91,92
 1429 169 1429 169 1466 156.5 c 128,-1,93
 1503 144 1503 144 1549 144 c 0,94,95
 1628 144 1628 144 1671 187 c 128,-1,96
 1714 230 1714 230 1714 309 c 0,97,98
 1712 358 1712 358 1695 392.5 c 128,-1,99
 1678 427 1678 427 1648.5 448.5 c 128,-1,100
 1619 470 1619 470 1577 479.5 c 128,-1,101
 1535 489 1535 489 1484 489 c 2,102,-1
 1337 489 l 1,103,104
 1334 465 1334 465 1334 439 c 0,86,87
EndSplineSet
EndChar

StartChar: u11D82
Encoding: 91 73090 91
Width: 1592
GlyphClass: 2
Flags: W
AnchorPoint: "M" 1394 1318 basechar 0
AnchorPoint: "L" 0 0 basechar 0
AnchorPoint: "U" 1611 0 basechar 0
LayerCount: 3
Fore
SplineSet
740 182 m 1,0,1
 715 137 715 137 688.5 103 c 128,-1,2
 662 69 662 69 630 46.5 c 128,-1,3
 598 24 598 24 557.5 13 c 128,-1,4
 517 2 517 2 465 2 c 0,5,6
 386 2 386 2 320.5 31 c 128,-1,7
 255 60 255 60 207.5 110.5 c 128,-1,8
 160 161 160 161 133.5 229.5 c 128,-1,9
 107 298 107 298 105 377 c 0,10,11
 107 483 107 483 151.5 561.5 c 128,-1,12
 196 640 196 640 275 694 c 1,13,14
 234 713 234 713 204 743 c 128,-1,15
 174 773 174 773 154 809.5 c 128,-1,16
 134 846 134 846 124.5 887.5 c 128,-1,17
 115 929 115 929 115 972 c 0,18,19
 115 1012 115 1012 124.5 1047.5 c 128,-1,20
 134 1083 134 1083 150.5 1114 c 128,-1,21
 167 1145 167 1145 189 1172.5 c 128,-1,22
 211 1200 211 1200 236 1226 c 1,23,-1
 -18 1226 l 1,24,-1
 -18 1320 l 1,25,-1
 338 1320 l 1,26,27
 368 1347 368 1347 395.5 1375.5 c 128,-1,28
 423 1404 423 1404 444 1435 c 128,-1,29
 465 1466 465 1466 477.5 1501 c 128,-1,30
 490 1536 490 1536 490 1577 c 0,31,32
 490 1652 490 1652 447.5 1697 c 128,-1,33
 405 1742 405 1742 330 1742 c 0,34,35
 298 1742 298 1742 270.5 1734.5 c 128,-1,36
 243 1727 243 1727 223 1711.5 c 128,-1,37
 203 1696 203 1696 191.5 1672.5 c 128,-1,38
 180 1649 180 1649 180 1617 c 0,39,40
 180 1601 180 1601 187 1588.5 c 128,-1,41
 194 1576 194 1576 205 1567 c 128,-1,42
 216 1558 216 1558 230 1553 c 128,-1,43
 244 1548 244 1548 259 1548 c 0,44,45
 278 1548 278 1548 295 1557 c 1,46,-1
 365 1427 l 1,47,48
 316 1402 316 1402 261 1402 c 0,49,50
 217 1402 217 1402 176.5 1417.5 c 128,-1,51
 136 1433 136 1433 104.5 1461.5 c 128,-1,52
 73 1490 73 1490 54 1529.5 c 128,-1,53
 35 1569 35 1569 35 1617 c 0,54,55
 35 1681 35 1681 58 1732 c 128,-1,56
 81 1783 81 1783 120.5 1818.5 c 128,-1,57
 160 1854 160 1854 214 1873 c 128,-1,58
 268 1892 268 1892 330 1892 c 0,59,60
 397 1892 397 1892 454 1868 c 128,-1,61
 511 1844 511 1844 552.5 1802 c 128,-1,62
 594 1760 594 1760 617 1702 c 128,-1,63
 640 1644 640 1644 640 1577 c 0,64,65
 638 1496 638 1496 610.5 1433.5 c 128,-1,66
 583 1371 583 1371 541 1320 c 1,67,-1
 1614 1320 l 1,68,-1
 1614 1226 l 1,69,-1
 1454 1226 l 1,70,-1
 1454 1204 l 2,71,72
 1454 1143 1454 1143 1432 1088.5 c 128,-1,73
 1410 1034 1410 1034 1367.5 978 c 128,-1,74
 1325 922 1325 922 1264 861 c 128,-1,75
 1203 800 1203 800 1125 727 c 1,76,77
 1170 706 1170 706 1207.5 677.5 c 128,-1,78
 1245 649 1245 649 1272.5 611.5 c 128,-1,79
 1300 574 1300 574 1315 527 c 128,-1,80
 1330 480 1330 480 1330 422 c 0,81,82
 1330 366 1330 366 1310 314 c 128,-1,83
 1290 262 1290 262 1254 221 c 128,-1,84
 1218 180 1218 180 1168.5 155.5 c 128,-1,85
 1119 131 1119 131 1060 131 c 0,86,87
 1000 131 1000 131 945.5 151 c 128,-1,88
 891 171 891 171 849.5 207 c 128,-1,89
 808 243 808 243 784 294 c 128,-1,90
 760 345 760 345 760 407 c 0,91,92
 760 476 760 476 778.5 532 c 128,-1,93
 797 588 797 588 835 642 c 1,94,-1
 638 642 l 2,95,96
 548 642 548 642 477 629 c 128,-1,97
 406 616 406 616 356.5 585 c 128,-1,98
 307 554 307 554 281 503 c 128,-1,99
 255 452 255 452 255 377 c 0,100,101
 255 330 255 330 269.5 289 c 128,-1,102
 284 248 284 248 311 217.5 c 128,-1,103
 338 187 338 187 377 169.5 c 128,-1,104
 416 152 416 152 465 152 c 0,105,106
 499 152 499 152 524 161 c 128,-1,107
 549 170 549 170 566.5 184.5 c 128,-1,108
 584 199 584 199 594.5 216.5 c 128,-1,109
 605 234 605 234 610 252 c 1,110,-1
 740 182 l 1,0,1
965 782 m 1,111,112
 1042 847 1042 847 1105 900 c 128,-1,113
 1168 953 1168 953 1213 1002 c 128,-1,114
 1258 1051 1258 1051 1283 1099 c 128,-1,115
 1308 1147 1308 1147 1308 1202 c 2,116,-1
 1308 1226 l 1,117,-1
 450 1226 l 1,118,119
 414 1193 414 1193 380 1162.5 c 128,-1,120
 346 1132 346 1132 319.5 1101.5 c 128,-1,121
 293 1071 293 1071 276.5 1039.5 c 128,-1,122
 260 1008 260 1008 260 972 c 0,123,124
 260 906 260 906 288 869.5 c 128,-1,125
 316 833 316 833 366.5 815.5 c 128,-1,126
 417 798 417 798 487 795 c 128,-1,127
 557 792 557 792 642 792 c 0,128,129
 684 792 684 792 706 792 c 128,-1,130
 728 792 728 792 738 792.5 c 128,-1,131
 748 793 748 793 750.5 793 c 128,-1,132
 753 793 753 793 756 793.5 c 128,-1,133
 759 794 759 794 767 794 c 128,-1,134
 775 794 775 794 796 794 c 0,135,136
 841 794 841 794 882 792 c 128,-1,137
 923 790 923 790 965 782 c 1,111,112
1005 617 m 1,138,139
 960 572 960 572 932.5 522.5 c 128,-1,140
 905 473 905 473 905 407 c 0,141,142
 905 379 905 379 916.5 355 c 128,-1,143
 928 331 928 331 947 314 c 128,-1,144
 966 297 966 297 991.5 287 c 128,-1,145
 1017 277 1017 277 1045 277 c 0,146,147
 1076 277 1076 277 1102 288.5 c 128,-1,148
 1128 300 1128 300 1146.5 319.5 c 128,-1,149
 1165 339 1165 339 1175 365.5 c 128,-1,150
 1185 392 1185 392 1185 422 c 0,151,152
 1185 463 1185 463 1171 494.5 c 128,-1,153
 1157 526 1157 526 1132.5 549.5 c 128,-1,154
 1108 573 1108 573 1075 589.5 c 128,-1,155
 1042 606 1042 606 1005 617 c 1,138,139
EndSplineSet
EndChar

StartChar: u11D83
Encoding: 92 73091 92
Width: 1576
GlyphClass: 2
Flags: W
AnchorPoint: "M" 1394 1318 basechar 0
AnchorPoint: "L" 0 0 basechar 0
AnchorPoint: "U" 1620 0 basechar 0
LayerCount: 3
Fore
SplineSet
-18 1320 m 1,0,-1
 1584 1320 l 1,1,-1
 1584 1226 l 1,2,-1
 1459 1226 l 1,3,-1
 1459 1090 l 2,4,5
 1459 1012 1459 1012 1436 945 c 128,-1,6
 1413 878 1413 878 1373 821 c 128,-1,7
 1333 764 1333 764 1278 717.5 c 128,-1,8
 1223 671 1223 671 1159 635 c 1,9,10
 1243 587 1243 587 1291 510.5 c 128,-1,11
 1339 434 1339 434 1339 340 c 0,12,13
 1341 271 1341 271 1318.5 209 c 128,-1,14
 1296 147 1296 147 1254 100.5 c 128,-1,15
 1212 54 1212 54 1153.5 27 c 128,-1,16
 1095 0 1095 0 1024 0 c 256,17,18
 953 0 953 0 892.5 22.5 c 128,-1,19
 832 45 832 45 788 86 c 128,-1,20
 744 127 744 127 719 185.5 c 128,-1,21
 694 244 694 244 694 315 c 0,22,23
 692 363 692 363 704.5 406.5 c 128,-1,24
 717 450 717 450 740 488 c 128,-1,25
 763 526 763 526 794.5 559 c 128,-1,26
 826 592 826 592 864 620 c 1,27,28
 822 643 822 643 783 668.5 c 128,-1,29
 744 694 744 694 711 727 c 1,30,31
 691 685 691 685 660 649.5 c 128,-1,32
 629 614 629 614 590 588.5 c 128,-1,33
 551 563 551 563 504.5 549 c 128,-1,34
 458 535 458 535 409 535 c 0,35,36
 343 535 343 535 287.5 559 c 128,-1,37
 232 583 232 583 191 624.5 c 128,-1,38
 150 666 150 666 127 722.5 c 128,-1,39
 104 779 104 779 104 845 c 2,40,-1
 106 1226 l 1,41,-1
 -18 1226 l 1,42,-1
 -18 1320 l 1,0,-1
809 840 m 0,43,44
 849 796 849 796 901 767.5 c 128,-1,45
 953 739 953 739 1004 715 c 1,46,47
 1085 762 1085 762 1142.5 806 c 128,-1,48
 1200 850 1200 850 1237 895 c 128,-1,49
 1274 940 1274 940 1291.5 988 c 128,-1,50
 1309 1036 1309 1036 1309 1090 c 2,51,-1
 1309 1226 l 1,52,-1
 754 1226 l 1,53,54
 753 1176 753 1176 750 1124 c 128,-1,55
 747 1072 747 1072 750 1021.5 c 128,-1,56
 753 971 753 971 766 924.5 c 128,-1,57
 779 878 779 878 809 840 c 0,43,44
1014 550 m 1,58,59
 982 527 982 527 950.5 501.5 c 128,-1,60
 919 476 919 476 894 447.5 c 128,-1,61
 869 419 869 419 854 386 c 128,-1,62
 839 353 839 353 839 315 c 0,63,64
 839 233 839 233 890.5 191.5 c 128,-1,65
 942 150 942 150 1024 150 c 0,66,67
 1065 150 1065 150 1097 165 c 128,-1,68
 1129 180 1129 180 1150.5 205.5 c 128,-1,69
 1172 231 1172 231 1183 266 c 128,-1,70
 1194 301 1194 301 1194 340 c 0,71,72
 1192 382 1192 382 1176 413.5 c 128,-1,73
 1160 445 1160 445 1134.5 469 c 128,-1,74
 1109 493 1109 493 1077.5 512.5 c 128,-1,75
 1046 532 1046 532 1014 550 c 1,58,59
604 1226 m 1,76,-1
 256 1226 l 1,77,-1
 255 1136 l 1,78,-1
 610 952 l 1,79,80
 600 1018 600 1018 601.5 1086 c 128,-1,81
 603 1154 603 1154 604 1226 c 1,76,-1
409 680 m 0,82,83
 435 680 435 680 462.5 689 c 128,-1,84
 490 698 490 698 513.5 714 c 128,-1,85
 537 730 537 730 555 752.5 c 128,-1,86
 573 775 573 775 580 801 c 1,87,-1
 254 970 l 1,88,-1
 254 845 l 2,89,90
 252 809 252 809 263.5 779 c 128,-1,91
 275 749 275 749 296 727 c 128,-1,92
 317 705 317 705 346 692.5 c 128,-1,93
 375 680 375 680 409 680 c 0,82,83
EndSplineSet
EndChar

StartChar: u11D84
Encoding: 93 73092 93
Width: 1314
GlyphClass: 2
Flags: W
AnchorPoint: "M" 1132 1318 basechar 0
AnchorPoint: "L" 0 0 basechar 0
AnchorPoint: "U" 1341 0 basechar 0
LayerCount: 3
Fore
SplineSet
-18 1320 m 1,0,-1
 1344 1320 l 1,1,-1
 1344 1226 l 1,2,-1
 1196 1226 l 1,3,-1
 1196 1091 l 2,4,5
 1196 1017 1196 1017 1168 951.5 c 128,-1,6
 1140 886 1140 886 1094.5 829.5 c 128,-1,7
 1049 773 1049 773 991.5 726.5 c 128,-1,8
 934 680 934 680 876 646 c 0,9,10
 858 638 858 638 851 631 c 1,11,12
 891 610 891 610 925.5 581 c 128,-1,13
 960 552 960 552 985.5 514.5 c 128,-1,14
 1011 477 1011 477 1026 431 c 128,-1,15
 1041 385 1041 385 1041 331 c 0,16,17
 1041 263 1041 263 1018 203 c 128,-1,18
 995 143 995 143 953 98 c 128,-1,19
 911 53 911 53 852 27 c 128,-1,20
 793 1 793 1 721 1 c 0,21,22
 652 1 652 1 592.5 23.5 c 128,-1,23
 533 46 533 46 488.5 87 c 128,-1,24
 444 128 444 128 418.5 186.5 c 128,-1,25
 393 245 393 245 391 316 c 0,26,27
 391 400 391 400 424 463.5 c 128,-1,28
 457 527 457 527 511 576 c 1,29,30
 467 590 467 590 422 605 c 128,-1,31
 377 620 377 620 334 640.5 c 128,-1,32
 291 661 291 661 253 688 c 128,-1,33
 215 715 215 715 187 752 c 128,-1,34
 159 789 159 789 142.5 838 c 128,-1,35
 126 887 126 887 126 951 c 0,36,37
 126 1005 126 1005 148.5 1048.5 c 128,-1,38
 171 1092 171 1092 208 1122.5 c 128,-1,39
 245 1153 245 1153 292.5 1169.5 c 128,-1,40
 340 1186 340 1186 391 1186 c 0,41,42
 447 1186 447 1186 493 1166.5 c 128,-1,43
 539 1147 539 1147 572 1111.5 c 128,-1,44
 605 1076 605 1076 623 1027.5 c 128,-1,45
 641 979 641 979 641 921 c 0,46,47
 641 864 641 864 612 814 c 128,-1,48
 583 764 583 764 541 726 c 1,49,50
 575 715 575 715 607.5 707 c 128,-1,51
 640 699 640 699 666 691 c 1,52,53
 700 714 700 714 733.5 732.5 c 128,-1,54
 767 751 767 751 801 771 c 0,55,56
 840 793 840 793 884 827 c 128,-1,57
 928 861 928 861 965 902.5 c 128,-1,58
 1002 944 1002 944 1026.5 992 c 128,-1,59
 1051 1040 1051 1040 1051 1091 c 2,60,-1
 1051 1226 l 1,61,-1
 -18 1226 l 1,62,-1
 -18 1320 l 1,0,-1
691 536 m 1,63,64
 662 515 662 515 634.5 491.5 c 128,-1,65
 607 468 607 468 586 442 c 128,-1,66
 565 416 565 416 552 389.5 c 128,-1,67
 539 363 539 363 539 336 c 0,68,69
 539 242 539 242 586 196.5 c 128,-1,70
 633 151 633 151 721 151 c 0,71,72
 762 151 762 151 794.5 166 c 128,-1,73
 827 181 827 181 849.5 206.5 c 128,-1,74
 872 232 872 232 884 267 c 128,-1,75
 896 302 896 302 896 341 c 0,76,77
 894 382 894 382 876 413.5 c 128,-1,78
 858 445 858 445 829.5 468.5 c 128,-1,79
 801 492 801 492 765 508.5 c 128,-1,80
 729 525 729 525 691 536 c 1,63,64
386 791 m 1,81,82
 406 804 406 804 425 820 c 128,-1,83
 444 836 444 836 458.5 854 c 128,-1,84
 473 872 473 872 482 893 c 128,-1,85
 491 914 491 914 491 938 c 0,86,87
 491 983 491 983 465.5 1009.5 c 128,-1,88
 440 1036 440 1036 391 1036 c 0,89,90
 370 1036 370 1036 349 1031 c 128,-1,91
 328 1026 328 1026 310.5 1015.5 c 128,-1,92
 293 1005 293 1005 282 987.5 c 128,-1,93
 271 970 271 970 271 946 c 0,94,95
 271 897 271 897 301.5 859 c 128,-1,96
 332 821 332 821 386 791 c 1,81,82
EndSplineSet
EndChar

StartChar: u11D73
Encoding: 94 73075 94
Width: 1673
GlyphClass: 2
Flags: W
AnchorPoint: "M" 1472 1318 basechar 0
AnchorPoint: "L" 0 0 basechar 0
AnchorPoint: "U" 1692 0 basechar 0
LayerCount: 3
Fore
SplineSet
-48 1320 m 1,0,-1
 1714 1320 l 1,1,-1
 1714 1226 l 1,2,-1
 1538 1226 l 1,3,4
 1536 1187 1536 1187 1513 1148 c 128,-1,5
 1490 1109 1490 1109 1449 1067.5 c 128,-1,6
 1408 1026 1408 1026 1350.5 981.5 c 128,-1,7
 1293 937 1293 937 1223 888 c 1,8,9
 1263 861 1263 861 1297 828 c 128,-1,10
 1331 795 1331 795 1356 756 c 128,-1,11
 1381 717 1381 717 1394.5 671.5 c 128,-1,12
 1408 626 1408 626 1408 573 c 0,13,14
 1408 505 1408 505 1385 445 c 128,-1,15
 1362 385 1362 385 1320 340 c 128,-1,16
 1278 295 1278 295 1219 269 c 128,-1,17
 1160 243 1160 243 1088 243 c 0,18,19
 1019 243 1019 243 959.5 266.5 c 128,-1,20
 900 290 900 290 855.5 332 c 128,-1,21
 811 374 811 374 785.5 433 c 128,-1,22
 760 492 760 492 758 563 c 0,23,24
 758 610 758 610 770.5 652 c 128,-1,25
 783 694 783 694 805.5 730 c 128,-1,26
 828 766 828 766 858 796 c 128,-1,27
 888 826 888 826 923 849 c 1,28,29
 895 854 895 854 863.5 858 c 128,-1,30
 832 862 832 862 806 862 c 0,31,32
 684 862 684 862 581 818 c 128,-1,33
 478 774 478 774 403.5 699 c 128,-1,34
 329 624 329 624 287.5 525 c 128,-1,35
 246 426 246 426 246 317 c 0,36,37
 246 251 246 251 263.5 185.5 c 128,-1,38
 281 120 281 120 313 68 c 1,39,-1
 188 -7 l 1,40,41
 143 65 143 65 120 153 c 128,-1,42
 97 241 97 241 97 331 c 0,43,44
 97 430 97 430 124 519 c 128,-1,45
 151 608 151 608 199.5 683.5 c 128,-1,46
 248 759 248 759 314.5 819 c 128,-1,47
 381 879 381 879 460 921.5 c 128,-1,48
 539 964 539 964 627.5 986.5 c 128,-1,49
 716 1009 716 1009 807 1009 c 0,50,51
 876 1009 876 1009 945 995.5 c 128,-1,52
 1014 982 1014 982 1083 953 c 1,53,54
 1136 993 1136 993 1187 1028 c 128,-1,55
 1238 1063 1238 1063 1279.5 1096 c 128,-1,56
 1321 1129 1321 1129 1349 1160.5 c 128,-1,57
 1377 1192 1377 1192 1385 1226 c 1,58,-1
 -48 1226 l 1,59,-1
 -48 1320 l 1,0,-1
1092 800 m 1,60,61
 1063 783 1063 783 1030.5 760 c 128,-1,62
 998 737 998 737 971 708.5 c 128,-1,63
 944 680 944 680 926 646 c 128,-1,64
 908 612 908 612 908 574 c 0,65,66
 908 487 908 487 957 440 c 128,-1,67
 1006 393 1006 393 1088 393 c 0,68,69
 1129 393 1129 393 1161.5 407 c 128,-1,70
 1194 421 1194 421 1216.5 446 c 128,-1,71
 1239 471 1239 471 1251 505 c 128,-1,72
 1263 539 1263 539 1263 578 c 0,73,74
 1263 627 1263 627 1245.5 663.5 c 128,-1,75
 1228 700 1228 700 1202 726.5 c 128,-1,76
 1176 753 1176 753 1146 771 c 128,-1,77
 1116 789 1116 789 1092 800 c 1,60,61
EndSplineSet
EndChar

StartChar: u11D74
Encoding: 95 73076 95
Width: 2155
GlyphClass: 2
Flags: W
AnchorPoint: "M" 1952 1318 basechar 0
AnchorPoint: "L" 0 0 basechar 0
AnchorPoint: "U" 2151 0 basechar 0
LayerCount: 3
Fore
SplineSet
932 1320 m 1,0,-1
 2194 1320 l 1,1,-1
 2194 1226 l 1,2,-1
 2014 1226 l 1,3,-1
 2014 1196 l 2,4,5
 2014 1152 2014 1152 1994.5 1109 c 128,-1,6
 1975 1066 1975 1066 1939.5 1021.5 c 128,-1,7
 1904 977 1904 977 1854.5 931 c 128,-1,8
 1805 885 1805 885 1745 836 c 1,9,10
 1809 764 1809 764 1845 677 c 128,-1,11
 1881 590 1881 590 1885 491 c 0,12,13
 1885 422 1885 422 1862.5 356 c 128,-1,14
 1840 290 1840 290 1798 239 c 128,-1,15
 1756 188 1756 188 1697 157 c 128,-1,16
 1638 126 1638 126 1565 126 c 0,17,18
 1493 126 1493 126 1432.5 149 c 128,-1,19
 1372 172 1372 172 1328 214.5 c 128,-1,20
 1284 257 1284 257 1259.5 316.5 c 128,-1,21
 1235 376 1235 376 1235 450 c 0,22,23
 1235 513 1235 513 1259.5 569 c 128,-1,24
 1284 625 1284 625 1323 673 c 128,-1,25
 1362 721 1362 721 1411 760.5 c 128,-1,26
 1460 800 1460 800 1510 831 c 1,27,28
 1451 866 1451 866 1384 866 c 2,29,-1
 1140 866 l 1,30,-1
 1140 571 l 2,31,32
 1140 455 1140 455 1112 350.5 c 128,-1,33
 1084 246 1084 246 1024 167 c 128,-1,34
 964 88 964 88 870 42 c 128,-1,35
 776 -4 776 -4 645 -4 c 0,36,37
 548 -4 548 -4 461 27.5 c 128,-1,38
 374 59 374 59 307.5 116 c 128,-1,39
 241 173 241 173 200.5 252 c 128,-1,40
 160 331 160 331 155 426 c 1,41,-1
 155 741 l 1,42,-1
 230 736 l 2,43,44
 249 734 249 734 269.5 733 c 128,-1,45
 290 732 290 732 312 732 c 0,46,47
 394 732 394 732 459 749.5 c 128,-1,48
 524 767 524 767 568.5 805 c 128,-1,49
 613 843 613 843 636.5 902.5 c 128,-1,50
 660 962 660 962 660 1046 c 0,51,52
 660 1106 660 1106 644.5 1157.5 c 128,-1,53
 629 1209 629 1209 598.5 1246.5 c 128,-1,54
 568 1284 568 1284 521.5 1305.5 c 128,-1,55
 475 1327 475 1327 414 1327 c 0,56,57
 379 1327 379 1327 345 1317 c 128,-1,58
 311 1307 311 1307 284.5 1287.5 c 128,-1,59
 258 1268 258 1268 241.5 1238.5 c 128,-1,60
 225 1209 225 1209 225 1171 c 0,61,62
 225 1102 225 1102 262.5 1071.5 c 128,-1,63
 300 1041 300 1041 360 1041 c 0,64,65
 434 1041 434 1041 434 1102 c 0,66,67
 434 1118 434 1118 430 1131 c 1,68,-1
 575 1161 l 1,69,70
 581 1132 581 1132 581 1105 c 0,71,72
 581 1058 581 1058 565.5 1019 c 128,-1,73
 550 980 550 980 521 951.5 c 128,-1,74
 492 923 492 923 451.5 907 c 128,-1,75
 411 891 411 891 360 891 c 0,76,77
 298 891 298 891 246.5 911 c 128,-1,78
 195 931 195 931 158 967.5 c 128,-1,79
 121 1004 121 1004 100.5 1055.5 c 128,-1,80
 80 1107 80 1107 80 1171 c 0,81,82
 80 1237 80 1237 106.5 1293 c 128,-1,83
 133 1349 133 1349 178 1389.5 c 128,-1,84
 223 1430 223 1430 282 1453 c 128,-1,85
 341 1476 341 1476 406 1476 c 0,86,87
 504 1476 504 1476 578.5 1444.5 c 128,-1,88
 653 1413 653 1413 703.5 1356 c 128,-1,89
 754 1299 754 1299 779.5 1220 c 128,-1,90
 805 1141 805 1141 805 1046 c 0,91,92
 805 937 805 937 769.5 846.5 c 128,-1,93
 734 756 734 756 668 693.5 c 128,-1,94
 602 631 602 631 508.5 602 c 128,-1,95
 415 573 415 573 300 586 c 1,96,-1
 300 431 l 1,97,98
 308 359 308 359 338 305.5 c 128,-1,99
 368 252 368 252 414 216.5 c 128,-1,100
 460 181 460 181 519.5 163.5 c 128,-1,101
 579 146 579 146 645 146 c 0,102,103
 743 146 743 146 810 181.5 c 128,-1,104
 877 217 877 217 918 276 c 128,-1,105
 959 335 959 335 977 411.5 c 128,-1,106
 995 488 995 488 995 571 c 2,107,-1
 995 1016 l 1,108,-1
 1360 1016 l 2,109,110
 1432 1016 1432 1016 1501 994.5 c 128,-1,111
 1570 973 1570 973 1630 931 c 1,112,113
 1678 970 1678 970 1721 1006 c 128,-1,114
 1764 1042 1764 1042 1796.5 1075.5 c 128,-1,115
 1829 1109 1829 1109 1848.5 1141.5 c 128,-1,116
 1868 1174 1868 1174 1868 1207 c 2,117,-1
 1868 1226 l 1,118,-1
 932 1226 l 1,119,-1
 932 1320 l 1,0,-1
1630 741 m 1,120,121
 1595 715 1595 715 1552 683.5 c 128,-1,122
 1509 652 1509 652 1471 615 c 128,-1,123
 1433 578 1433 578 1407 534.5 c 128,-1,124
 1381 491 1381 491 1380 441 c 0,125,126
 1384 357 1384 357 1435 316.5 c 128,-1,127
 1486 276 1486 276 1565 276 c 0,128,129
 1605 276 1605 276 1636.5 293.5 c 128,-1,130
 1668 311 1668 311 1690 339 c 128,-1,131
 1712 367 1712 367 1723.5 403 c 128,-1,132
 1735 439 1735 439 1735 475 c 0,133,134
 1735 627 1735 627 1630 741 c 1,120,121
EndSplineSet
EndChar

StartChar: u11D78
Encoding: 96 73080 96
Width: 1813
GlyphClass: 2
Flags: W
AnchorPoint: "M" 1772 1318 basechar 0
AnchorPoint: "L" 0 0 basechar 0
AnchorPoint: "U" 1962 0 basechar 0
LayerCount: 3
Fore
SplineSet
1172 747 m 1,0,1
 1211 794 1211 794 1262.5 838 c 128,-1,2
 1314 882 1314 882 1369 923 c 128,-1,3
 1424 964 1424 964 1478 1002.5 c 128,-1,4
 1532 1041 1532 1041 1576 1078.5 c 128,-1,5
 1620 1116 1620 1116 1649.5 1152.5 c 128,-1,6
 1679 1189 1679 1189 1685 1226 c 1,7,-1
 -18 1226 l 1,8,-1
 -18 1320 l 1,9,-1
 1984 1320 l 1,10,-1
 1984 1226 l 1,11,-1
 1832 1226 l 1,12,13
 1830 1174 1830 1174 1802 1126.5 c 128,-1,14
 1774 1079 1774 1079 1730.5 1035 c 128,-1,15
 1687 991 1687 991 1632.5 950.5 c 128,-1,16
 1578 910 1578 910 1524.5 872 c 128,-1,17
 1471 834 1471 834 1422.5 799 c 128,-1,18
 1374 764 1374 764 1342 732 c 1,19,20
 1417 717 1417 717 1481.5 685.5 c 128,-1,21
 1546 654 1546 654 1594 604.5 c 128,-1,22
 1642 555 1642 555 1669.5 486 c 128,-1,23
 1697 417 1697 417 1697 327 c 0,24,25
 1695 263 1695 263 1670.5 206.5 c 128,-1,26
 1646 150 1646 150 1604.5 108 c 128,-1,27
 1563 66 1563 66 1507 41.5 c 128,-1,28
 1451 17 1451 17 1387 17 c 0,29,30
 1307 17 1307 17 1245.5 44.5 c 128,-1,31
 1184 72 1184 72 1142 121.5 c 128,-1,32
 1100 171 1100 171 1078 238 c 128,-1,33
 1056 305 1056 305 1056 385 c 0,34,35
 1056 442 1056 442 1066.5 491.5 c 128,-1,36
 1077 541 1077 541 1097 592 c 1,37,38
 1046 586 1046 586 999.5 575 c 128,-1,39
 953 564 953 564 912 547 c 1,40,41
 912 483 912 483 897.5 417 c 128,-1,42
 883 351 883 351 854.5 289.5 c 128,-1,43
 826 228 826 228 783.5 174.5 c 128,-1,44
 741 121 741 121 685.5 81 c 128,-1,45
 630 41 630 41 561.5 18 c 128,-1,46
 493 -5 493 -5 412 -5 c 0,47,48
 346 -5 346 -5 280 13.5 c 128,-1,49
 214 32 214 32 161 69 c 128,-1,50
 108 106 108 106 75 160.5 c 128,-1,51
 42 215 42 215 42 286 c 1,52,-1
 187 287 l 1,53,54
 187 252 187 252 208.5 225.5 c 128,-1,55
 230 199 230 199 263.5 181 c 128,-1,56
 297 163 297 163 337.5 154 c 128,-1,57
 378 145 378 145 416 145 c 0,58,59
 507 145 507 145 572.5 182.5 c 128,-1,60
 638 220 638 220 680 278.5 c 128,-1,61
 722 337 722 337 742 408 c 128,-1,62
 762 479 762 479 762 547 c 0,63,64
 762 630 762 630 743.5 702 c 128,-1,65
 725 774 725 774 688 827.5 c 128,-1,66
 651 881 651 881 595.5 911.5 c 128,-1,67
 540 942 540 942 467 942 c 0,68,69
 438 942 438 942 409.5 937.5 c 128,-1,70
 381 933 381 933 358.5 921.5 c 128,-1,71
 336 910 336 910 321.5 890.5 c 128,-1,72
 307 871 307 871 307 842 c 0,73,74
 307 804 307 804 335.5 783 c 128,-1,75
 364 762 364 762 402 762 c 0,76,77
 418 762 418 762 434 764 c 128,-1,78
 450 766 450 766 463 772.5 c 128,-1,79
 476 779 476 779 484 790.5 c 128,-1,80
 492 802 492 802 492 822 c 1,81,-1
 637 822 l 1,82,83
 637 768 637 768 615.5 728 c 128,-1,84
 594 688 594 688 560.5 662.5 c 128,-1,85
 527 637 527 637 485 624.5 c 128,-1,86
 443 612 443 612 402 612 c 0,87,88
 360 612 360 612 317 627 c 128,-1,89
 274 642 274 642 239.5 670.5 c 128,-1,90
 205 699 205 699 183 740.5 c 128,-1,91
 161 782 161 782 161 836 c 0,92,93
 161 900 161 900 186.5 948 c 128,-1,94
 212 996 212 996 254.5 1028 c 128,-1,95
 297 1060 297 1060 352.5 1076 c 128,-1,96
 408 1092 408 1092 467 1092 c 0,97,98
 552 1092 552 1092 622 1059 c 128,-1,99
 692 1026 692 1026 746 971 c 128,-1,100
 800 916 800 916 837 845 c 128,-1,101
 874 774 874 774 893 698 c 1,102,103
 962 722 962 722 1034 734.5 c 128,-1,104
 1106 747 1106 747 1172 747 c 1,0,1
1257 597 m 1,105,106
 1231 543 1231 543 1216.5 486 c 128,-1,107
 1202 429 1202 429 1202 357 c 0,108,109
 1205 314 1205 314 1217.5 279 c 128,-1,110
 1230 244 1230 244 1252.5 219 c 128,-1,111
 1275 194 1275 194 1308.5 180.5 c 128,-1,112
 1342 167 1342 167 1387 167 c 0,113,114
 1426 167 1426 167 1456 182 c 128,-1,115
 1486 197 1486 197 1506.5 222 c 128,-1,116
 1527 247 1527 247 1537.5 279 c 128,-1,117
 1548 311 1548 311 1548 346 c 0,118,119
 1548 406 1548 406 1524 450.5 c 128,-1,120
 1500 495 1500 495 1460 525.5 c 128,-1,121
 1420 556 1420 556 1367 573.5 c 128,-1,122
 1314 591 1314 591 1257 597 c 1,105,106
EndSplineSet
EndChar

StartChar: u11D79
Encoding: 97 73081 97
Width: 1558
GlyphClass: 2
Flags: W
AnchorPoint: "M" 1352 1318 basechar 0
AnchorPoint: "L" 0 0 basechar 0
AnchorPoint: "U" 1566 0 basechar 0
LayerCount: 3
Fore
SplineSet
431 1181 m 0,0,1
 493 1181 493 1181 553 1166 c 1,2,3
 554 1182 554 1182 554.5 1197 c 128,-1,4
 555 1212 555 1212 557 1226 c 1,5,-1
 -18 1226 l 1,6,-1
 -18 1320 l 1,7,-1
 1574 1320 l 1,8,-1
 1574 1226 l 1,9,-1
 1418 1226 l 1,10,-1
 1418 1085 l 2,11,12
 1418 1010 1418 1010 1395.5 943 c 128,-1,13
 1373 876 1373 876 1333 818.5 c 128,-1,14
 1293 761 1293 761 1238 714.5 c 128,-1,15
 1183 668 1183 668 1118 635 c 1,16,17
 1215 570 1215 570 1256.5 496 c 128,-1,18
 1298 422 1298 422 1298 329 c 0,19,20
 1298 260 1298 260 1275 199.5 c 128,-1,21
 1252 139 1252 139 1210.5 95 c 128,-1,22
 1169 51 1169 51 1111 25.5 c 128,-1,23
 1053 0 1053 0 983 0 c 0,24,25
 912 0 912 0 851.5 21.5 c 128,-1,26
 791 43 791 43 746.5 83.5 c 128,-1,27
 702 124 702 124 676 181.5 c 128,-1,28
 650 239 650 239 648 310 c 0,29,30
 648 361 648 361 661 404.5 c 128,-1,31
 674 448 674 448 697.5 486 c 128,-1,32
 721 524 721 524 753 557 c 128,-1,33
 785 590 785 590 823 620 c 1,34,35
 791 636 791 636 759.5 655 c 128,-1,36
 728 674 728 674 699 698 c 1,37,38
 675 659 675 659 638.5 628 c 128,-1,39
 602 597 602 597 560 575.5 c 128,-1,40
 518 554 518 554 473 542 c 128,-1,41
 428 530 428 530 385 530 c 0,42,43
 319 530 319 530 259.5 553 c 128,-1,44
 200 576 200 576 154.5 618 c 128,-1,45
 109 660 109 660 82 718 c 128,-1,46
 55 776 55 776 55 845 c 0,47,48
 55 920 55 920 85.5 982 c 128,-1,49
 116 1044 116 1044 167.5 1088 c 128,-1,50
 219 1132 219 1132 287.5 1156.5 c 128,-1,51
 356 1181 356 1181 431 1181 c 0,0,1
699 1098 m 0,52,53
 699 1060 699 1060 702 1022 c 128,-1,54
 705 984 705 984 713 949 c 128,-1,55
 721 914 721 914 734.5 884.5 c 128,-1,56
 748 855 748 855 768 835 c 0,57,58
 786 815 786 815 810 798.5 c 128,-1,59
 834 782 834 782 860 767.5 c 128,-1,60
 886 753 886 753 913 740 c 128,-1,61
 940 727 940 727 963 715 c 1,62,63
 1024 750 1024 750 1079.5 786 c 128,-1,64
 1135 822 1135 822 1177 865 c 128,-1,65
 1219 908 1219 908 1243.5 961.5 c 128,-1,66
 1268 1015 1268 1015 1268 1085 c 2,67,-1
 1268 1226 l 1,68,-1
 706 1226 l 1,69,70
 703 1198 703 1198 701 1165.5 c 128,-1,71
 699 1133 699 1133 699 1098 c 0,52,53
522 723 m 1,72,73
 553 743 553 743 574.5 772.5 c 128,-1,74
 596 802 596 802 596 840 c 1,75,-1
 597 840 l 1,76,77
 582 878 582 878 572.5 925 c 128,-1,78
 563 972 563 972 558 1022 c 1,79,80
 529 1032 529 1032 498.5 1037.5 c 128,-1,81
 468 1043 468 1043 438 1043 c 0,82,83
 412 1043 412 1043 387 1040 c 128,-1,84
 362 1037 362 1037 339 1029 c 1,85,-1
 522 723 l 1,72,73
243 970 m 1,86,87
 221 945 221 945 209 911 c 128,-1,88
 197 877 197 877 197 832 c 0,89,90
 197 796 197 796 213.5 767.5 c 128,-1,91
 230 739 230 739 256.5 718.5 c 128,-1,92
 283 698 283 698 316.5 687 c 128,-1,93
 350 676 350 676 385 676 c 0,94,95
 398 676 398 676 413 679 c 1,96,-1
 243 970 l 1,86,87
973 545 m 1,97,98
 936 521 936 521 904 495 c 128,-1,99
 872 469 872 469 848.5 440.5 c 128,-1,100
 825 412 825 412 811.5 380.5 c 128,-1,101
 798 349 798 349 798 315 c 0,102,103
 798 231 798 231 848.5 188 c 128,-1,104
 899 145 899 145 983 145 c 0,105,106
 1024 145 1024 145 1056 160.5 c 128,-1,107
 1088 176 1088 176 1109.5 202.5 c 128,-1,108
 1131 229 1131 229 1142 263 c 128,-1,109
 1153 297 1153 297 1153 335 c 0,110,111
 1153 375 1153 375 1138.5 406.5 c 128,-1,112
 1124 438 1124 438 1099.5 463 c 128,-1,113
 1075 488 1075 488 1042 508 c 128,-1,114
 1009 528 1009 528 973 545 c 1,97,98
EndSplineSet
EndChar

StartChar: u11D7A
Encoding: 98 73082 98
Width: 1347
GlyphClass: 2
Flags: W
AnchorPoint: "M" 1132 1318 basechar 0
AnchorPoint: "L" 0 0 basechar 0
AnchorPoint: "U" 1350 0 basechar 0
LayerCount: 3
Fore
SplineSet
-18 1320 m 1,0,-1
 1414 1320 l 1,1,-1
 1414 1226 l 1,2,-1
 1206 1226 l 1,3,-1
 1206 580 l 2,4,5
 1206 455 1206 455 1172.5 349 c 128,-1,6
 1139 243 1139 243 1073 165.5 c 128,-1,7
 1007 88 1007 88 909 44 c 128,-1,8
 811 0 811 0 681 0 c 256,9,10
 551 0 551 0 453.5 44 c 128,-1,11
 356 88 356 88 291 165 c 128,-1,12
 226 242 226 242 193.5 347 c 128,-1,13
 161 452 161 452 161 575 c 2,14,-1
 162 1226 l 1,15,-1
 -18 1226 l 1,16,-1
 -18 1320 l 1,0,-1
681 150 m 0,17,18
 782 150 782 150 853.5 181.5 c 128,-1,19
 925 213 925 213 970 270 c 128,-1,20
 1015 327 1015 327 1035.5 406 c 128,-1,21
 1056 485 1056 485 1056 580 c 2,22,-1
 1056 1226 l 1,23,-1
 306 1226 l 1,24,-1
 306 575 l 2,25,26
 306 482 306 482 327.5 404 c 128,-1,27
 349 326 349 326 395 269.5 c 128,-1,28
 441 213 441 213 511.5 181.5 c 128,-1,29
 582 150 582 150 681 150 c 0,17,18
681 870 m 256,30,31
 711 870 711 870 737.5 858.5 c 128,-1,32
 764 847 764 847 783.5 827.5 c 128,-1,33
 803 808 803 808 814.5 781.5 c 128,-1,34
 826 755 826 755 826 725 c 256,35,36
 826 695 826 695 814.5 668.5 c 128,-1,37
 803 642 803 642 783.5 622.5 c 128,-1,38
 764 603 764 603 737.5 591.5 c 128,-1,39
 711 580 711 580 681 580 c 256,40,41
 651 580 651 580 624.5 591.5 c 128,-1,42
 598 603 598 603 578.5 622.5 c 128,-1,43
 559 642 559 642 547.5 668.5 c 128,-1,44
 536 695 536 695 536 725 c 256,45,46
 536 755 536 755 547.5 781.5 c 128,-1,47
 559 808 559 808 578.5 827.5 c 128,-1,48
 598 847 598 847 624.5 858.5 c 128,-1,49
 651 870 651 870 681 870 c 256,30,31
EndSplineSet
EndChar

StartChar: u11D85
Encoding: 99 73093 99
Width: 2087
GlyphClass: 2
Flags: W
AnchorPoint: "M" 1882 1318 basechar 0
AnchorPoint: "L" 0 0 basechar 0
AnchorPoint: "U" 2097 0 basechar 0
LayerCount: 3
Fore
SplineSet
-18 1320 m 1,0,-1
 2104 1320 l 1,1,-1
 2104 1226 l 1,2,-1
 1947 1226 l 1,3,-1
 1947 1202 l 2,4,5
 1947 1101 1947 1101 1880 1007.5 c 128,-1,6
 1813 914 1813 914 1685 820 c 1,7,8
 1754 751 1754 751 1797 665.5 c 128,-1,9
 1840 580 1840 580 1840 480 c 0,10,11
 1840 412 1840 412 1817 348 c 128,-1,12
 1794 284 1794 284 1752 234.5 c 128,-1,13
 1710 185 1710 185 1651 155 c 128,-1,14
 1592 125 1592 125 1520 125 c 0,15,16
 1451 125 1451 125 1390.5 145.5 c 128,-1,17
 1330 166 1330 166 1285.5 206 c 128,-1,18
 1241 246 1241 246 1215.5 304.5 c 128,-1,19
 1190 363 1190 363 1190 440 c 0,20,21
 1190 500 1190 500 1211.5 553.5 c 128,-1,22
 1233 607 1233 607 1267.5 653.5 c 128,-1,23
 1302 700 1302 700 1346 740.5 c 128,-1,24
 1390 781 1390 781 1435 815 c 1,25,26
 1410 836 1410 836 1381.5 847 c 128,-1,27
 1353 858 1353 858 1323 863 c 128,-1,28
 1293 868 1293 868 1263 869 c 128,-1,29
 1233 870 1233 870 1205 870 c 2,30,-1
 940 870 l 1,31,32
 1012 789 1012 789 1041 698 c 128,-1,33
 1070 607 1070 607 1070 516 c 0,34,35
 1070 400 1070 400 1038 304.5 c 128,-1,36
 1006 209 1006 209 943 141 c 128,-1,37
 880 73 880 73 787 36 c 128,-1,38
 694 -1 694 -1 572 -1 c 0,39,40
 483 -1 483 -1 400 28 c 128,-1,41
 317 57 317 57 252.5 111.5 c 128,-1,42
 188 166 188 166 149 243.5 c 128,-1,43
 110 321 110 321 110 417 c 0,44,45
 110 484 110 484 131.5 539.5 c 128,-1,46
 153 595 153 595 192.5 635 c 128,-1,47
 232 675 232 675 287 697.5 c 128,-1,48
 342 720 342 720 410 720 c 0,49,50
 462 720 462 720 509.5 701.5 c 128,-1,51
 557 683 557 683 594 650 c 128,-1,52
 631 617 631 617 653 571.5 c 128,-1,53
 675 526 675 526 675 472 c 0,54,55
 675 419 675 419 653.5 374 c 128,-1,56
 632 329 632 329 595 296 c 128,-1,57
 558 263 558 263 509 244.5 c 128,-1,58
 460 226 460 226 406 226 c 0,59,60
 383 226 383 226 360.5 229 c 128,-1,61
 338 232 338 232 315 240 c 1,62,63
 338 211 338 211 373 192.5 c 128,-1,64
 408 174 408 174 447.5 163.5 c 128,-1,65
 487 153 487 153 528 149 c 128,-1,66
 569 145 569 145 605 145 c 0,67,68
 690 145 690 145 751 177 c 128,-1,69
 812 209 812 209 850.5 262.5 c 128,-1,70
 889 316 889 316 907 385.5 c 128,-1,71
 925 455 925 455 925 530 c 1,72,73
 920 602 920 602 894.5 663 c 128,-1,74
 869 724 869 724 826 769 c 128,-1,75
 783 814 783 814 725.5 839.5 c 128,-1,76
 668 865 668 865 600 865 c 2,77,-1
 150 865 l 1,78,-1
 150 1015 l 1,79,-1
 1234 1016 l 2,80,81
 1276 1016 1276 1016 1319 1011 c 128,-1,82
 1362 1006 1362 1006 1404 994 c 128,-1,83
 1446 982 1446 982 1486.5 961.5 c 128,-1,84
 1527 941 1527 941 1565 910 c 1,85,86
 1615 944 1615 944 1658 977.5 c 128,-1,87
 1701 1011 1701 1011 1732.5 1046.5 c 128,-1,88
 1764 1082 1764 1082 1782 1120.5 c 128,-1,89
 1800 1159 1800 1159 1800 1202 c 2,90,-1
 1800 1226 l 1,91,-1
 -18 1226 l 1,92,-1
 -18 1320 l 1,0,-1
1570 725 m 1,93,94
 1535 706 1535 706 1494.5 675.5 c 128,-1,95
 1454 645 1454 645 1419.5 607.5 c 128,-1,96
 1385 570 1385 570 1362.5 528.5 c 128,-1,97
 1340 487 1340 487 1340 445 c 0,98,99
 1340 404 1340 404 1353.5 372 c 128,-1,100
 1367 340 1367 340 1391 318.5 c 128,-1,101
 1415 297 1415 297 1448 286 c 128,-1,102
 1481 275 1481 275 1520 275 c 0,103,104
 1561 275 1561 275 1593.5 294.5 c 128,-1,105
 1626 314 1626 314 1648.5 344.5 c 128,-1,106
 1671 375 1671 375 1683 412 c 128,-1,107
 1695 449 1695 449 1695 485 c 0,108,109
 1695 529 1695 529 1683 565.5 c 128,-1,110
 1671 602 1671 602 1652.5 632 c 128,-1,111
 1634 662 1634 662 1612 685 c 128,-1,112
 1590 708 1590 708 1570 725 c 1,93,94
265 355 m 1,113,114
 302 347 302 347 335 347 c 0,115,116
 363 347 363 347 396.5 353 c 128,-1,117
 430 359 430 359 458.5 373.5 c 128,-1,118
 487 388 487 388 506 411.5 c 128,-1,119
 525 435 525 435 525 471 c 0,120,121
 525 519 525 519 492.5 544.5 c 128,-1,122
 460 570 460 570 415 570 c 0,123,124
 372 570 372 570 342.5 557.5 c 128,-1,125
 313 545 313 545 294.5 523 c 128,-1,126
 276 501 276 501 267.5 472.5 c 128,-1,127
 259 444 259 444 259 413 c 0,128,129
 259 383 259 383 265 355 c 1,113,114
EndSplineSet
EndChar

